/* XPM */
static char *door[] = {
/* columns rows colors chars-per-pixel */
"64 64 178 2",
"   c #160700",
".  c #1C0200",
"X  c #1B0800",
"o  c #220100",
"O  c #220A00",
"+  c #2B0400",
"@  c #2B0B00",
"#  c #2E1200",
"$  c #320200",
"%  c #340A00",
"&  c #3D0300",
"*  c #3B0C00",
"=  c #341300",
"-  c #3D1200",
";  c #3A1800",
":  c #430400",
">  c #430C00",
",  c #4A0500",
"<  c #4B0B00",
"1  c #431300",
"2  c #441900",
"3  c #4B1300",
"4  c #4B1A00",
"5  c #520600",
"6  c #530C00",
"7  c #5B0700",
"8  c #5A0D00",
"9  c #521300",
"0  c #521B00",
"q  c #5B1300",
"w  c #5A1B00",
"e  c #462100",
"r  c #4A2200",
"t  c #552200",
"y  c #5C2200",
"u  c #5C2B00",
"i  c #523B00",
"p  c #5D3800",
"a  c #630D00",
"s  c #6D0C00",
"d  c #621400",
"f  c #641B00",
"g  c #6A1400",
"h  c #6A1C00",
"j  c #750E00",
"k  c #7A0E00",
"l  c #721300",
"z  c #731D00",
"x  c #7B1200",
"c  c #7A1C00",
"v  c #632300",
"b  c #642800",
"n  c #6B2300",
"m  c #6B2B00",
"M  c #623100",
"N  c #6D3000",
"B  c #732300",
"V  c #732B00",
"C  c #7B2400",
"Z  c #7B2A00",
"A  c #733200",
"S  c #763800",
"D  c #7B3300",
"F  c #7C3A00",
"G  c #4A4300",
"H  c #4D4900",
"J  c #5A4C00",
"K  c #535500",
"L  c #575800",
"P  c #585900",
"I  c #6A5600",
"U  c #7C4200",
"Y  c #6B6B00",
"T  c #736400",
"R  c #776F00",
"E  c #7F6100",
"W  c #707100",
"Q  c #801700",
"!  c #811A00",
"~  c #812500",
"^  c #822B00",
"/  c #8D2500",
"(  c #8C2C00",
")  c #833400",
"_  c #833A00",
"`  c #8B3400",
"'  c #8B3B00",
"]  c #912600",
"[  c #922B00",
"{  c #943300",
"}  c #933B00",
"|  c #9B3400",
" . c #9B3B00",
".. c #A02D00",
"X. c #A33500",
"o. c #A33C00",
"O. c #AB3600",
"+. c #A93D00",
"@. c #B33B00",
"#. c #844300",
"$. c #854800",
"%. c #8B4200",
"&. c #8C4900",
"*. c #944300",
"=. c #934B00",
"-. c #9B4200",
";. c #9C4A00",
":. c #955200",
">. c #9B5200",
",. c #9D5900",
"<. c #866700",
"1. c #896300",
"2. c #8B7300",
"3. c #907900",
"4. c #A34400",
"5. c #A34A00",
"6. c #AA4300",
"7. c #AB4B00",
"8. c #A45100",
"9. c #A15B00",
"0. c #AB5200",
"q. c #AC5A00",
"w. c #B24500",
"e. c #B24C00",
"r. c #B94C00",
"t. c #B35300",
"y. c #B35A00",
"u. c #BB5300",
"i. c #BB5B00",
"p. c #A36000",
"a. c #A26E00",
"s. c #AA6100",
"d. c #A17C00",
"f. c #B36100",
"g. c #BC6200",
"h. c #BD6800",
"j. c #C15400",
"k. c #C35C00",
"l. c #C85D00",
"z. c #C46300",
"x. c #C46A00",
"c. c #CB6400",
"v. c #CB6B00",
"b. c #C67000",
"n. c #C47B00",
"m. c #CC7300",
"M. c #CC7A00",
"N. c #858400",
"B. c #898900",
"V. c #9F8F00",
"C. c #959500",
"Z. c #9C9B00",
"A. c #A08800",
"S. c #A09F00",
"D. c #B88500",
"F. c #A2A200",
"G. c #BCA700",
"H. c #B3B200",
"J. c #BAB900",
"K. c #C48000",
"L. c #CC8300",
"P. c #CD8A00",
"I. c #CD9100",
"U. c #CDA700",
"Y. c #C0B000",
"T. c #CFB200",
"R. c #D5B700",
"E. c #DCB900",
"W. c #C5C400",
"Q. c #CBCB00",
"!. c #D6C200",
"~. c #DAC300",
"^. c #D5D400",
"/. c #DFD000",
"(. c #E5E300",
"). c #E8E600",
"_. c #EDEB00",
"`. c #F3F100",
/* pixels */
"1 - - - 1 - 1 1 - ; - - - - ; 1 - 1 1 - 2 2 1 4 4 0 t t u u u M u r r 2 ; ; = = # # @ O @ O O O X O O X X O X X X X X X     X   ",
"- * - 2 2 4 r 4 4 t 0 t t t y b v m m m N A S F F #.#.&.=.;.=.>.;.=.=.&.#._ F A V m b b y b y y w 0 0 0 4 0 4 4 4 4 2 4 2 1 1 1 ",
"% * 2 2 2 2 1 4 4 4 4 0 r t y b m m N N N S F _ #.&.&.&.;.,.9.8.>.8.9.>.=.&.&.%.#.F F D S A V m b b y t t 0 0 r t r 4 2 2 - * * ",
"* 1 r r 1 - * * - * - - - 1 1 1 4 0 w w t b v m V A D ) ' &.s.s.q.s.;.#._ F F D A A b b b y y t t 0 2 4 2 4 1 1 - 1 - 2 e 2 * * ",
"% > t t ; % o o @ $ + o + + + $ * > > 3 1 > > < 3 3 v V D *.q.h.h.s.=.D Z n 0 9 4 < 3 2 2 3 3 * & % $ $ @ $ $ % $ + % 1 t t - * ",
"@ - t y - o . + % - % - > 1 1 1 > 3 3 4 1 3 6 5 $ + > V ) 5.g.b.x.f.5.) V 9 % $ , < > 1 3 3 > * * % % % + @ % % o . + - t t - % ",
"% - t b 1 o + y m A V m m b v n n m n h n h h h q & : ) #.8.h.m.m.x.0.%.F : $ < d h w w w w w y 0 0 w 0 0 0 0 4 - o o 1 b t - @ ",
"% * t b 2 o % V F ) ) D D D Z V Z ) V Z Z Z Z Z C , : #.*.y.b.M.M.x.q.*.*.< , z Z Z ~ C C Z ) Z V Z D D F _ _ D m % . 1 b t * % ",
"% - t b 1 o % A D D D D V Z V n D ' ^ Z Z Z Z Z V 6 < %.;.y.m.M.M.m.f.;.*.< 5 B Z Z Z Z Z Z ` ) B V Z D D D D D S % o 1 b t * % ",
"+ * t b 4 + * D F D Z Z Z Z B n ^ -.} ) Z Z Z Z B 5 5 ;.5.g.M.M.M.M.g.;.;.< < B Z Z C Z ) ` } ) n B Z Z Z D D F D * + 4 b t * @ ",
"$ % t m 4 + * D ) D Z Z Z B z B ^ } -. .^ C ^ Z B 8 6 *.8.h.M.M.M.M.x.0.5.q 8 B Z Z C ^ ' -.} ) h B V Z Z Z D D F * + 3 b t * $ ",
"@ % t b 9 + * D D D Z D Z B B z ) } -.4. .` ^ Z B d 8 =.q.x.M.M.M.M.b.0.;.8 q B Z ^ ^ { 4.;.} ) z B B Z Z D D D D * + 2 m t % + ",
"+ * y m 9 + * D D D Z Z V B B z ) } -.4.5.4.` ` Z d q *.0.h.M.L.L.M.x.0.;.d q C ^ `  .4.4.-.} ) B B B V Z Z D D D > + 9 m y % + ",
"+ * y b 0 + > D D D Z B V Z Z B ^ -.-.5.6.7.o.` ^ d d -.7.g.m.L.L.m.x.7.5.d d ~ (  .7.7.6.-. .` z B Z B V Z D D S > o 4 b y - + ",
"+ * y b 0 $ > F D Z C Z Z C Z c ( *.4.5.6.e.6. .( g d ;.e.x.m.L.M.M.x.0.5.d d ^  .6.6.6.4.4.-.` c Z Z Z Z Z Z D D > $ 0 b y * + ",
"+ = y m 0 + * D D Z Z Z C Z Z Z ` 4.4.5.7.6.r.6.| g z ;.0.z.m.M.L.m.z.7.8.h g { 7.w.e.7.4.5.-.` Z C Z Z Z Z Z D D > + 0 m y = + ",
"+ % y A 0 $ > D D Z Z Z C Z C C ' 7.5.7.6.e.u.u.7.c z ;.e.z.m.P.L.m.x.e.0.z c 4.u.u.e.7.5.5.5.` C C C Z C Z Z D D > $ 0 m y * + ",
"+ * y m 0 $ > ' ' ' ` ' ' ' ` ` }  . . . .o.o.o.| c c ;.t.z.m.L.L.M.z.t.8.z c | 6.4.o.o.o.o.o. .` ^ ` ) ) ) ) ) _ < + 9 m b % + ",
"@ % y b 0 $ > ' *.*.-.-.-.4.4.4. .| | { | [ / ] [ c c ;.t.x.m.P.P.m.x.t.7.z c ( / / [ { { | |  .4.-.-.-.-.} *.*.%.3 $ 0 m y * + ",
"+ * b m w $ > ' -.;.;.;.5.5.;.7.4.| |  .{ [ ] [  .c c 4.y.x.M.P.P.M.x.y.7.C z | [ ] ( { | |  .-.5.5.5.;.;.;.;.-.' < $ 0 m y % @ ",
"+ * v A 0 $ > ' } ;.8.8.5.5.7.7.5.o.o.| | [ | +.+.~ C 7.t.z.m.P.L.m.z.i.7.~ C o.6.| [ |  .o. .o.7.7.5.5.5.8.;.%.' < $ 0 V v * @ ",
"+ - b A 0 $ < %.-.;.8.0.0.0.0.t.7.4.o.o.| [ o.6.+.^ C 5.t.k.m.P.L.M.z.t.7.~ ~ +.6.o.[ |  .o.+.7.e.7.8.7.0.8.;.} %.< $ 0 N b * + ",
"@ * m S 0 $ < *.;.-.8.0.t.u.u.t.6.6.4.X.| | +.6.+.~ Z 7.t.x.M.P.P.M.v.t.0.^ ^ +.+.+.| | X.+.6.7.t.t.t.t.0.8.;.;.*.3 + 0 S m - + ",
"% - m F 0 $ > ;.5.;.;.0.i.i.i.k.t.6.+.o. .+.6.+.o.^ ( 0.t.x.M.P.L.L.x.t.0.^ ~ X.+.6.+. . .+.6.e.i.k.i.i.0.5.-.5.*.3 $ 0 S N - % ",
"% 1 N F y $ 9 ;.0.8.5.0.y.i.i.k.r.6.o.o.6.6.6.+.X.( ( 0.u.v.M.P.L.M.x.k.t.( ^ X.+.+.6.6.o.o.7.e.k.i.i.i.0.5.8.5.5.3 $ w D N 1 % ",
"% 1 N F w $ 9 5.0.5.0.8.t.i.k.k.t.o.o.4.6.6.+.+. .( [ 0.u.x.L.P.P.L.x.u.t.{ (  .+.+.6.6.4.o.o.t.k.k.i.u.0.7.8.0.5.0 $ w F N 1 % ",
"% 1 A F w $ 9 5.8.8.0.0.e.i.k.k.e.-.o.6.4.o.+.+.X.( ( t.u.v.L.I.P.L.v.j.e.{ (  .6.o.4.o.+.o.o.e.l.k.i.0.0.0.8.8.8.3 $ w F A 2 % ",
"* 2 S F v $ 9 ;.5.5.5.;.7.e.k.k.e.o.+.6.+.o.o.+. .[ ` r.j.v.L.I.P.P.x.j.u.[ [ | 6.o.o.+.6.6.o.7.k.k.t.7.5.8.5.8.5.9 $ y F S 2 * ",
"1 4 F #.b $ 9 ;.5.5.;.7.6.7.u.l.e.o.4.+.o. .o.+.X.( ( 7.u.x.P.P.P.P.x.u.0.[ ( | +.o.o.+.+.4.o.6.l.j.7.7.7.4.4.5.;.q $ v U F 4 * ",
"1 9 F %.b $ <  .5.5.4.5.7.6.e.k.t. .o.o.o.| | o.| ( ( 7.t.x.L.P.P.P.x.t.0.[ / | o.| |  .o.o. .e.l.e.6.7.7.5.4.;.-.6 $ b #._ 0 * ",
"> 0 #.&.N & > )  .} -.4.5.4.4.e.t.5.4.7.6.7.6.6.o.|  .0.y.x.m.P.P.M.x.t.t. .|  .7.6.6.6.4.5.4.0.u.4.5.7.;.-.} -.` < $ m %.#.0 > ",
"3 0 %.=._ w 3 B Z ` ' }  .-.-.4.7.t.j.k.z.x.x.x.z.r.u.i.u.z.M.P.L.M.v.u.i.u.u.g.x.x.v.z.k.j.u.7.-.-.-. .} ' ` ) B < 3 F =.#.0 3 ",
"4 y $.;.=.*.D _ ' ' %.*.} *.-.-.4.5.7.5.e.e.t.e.e.r.i.!.g.v.M.P.P.M.x.i.!.g.r.e.0.u.t.e.7.7.5.;.-. .*.} } ' ' ` D V F *.>.#.y 4 ",
"0 y $.9.s.s.y.g.g.g.g.g.h.g.g.g.g.g.i.z.z.k.k.k.i.x.Y.`.~.x.M.P.L.M.v.G.`./.x.z.k.k.k.k.z.i.i.g.z.g.g.f.g.q.y.q.q.q.q.q.9.&.w 0 ",
"w f &.:.>.q.q.q.q.f.y.y.q.f.i.u.i.i.u.i.u.u.r.k.z.A.Q._.`.E.M.L.L.m.A.W.).`.~.g.j.u.u.u.i.i.u.i.i.i.i.y.g.g.g.g.s.y.s.9.>.&.v q ",
"w y &.&.*.>.>.>.5.5.5.;.4.;.5.5.-.4.4.5.6.7.7.7.1.C.J.^.)._.E.L.L.2.C.J.Q.)._.U.7.6.6.7.5.4.4.4.4.5.;.;.5.5.5.8.8.>.8.&.&.&.y w ",
"w f %.=.&.*.=.*.*.*.} -. .} -. . .}  . . . . .U Y B.F.J.Q.(.).R.<.Y B.S.J.Q.(.(.D. . . .-. . . . . .-. .-.} *.*.*.;.=.*.=.%.v w ",
"0 w #.:.%.) ) ) _ ) ) ) ` ) ) ) ) ( ( ^ ~ ~ ~ M L R B.S.H.Q.^.R.E P R N.Z.H.W.^.a.C C ~ ^ ^ ( ` ` ) ) ) ` _ ) ) ) ) _ &.:.#.w 0 ",
"0 w =.:.F D D B Z V B B C C Z Z ^ ~ Z ^ ~ ~ ~ C p P W B.Z.H.G.P.L.I L Y N.Z.H.d.~ ~ ~ ~ ~ ^ ^ Z Z Z C C Z B V Z Z D D F ;.&.w w ",
"0 y :.=.D ) m q < < q 6 8 6 q q q w d h h h h n B i P W N.V.P.I.P.K.J K Y N.3.B z h h h d f d w w q 8 q 6 6 q 9 0 V ) D :.:.y 0 ",
"t y ,.,.F n 3 $ % & : & & : , < < , 6 6 8 8 q d g z i L W y.M.P.L.M.s.G K T c g d q 8 8 q 6 < , < , : : $ : : $ $ 9 n F >.,.y 0 ",
"0 y 9.s._ > $ $ 5 8 8 q q w f h n V B C Z Z Z B h k f H _ y.m.L.L.m.y.F H c k z Z Z Z Z C B B n f f d 0 q q 6 < $ $ < D s.9.y r ",
"0 y p.s.A & : 8 / }  .;.;.;.7.r.g.n.x.z.k.z.z.i.| x k ' ' 0.b.L.M.m.0.` } Q k | k.c.c.k.c.x.n.x.r.7.;.;.4.-.| / 8 : & A s.p.b 0 ",
"r b p.p.V : q [ 4.;.7.7.t.t.t.r.x.L.m.v.c.v.v.c.r.Q k +. .7.v.L.M.m.e. .6.k x r.c.v.v.v.v.m.L.v.e.t.t.t.7.7.5. .[ 8 : V s.9.u r ",
"4 y ,.p.A > d  .5.5.7.7.7.7.7.e.c.M.M.m.v.v.c.c.j.Q k o. .7.v.M.m.b.e.| 4.x x r.c.c.c.v.m.M.M.z.e.7.7.7.7.7.5.5.-.d > V 9.,.y 0 ",
"0 y ,.p.V < f *.5.5.4.5.7.7.7.e.l.v.M.M.m.c.c.c.j.Q k  .` 7.x.M.m.b.e.`  .x x u.c.c.c.m.M.m.m.z.e.7.7.7.;.4.5.5.-.f < A 9.9.y 0 ",
"4 y :.,.A < h *.5.-.-.-.4.5.7.7.k.v.m.m.m.m.c.c.u.Q j | ( 5.v.m.m.v.7.^ ' j x r.c.c.m.m.m.m.v.l.7.7.7.4.4.-.;.5.*.h < m ,.:.u 4 ",
"4 y >.>.m < f ' *.}  .-.4.7.7.e.j.c.v.v.m.m.v.c.u.x s { ^ 4.l.v.v.l.7.^ { s j r.c.v.m.v.v.v.c.l.7.7.7.4.-.} } } %.h < m ,.:.y 0 ",
"0 y :.:.n < h } } *.-.;.5.7.7.0.t.k.l.l.l.l.l.z.j.c j ^ Z o.k.c.z.k.4.C ) j x r.c.l.k.c.l.k.k.y.0.7.7.;.;.-.*.*.*.n < n :.:.y 4 ",
"4 w =.=.m < h >.8.0.8.q.t.y.i.t.0.e.e.e.w.+.O.@.r.! j ^ Z  .u.c.c.j. .C ) j c 6.@.X.O.@.w.e.e.7.t.i.y.t.q.0.0.8.;.v < n =.;.y 0 ",
"4 y &.:.m < h ;.>.8.0.q.q.y.y.y.7.5.4.+.o.X...O.w.c s Z B ` e.l.k.e.} C Z j x 6.O.| | o.+.4.7.7.t.i.y.q.q.8.>.8.;.n < m =.=.w 0 ",
"9 y &.&.b < h ;.;.=.>.0.0.y.y.i.0.-. .4.| | X.+.6.l s ^ C ` 7.j.j.e.' B Z s l 6.+.X.| | o. .-.7.i.y.y.q.0.;.;.;.=.n < v &.&.w 4 ",
"0 y &.&.b < f =.-.-.;.8.8.0.y.z.7.}  .} | | o.6.6.l a Z B ` e.j.j.e.` B Z g g +.6.+.| |  .} } 7.g.y.0.0.8.=.*.;.=.h < v $.&.y 0 ",
"9 y $.#.n < f %.=.%.%.*.8.0.y.i.7.' } | }  .-.4.4.z g Z n ` 7.k.k.e.` n V g g 4.7. .-.' | } ' 5.i.y.e.;.;.} %.*.%.y < n #.$.y 9 ",
"0 y $.#.y < w ' %.' %.} *.4.0.y.4.' ` `  . .4.4.6.g d V n ` 7.k.k.0.} B Z d g o.5. . . .' ` ' 4.u.0.5.-.%.%.' %.' w < y #.$.y 0 ",
"9 y U F y 3 0 ^ ' ' %.%.%.-.;.u.7.' } -. .-. .4.+.s 8 B B ' 0.k.k.t.' B Z 7 a o.+.-. .-. .} ' 4.y.;.} %.' %.' ' Z w 3 w U U y 9 ",
"4 y U F w > 3 d B ) ' _ _ ' ' -.} '  . .-.-. . .[ a 7 Z Z ' t.c.l.u. .V Z 8 8 ( }  .-.-.-. .` } } _ ` _ ' F ) n w 3 > w F #.y 4 ",
"4 b F S 0 > > < 9 n n n n n n B B Z Z ^ ) ^ Z C h 5 5 Z B } u.z.z.i.-.B Z 5 , d z B B B C B n h n h n n n f n 6 < > & 0 S F v 4 ",
"9 y F A 0 > > > * < < < 9 < 6 < 5 6 6 6 6 6 8 6 5 : , V Z  .i.z.x.u.*.Z D 6 , 5 5 6 6 8 6 6 5 , < 5 < < < < < > > > > 0 N F y 4 ",
"4 y A N y 9 > 1 > < 3 3 < < 6 9 3 < q q q q q 8 8 8 n ' ) -.i.z.c.i.;.` } ^ g a g d f w q 0 0 q q 0 9 9 9 < 3 1 < 1 0 w N D y 3 ",
"2 w A m y t y y y y b v m m V m V m V D ' %.%.} } } 5.7.} 4.g.v.z.z.7.%.t.7.5.;.;.-.*.*.' D A D V A V m m b b b b y y y N A y 1 ",
"3 4 u m m m A N A A F F F F ' #.%.%.&.>.0.0.0.q.y.q.i.g.0.t.t.z.z.t.t.t.g.g.y.y.y.0.0.8.>.=.*.#.%.#.F F F S S V A A m m b u 4 2 ",
"4 - 1 0 0 y w w y y v b b b m A A D D F ' ' ' ' ' ' } *.-.;.4.t.t.-.' ` ) Z V Z Z D D ^ V V B m v v y w y y 0 9 0 4 4 0 4 - * 4 ",
"4 1 * * > > * * * > 3 9 > < 3 4 9 q w w f f v h h n h n ^ `  .0.i.7.o.' Z B V n n h n h w w q 0 4 4 3 3 9 9 3 > * > > > 1 > 1 0 "
};
