/* XPM */
static char *sign_wooddoor_1_64x641718179596[] = {
/* columns rows colors chars-per-pixel */
"64 64 188 2 ",
"   c None",
".  c #6C301C",
"X  c #76321D",
"o  c #7B351D",
"O  c #7F391B",
"+  c #6E3326",
"@  c #6F3926",
"#  c #6C352A",
"$  c #6B392D",
"%  c #753625",
"&  c #7B3623",
"*  c #763925",
"=  c #7D3A25",
"-  c #733729",
";  c #7C3728",
":  c #763A2A",
">  c #7B3B2A",
",  c #7A3F30",
"<  c #7C402C",
"1  c #6B4A3E",
"2  c #6A4333",
"3  c #754435",
"4  c #7D4533",
"5  c #734836",
"6  c #7E4935",
"7  c #734A3A",
"8  c #7D4C38",
"9  c #795943",
"0  c #76675F",
"q  c #7C6B5F",
"w  c #6A6A6D",
"e  c #756760",
"r  c #766B63",
"t  c #7A6D63",
"y  c #7D756A",
"u  c #797577",
"i  c #747174",
"p  c #83361D",
"a  c #8B371A",
"s  c #853A1E",
"d  c #8D3B1D",
"f  c #993B17",
"g  c #963718",
"h  c #933D1C",
"j  c #993D1A",
"k  c #943A16",
"l  c #823621",
"z  c #843B24",
"x  c #8C3D23",
"c  c #843D29",
"v  c #8B3E29",
"b  c #923E22",
"n  c #993F21",
"m  c #8E401E",
"M  c #94411E",
"N  c #9C441D",
"B  c #A44B17",
"V  c #A4441B",
"C  c #A8471C",
"Z  c #A44B1C",
"A  c #AA4C1E",
"S  c #AA501E",
"D  c #864126",
"F  c #8E4124",
"G  c #85432C",
"H  c #8D432A",
"J  c #8F492C",
"K  c #934323",
"L  c #9A4523",
"P  c #954825",
"I  c #9C4925",
"U  c #92452A",
"Y  c #99452A",
"T  c #944A2C",
"R  c #9C4C2B",
"E  c #92502E",
"W  c #9C502D",
"Q  c #844633",
"!  c #8B4531",
"~  c #844A34",
"^  c #8B4B33",
"/  c #8A473F",
"(  c #844A3B",
")  c #8A4D3C",
"_  c #914631",
"`  c #984731",
"'  c #934B32",
"]  c #9B4D32",
"[  c #914E39",
"{  c #994D38",
"}  c #8C503D",
"|  c #9B5234",
".  c #93523B",
".. c #99523D",
"X. c #99593C",
"o. c #9D5935",
"O. c #A34622",
"+. c #A44B24",
"@. c #AA4E24",
"#. c #A34C2A",
"$. c #AA4E2A",
"%. c #B14F26",
"&. c #A65124",
"*. c #AC5224",
"=. c #A4522D",
"-. c #AC532B",
";. c #A5592E",
":. c #AD5A2C",
">. c #B45424",
",. c #B95526",
"<. c #B75926",
"1. c #BB5A26",
"2. c #B3542A",
"3. c #B9562B",
"4. c #B35A2C",
"5. c #BC5A2C",
"6. c #A24D32",
"7. c #A45232",
"8. c #AB5531",
"9. c #AD5931",
"0. c #A4553A",
"q. c #A95239",
"w. c #A7583E",
"e. c #A45C31",
"r. c #B25532",
"t. c #B85730",
"y. c #B35B32",
"u. c #BB5C33",
"i. c #B3593A",
"p. c #B56234",
"a. c #B86335",
"s. c #B46238",
"d. c #BB653A",
"f. c #C05D2C",
"g. c #C06034",
"h. c #8C4D40",
"j. c #8D5344",
"k. c #8F5A46",
"l. c #8D5A4A",
"z. c #885547",
"x. c #985240",
"c. c #9C5841",
"v. c #905E4D",
"b. c #92574B",
"n. c #8E5F50",
"m. c #915E50",
"M. c #A35F42",
"N. c #866046",
"B. c #86664F",
"V. c #95614B",
"C. c #8C6F5D",
"Z. c #986351",
"A. c #9A6951",
"S. c #986E59",
"D. c #A26144",
"F. c #A17356",
"G. c #816F61",
"H. c #837466",
"J. c #82766B",
"K. c #89746A",
"L. c #8D7A69",
"P. c #967B66",
"I. c #957E6B",
"U. c #997E6A",
"Y. c #827F7F",
"T. c #9F8267",
"R. c #9A826C",
"E. c #998570",
"W. c #9D8974",
"Q. c #A28467",
"!. c #A3856B",
"~. c #A18071",
"^. c #AB8972",
"/. c #A69077",
"(. c #AB9579",
"). c #B49D7D",
"_. c #817E80",
"`. c #949085",
"'. c #9A928D",
"]. c #A3978D",
"[. c #AA9A8E",
"{. c #A69385",
"}. c #A69C95",
"|. c #A99E97",
" X c #AB9D9E",
".X c #B29F9D",
"XX c #A9A199",
"oX c #B3A9A6",
/* pixels */
"a.a.4.:.y.4.4.x r.u.u.u.t.f.t.f.f.f.f.5.f.f.3.f.f.g.t.t.r.7.8.9.8.:.8.8.2.U #.r.r.8.8.-.$.$.-.$.#.#.#.6.6.z J ] E ] J ' J G !.**",
"a.a.4.:.:.4.9.z #.O.$.+.O.O.O.O.C C V V V V V V O.O.O.n #.q.9.9.r.8.8.4.=.s n L O.n n n n K b b j n n b K = J T | T ' ' J ~ Q.**",
"a.y.4.4.:.4.4.D ` 6.x.v ` n v 6.Y Y Y Y Y Y Y ` ` ` n ` { r.9.r.9.9.9.2.U * G _ U v v v v v c c c v G G ^ 4 J ] ] T ! T J ~ T.**",
"a.y.4.4.:.y.4.D x.M.g.i.g.i.M.g.u.,.3.3.u.u.u.u.g.g.r.q.q.8.9.r.8.9.9.=.F 6.8.7.7.q.8.7.7.7.7.7.6.q.7.7.0.c T ' T ' T ' T 6 !.**",
"p.4.4.4.:.-.:.s r.g.t.g.f.f.f.f.f.f.f.3.5.f.5.1.t.f.f.q.7.8.8.:.8.9.8.U Y $.%.2.3.-.>.>.3.-.>.-.:.-.$.$.6.z U R T T J ' J 6 P.'.",
"4.4.4.5.:.-.:.x q.g.t.r.f.f.f.f.1.f.,.,.,.,.,.2.%.3.q.6.7.-.8.=.:.8.#.v $.$.$.%.2.-.$.$.-.$.2.-.-.@.$.+.#.c ! T J T J T ^ ~ R.}.",
":.p.p.4.:.-.:.m $.f.t.t.f.3.,.f.f.1.1.,.>.,.,.5.3.3.7.7.7.6.7.;.8.:.P T $.$.2.$.2.2.$.$.$.-.-.-.%.@.@.#.Y c J R J T ! T ' ^ E.}.",
":.<.<.<.*.:.:.x q.f.f.f.t.3.%.%.1.1.,.,.3.,.5.u.u.8.6.=.#.=.-.8.8.W U #.>.r.3.2.2.-.>.$.-.$.@.@.@.O.@.#.R = J E U T T T T ~ R.}.",
"4.<.:.<.:.4.:.s $.%.%.%.%.%.%.,.,.,.3.,.5.t.4.>.r.7.#.7.7.=.;.8.8.R Y $.-.2.2.3.>.$.$.$.$.$.$.$.$.O.#.#.#.z J R T T T J T ~ I.XX",
":.:.*.<.*.:.:.s 6.%.%.%.%.%.C %.%.>.%.>.%.3.3.r.8.] =.7.=.=.;.8.;.U #.$.-.2.4.2.2.@.$.$.$.@.@.+.+.O.O.#.Y c J W T T ' T T ^ P.XX",
"-.*.:.*.*.*.:.O x L n L j f g g f j j g f j L n R #.7.7.=.7.8.9.U & b d h h j b h a a a g a g a a g x x x = J T U T T T E ^ U.}.",
";.*.*.&.&.-.&.< { w.0.0.q.q.q.q.0.7.] ] ] 6.0.c.6.7.=.#.7.e.8.;.D G ' ' ' ] T ] Y _ _ U U ! ! U ! v ! ! ) 4 J R J T E T ^ ) T.}.",
";.&.+.+.&.:.:.s $.u.y.u.5.4.5.5.u.5.,.2.2.2.r.7.=.=.7.=.;.8.8.P R :.y.r.2.-.$.$.-.-.$.-.$.-.$.$.-.=.#.q.7.= F T F T T ' J ^ R.XX",
"=.W A.X.I :.:.p #.3.3.3.1.1.1.1.1.1.1.4.5.u.9.7.W | R 7.8.8.W v I -.>.:.2.-.2.>.-.$.@.@.$.$.@.$.$.*.#.-.7.D H P H U T T J ^ R.`.",
"&.Z.].R.P :.:.O #.2.3.%.3.%.>.,.,.>.,.,.<.1.8.W W R ] 7.;.;.U U #.>.*.2.4.4.>.@.$.@.@.$.@.-.*.#.+.+.#.+.=.z F P J J K F J E (.**",
"W X.C.N.P ;.:.O #.>.%.3.%.3.>.>.<.>.S <.,.-.=.W | ] R =.=.=.K #.2.4.4.>.:.*.*.@.@.@.@.$.+.*.+.+.+.=.+.=.=.z J P F F J F J J [.**",
";.W E P P &.;.O +.3.3.>.>.>.>.>.>.>.S ,.2.8.W R T R #.| =.P P -.2.4.*.@.@.*.*.@.@.@.+.+.+.*.+.+.+.#.+.&.&.c J K D J F F K E ).**",
"H F z v v v v n v b x x K P c c b K L P P K U U K U T U b K b v v b K U v b K b b b b x b b b M h d x b b - ; c c c c z x Q t***",
"G H F x x b v x x x x b K K = x n U K K K K U K U U U U L v K K b b K K L K K K b b K x b d x h h x x x x - & c z c z c c ~ t***",
"c v x c v x l v v x b K K z c H K U K K x x H F K K v v v v v v v v v v b b b h b b b h x d d h h b b n x - & c = c c = D 8 r***",
"G F x v z F z v c x F L M ; G H H U U x x v v F H H v U F v U x v v b b K b x x x x x x x x K K b b P K b % & z = D = ; c 6 t***",
"G x v x z x z z v x P L D D H H J J J H U F v H U U U H K U v v U x x b x x b K K b v x d x x h x H J H x - ; z c = > ; = 6 H.**",
"< H v z c v z z U b P J - v v v ! J H H J H H H H J J J J J H J J F K x F K x x K x v b x x x F H v H x z # ; z ; > , ; * 6 J.Y.",
", c x c z z z v x v U < 2 7 3 8 8 8 6 6 8 ~ 6 4 4 4 Q 6 8 6 4 ~ 4 ( ~ ~ 6 < ~ ~ < 4 Q 4 6 6 ~ 6 ~ 6 8 8 8 7 ; z ; ; = = * 5 J.Y.",
", c v c c l z v K b U h.9 l.n.n.V.V.l.l.N.l.v.k.k.l.l.k.l.l.j.l.l.l.j.j.j.b.j.j.} j.j.j.j.j.} ) h.h.j.j.h./ ; l = ; ; : ; 3 y Y.",
"4 G x x ; z l v L L K T b Y Y U P W P P P R P P L I I I Y P I I L K K K K M h h M M h j g h h h h g h h n x ; c ; > ; % % 3 H.u ",
", H v x z z l z N N L P L K K L M P P M P P m P P M I P K K P P P K h M M h b h M M h j h k m N h g h h g g p l > = * % % 7 y u ",
", v H x v z x x K K K K P P T K E P P J U P P P P P M P P M m P b K K F b b d b d d m h h d k m d h g h h x & c * = * - - 7 y u ",
"> c F H x z z z x K x K K F K P P F P P P P P K P m P N M M P m x K b b M b m K K h h h M m M h d h h M b a & l % ; ; - + 7 y i ",
"< c F z z x z z h b x F F H F T P J F P F J F K F F F P P K M M h b b M h M h x x d d d k d d d d h k d g a X & % ; : - + 1 y w ",
"< = c G z z l z x b K x F H J F F K F F F J m F F F F F m m x x F d x h h d x d m x s d k d d d d d d d a x & c - : - # . 1 r***",
"a.a.4.:.y.4.4.x r.u.u.u.t.f.t.f.f.f.f.5.f.f.3.f.f.g.t.t.r.7.8.9.8.:.8.8.2.U #.r.r.8.8.-.$.$.-.$.#.#.#.6.6.z J ] E ] J ' J G !.**",
"a.a.4.:.:.4.9.z #.O.$.+.O.O.O.O.C C V V V V V V O.O.O.n #.q.9.9.r.8.8.4.=.s n L O.n n n n K b b j n n b K = J T | T ' ' J ~ Q.**",
"a.y.4.4.:.4.4.D ` 6.x.v ` n v 6.Y Y Y Y Y Y Y ` ` ` n ` { r.9.r.9.9.9.2.U * G _ U v v v v v c c c v G G ^ 4 J ] ] T ! T J ~ T.**",
"a.y.4.4.:.y.4.D x.M.g.i.g.i.M.g.u.,.3.3.u.u.u.u.g.g.r.q.q.8.9.r.8.9.9.=.F 6.8.7.7.q.8.7.7.7.7.7.6.q.7.7.0.c T ' T ' T ' T 6 !.**",
"p.4.4.4.:.-.:.s r.g.t.g.f.f.f.f.f.f.f.3.5.f.5.1.t.f.f.q.7.8.8.:.8.9.8.U Y $.%.2.3.-.>.>.3.-.>.-.:.-.$.$.6.z U R T T J ' J 6 P.'.",
"4.4.4.5.:.-.:.x q.g.t.r.f.f.f.f.1.f.,.,.,.,.,.2.%.3.q.6.7.-.8.=.:.8.#.v $.$.$.%.2.-.$.$.-.$.2.-.-.@.$.+.#.c ! T J T J T ^ ~ R.}.",
":.p.p.4.:.-.:.m $.f.t.t.f.3.,.f.f.1.1.,.>.,.,.5.3.3.7.7.7.6.7.;.8.:.P T $.$.2.$.2.2.$.$.$.-.-.-.%.@.@.#.Y c J R J T ! T ' ^ E.}.",
":.<.<.<.*.:.:.x q.f.f.f.t.3.%.%.1.1.,.,.3.,.5.u.u.8.6.=.#.=.-.8.8.W U #.>.r.3.2.2.-.>.$.-.$.@.@.@.O.@.#.R = J E U T T T T ~ R.}.",
"4.<.:.<.:.4.:.s $.%.%.%.%.%.%.,.,.,.3.,.5.t.4.>.r.7.#.7.7.=.;.8.8.R Y $.-.2.2.3.>.$.$.$.$.$.$.$.$.O.#.#.#.z J R T T T J T ~ I.XX",
":.:.*.<.*.:.:.s 6.%.%.%.%.%.C %.%.>.%.>.%.3.3.r.8.] =.7.=.=.;.8.;.U #.$.-.2.4.2.2.@.$.$.$.@.@.+.+.O.O.#.Y c J W T T ' T T ^ P.XX",
"-.*.:.*.*.*.:.O x L n L j f g g f j j g f j L n R #.7.7.=.7.8.9.U & b d h h j b h a a a g a g a a g x x x = J T U T T T E ^ U.}.",
";.*.*.&.&.-.&.< { w.0.0.q.q.q.q.0.7.] ] ] 6.0.c.6.7.=.#.7.e.8.;.D G ' ' ' ] T ] Y _ _ U U ! ! U ! v ! ! ) 4 J R J T E T ^ ) T.}.",
";.&.+.+.&.:.:.s $.u.y.u.5.4.5.5.u.5.,.2.2.2.r.7.=.=.7.=.;.8.8.P R :.y.r.2.-.$.$.-.-.$.-.$.-.$.$.-.=.#.q.7.= F T F T T ' J ^ R.XX",
"=.W A.X.I :.:.p #.3.3.3.1.1.1.1.1.1.1.4.5.u.9.7.W | R 7.8.8.W v I -.>.:.2.-.2.>.-.$.@.@.$.$.@.$.$.*.#.-.7.D H P H U T T J ^ R.`.",
"&.Z.].R.P :.:.O #.2.3.%.3.%.>.,.,.>.,.,.<.1.8.W W R ] 7.;.;.U U #.>.*.2.4.4.>.@.$.@.@.$.@.-.*.#.+.+.#.+.=.z F P J J K F J E (.**",
"W X.C.N.P ;.:.O #.>.%.3.%.3.>.>.<.>.S <.,.-.=.W | ] R =.=.=.K #.2.4.4.>.:.*.*.@.@.@.@.$.+.*.+.+.+.=.+.=.=.z J P F F J F J J [.**",
";.W E P P &.;.O +.3.3.>.>.>.>.>.>.>.S ,.2.8.W R T R #.| =.P P -.2.4.*.@.@.*.*.@.@.@.+.+.+.*.+.+.+.#.+.&.&.c J K D J F F K E ).**",
"H F z v v v v n v b x x K P c c b K L P P K U U K U T U b K b v v b K U v b K b b b b x b b b M h d x b b - ; c c c c z x Q t***",
"H F z v v v v n v b x x K P c c b K L P P K U U K U T U b K b v v b K U v b K b b b b x b b b M h d x b b - ; c c c c z x Q t***",
"G H F x x b v x x x x b K K = x n U K K K K U K U U U U L v K K b b K K L K K K b b K x b d x h h x x x x - & c z c z c c ~ t***",
"c v x c v x l v v x b K K z c H K U K K x x H F K K v v v v v v v v v v b b b h b b b h x d d h h b b n x - & c = c c = D 8 r***",
"G F x v z F z v c x F L M ; G H H U U x x v v F H H v U F v U x v v b b K b x x x x x x x x K K b b P K b % & z = D = ; c 6 t***",
"G x v x z x z z v x P L D D H H J J J H U F v H U U U H K U v v U x x b x x b K K b v x d x x h x H J H x - ; z c = > ; = 6 H.**",
"< H v z c v z z U b P J - v v v ! J H H J H H H H J J J J J H J J F K x F K x x K x v b x x x F H v H x z # ; z ; > , ; * 6 J.Y.",
", c x c z z z v x v U < 2 7 3 8 8 8 6 6 8 ~ 6 4 4 4 Q 6 8 6 4 ~ 4 ( ~ ~ 6 < ~ ~ < 4 Q 4 6 6 ~ 6 ~ 6 8 8 8 7 ; z ; ; = = * 5 J.Y.",
", c v c c l z v K b U h.9 l.n.n.V.V.l.l.N.l.v.k.k.l.l.k.l.l.j.l.l.l.j.j.j.b.j.j.} j.j.j.j.j.} ) h.h.j.j.h./ ; l = ; ; : ; 3 y Y.",
"4 G x x ; z l v L L K T b Y Y U P W P P P R P P L I I I Y P I I L K K K K M h h M M h j g h h h h g h h n x ; c ; > ; % % 3 H.u ",
", H v x z z l z N N L P L K K L M P P M P P m P P M I P K K P P P K h M M h b h M M h j h k m N h g h h g g p l > = * % % 7 y u ",
", v H x v z x x K K K K P P T K E P P J U P P P P P M P P M m P b K K F b b d b d d m h h d k m d h g h h x & c * = * - - 7 y u ",
"> c F H x z z z x K x K K F K P P F P P P P P K P m P N M M P m x K b b M b m K K h h h M m M h d h h M b a & l % ; ; - + 7 y i ",
"< c F z z x z z h b x F F H F T P J F P F J F K F F F P P K M M h b b M h M h x x d d d k d d d d h k d g a X & % ; : - + 1 y w ",
"< = c G z z l z x b K x F H J F F K F F F J m F F F F F m m x x F d x h h d x d m x s d k d d d d d d d a x & c - : - # . 1 r***",
"> c H c x z l & x b K F x v H F F J F m F F J F F K m m F M K K m F F F m M m x s x M d d m d M m m m m n x X & - > # # # 9*****"
};
