/* XPM */
static char *_9ab37ff85af447c8283da3ed37a0ceb5evdH2KyMcv6V5SX[] = {
/* columns rows colors chars-per-pixel */
"64 64 203 2 ",
"   c None",
".  c #7E6706",
"X  c #7F6806",
"o  c #905F04",
"O  c #816A06",
"+  c #846D09",
"@  c #886F08",
"#  c #966505",
"$  c #986706",
"%  c #976807",
"&  c #9B6B07",
"*  c #9D6E08",
"=  c #8C730A",
"-  c #95780A",
";  c #957C11",
":  c #A27409",
">  c #A6790A",
",  c #AA7D0B",
"<  c #9C810B",
"1  c #9E8106",
"2  c #9E8417",
"3  c #A48503",
"4  c #AA8A03",
"5  c #AE810D",
"6  c #A6880C",
"7  c #B2840D",
"8  c #B58A0F",
"9  c #BB8D0F",
"0  c #B89607",
"q  c #A58911",
"w  c #AB8E11",
"e  c #A1871D",
"r  c #B28510",
"t  c #B68A11",
"y  c #B98D11",
"u  c #AE9119",
"i  c #B49512",
"p  c #BD9211",
"a  c #BD9D15",
"s  c #B69818",
"d  c #AA922D",
"f  c #BA9D23",
"g  c #BDA028",
"h  c #C2960B",
"j  c #C19611",
"k  c #C59B14",
"l  c #CA9D13",
"z  c #C6A30C",
"x  c #D3AA00",
"c  c #DFB60D",
"v  c #DBB206",
"b  c #C5A316",
"n  c #CBA516",
"m  c #CEA519",
"M  c #CDAB1C",
"N  c #D2A514",
"B  c #D3AA16",
"V  c #D9AB16",
"C  c #D3AD19",
"Z  c #D6B214",
"A  c #DEB614",
"S  c #DFB814",
"D  c #D7B219",
"F  c #DDB61A",
"G  c #DFB91B",
"H  c #E0B70C",
"J  c #E3BA0C",
"K  c #E1B415",
"L  c #E2BA15",
"P  c #E2B518",
"I  c #E3BC1B",
"U  c #E8BE1B",
"Y  c #C7A92C",
"T  c #DEB923",
"R  c #DEBA2A",
"E  c #CEB133",
"W  c #DDBB33",
"Q  c #DCBC3C",
"!  c #D4B83E",
"~  c #C9AD3D",
"^  c #E0BE2D",
"/  c #E0BF32",
"(  c #DFC014",
")  c #FBD502",
"_  c #FCDD02",
"`  c #F9D40C",
"'  c #F7DB0F",
"]  c #E6C11C",
"[  c #EBC31D",
"{  c #E7C617",
"}  c #F0C71E",
"|  c #F3CB1F",
" . c #ECD212",
".. c #F7D416",
"X. c #F8D514",
"o. c #F5DD14",
"O. c #F9DC14",
"+. c #F6D41D",
"@. c #F7DB1B",
"#. c #FBDF1C",
"$. c #F9E50D",
"%. c #FBEB0A",
"&. c #F9E80A",
"*. c #FFF00C",
"=. c #F7E113",
"-. c #F9E312",
";. c #FEEB14",
":. c #FBE21D",
">. c #EAC620",
",. c #EDCB21",
"<. c #E3C02D",
"1. c #F3CF21",
"2. c #F5D423",
"3. c #F9D523",
"4. c #FCDC25",
"5. c #F5D62B",
"6. c #FBDB29",
"7. c #F6D82F",
"8. c #E2C133",
"9. c #E3C43B",
"0. c #E7C83D",
"q. c #EBCC3B",
"w. c #E8C633",
"e. c #EFD13A",
"r. c #F3D534",
"t. c #F7D833",
"y. c #F8D936",
"u. c #F2D53B",
"i. c #F5D83B",
"p. c #F8DA3A",
"a. c #FFE126",
"s. c #FFE125",
"d. c #FBE624",
"f. c #F5E433",
"g. c #B9A551",
"h. c #B7A972",
"j. c #BAAD7B",
"k. c #DBBC42",
"l. c #DBBF4F",
"z. c #CEB550",
"x. c #DABE52",
"c. c #DDC147",
"v. c #DAC15B",
"b. c #DAC055",
"n. c #E2C444",
"m. c #E6C942",
"M. c #E3C74A",
"N. c #E6CA4C",
"B. c #E9CD4A",
"V. c #EBCE43",
"C. c #ECD14C",
"Z. c #EFD447",
"A. c #F1D543",
"S. c #F5D944",
"D. c #F1D74D",
"F. c #F1DF49",
"G. c #E6CB51",
"H. c #EACF50",
"J. c #EDD453",
"K. c #EED75B",
"L. c #F2D854",
"P. c #F0E44E",
"I. c #D9C473",
"U. c #D9C57A",
"Y. c #ECD868",
"T. c #F1DA69",
"R. c #EBD874",
"E. c #EEDB7C",
"W. c #F0DB76",
"Q. c #E9E179",
"!. c #C5B889",
"~. c #C7BE9B",
"^. c #CFC28C",
"/. c #D8C789",
"(. c #C9C09E",
"). c #D9CB93",
"_. c #D7CB9D",
"`. c #D8CB9A",
"'. c #DFD99F",
"]. c #E6D98C",
"[. c #E9D986",
"{. c #E1DD9D",
"}. c #E5D994",
"|. c #D7CCA4",
" X c #D9CEA3",
".X c #D5CCAB",
"XX c #D8CEAA",
"oX c #DCD5A3",
"OX c #DED6AD",
"+X c #DFD8AF",
"@X c #DFDAA1",
"#X c #D7CFB2",
"$X c #D8CFB1",
"%X c #D7D0B7",
"&X c #DBD4B4",
"*X c #DFD8B4",
"=X c #D6D1BD",
"-X c #DBD5BC",
";X c #E3DBA4",
":X c #E3D9A5",
">X c #E2D9B4",
",X c #E1DCBC",
"<X c #DAD6C4",
/* pixels */
"                                                      $ & : : : & $ & & & &                                                     ",
"                                              $ > 8 l F I N 7 , 9 l C F F F B j 7 :                                             ",
"                                          * p U 3.a.d.,.j 8 B ,.3.4.4.4.4.4.4.4.4.2.D 5 $                                       ",
"                                      $ j | 4.4.a.2.k 5 C 2.4.3.3.2.2.2.2.2.2.2.3.3.4.4.I ,                                     ",
"                                    > [ 4.4.3.4.] , k 2.4.3.2.2.2.2.2.2.2.2.2.2.2.2.2.3.4.4.V &                                 ",
"                                  9 3.4.3.2.4.D , G 4.3.2.2.2.2.2.2.2.2.+.2.2.2.2.2.2.2.2.3.a.[ :                               ",
"                              o l 4.4.2.2.4.B , >.4.2.2.2.2.2.+.2.2.5.5.r.5.r.2.2.2.2.2.2.2.2.4.1.,                             ",
"                              N 4.3.2.2.4.C , 1.4.2.2.2.2.2.+.r.r.B.0.9.n.8.N.q.A.5.2.+.2.2.2.2.4.3.,                           ",
"                            l 4.3.2.2.4.G , ,.4.2.2.2.2.+.5.A.N.^ T F F A F F T R N.e.5.+.2.2.2.2.4.2.>                         ",
"                          7 4.3.2.2.3.,., I 4.2.2.2.2.+.i.q.Q A G G G G G G G G F A W B.r.2.2.2.2.2.4.} *                       ",
"                        : 1.4.2.2.3.3.t B 6.2.o.+.2.2.u.0.T A G G G G G G G G G G G A F N.r.3.2.2.2.2.a.K #                     ",
"                      # P a.2.2.2.4.B 8 6.@.$.@.2.2.r.M.F S G G G G G G S S G G G G G G A M.r.+.2.2.2.3.4.9                     ",
"                      9 4.3.2.2.3.,., ,.#.&.o.2.+.5.G.A G G G G G G S c R R c S G G G G G A M.u.+.2.2.2.4.| *                   ",
"                    * | 4.2.2.2.4.j b s.&.-.2.+.5.G.F G G G G G G H G `.-X<X`.G H G G G G G G m.r.+.2.2.2.a.V                   ",
"                    l 4.2.2.2.3.[ , 2.%.&.2.2.2.J.<.A G G G G G S G =X[.2.2.].=XG S G G G G A W q.3.2.2.2.3.3.>                 ",
"                  * | 4.2.2.2.4.j m ;.%.o.2.2.r.0.n b I G G G G c _.].` +.+.` }.`.H G G G G G A n.u.+.2.2.2.4.V                 ",
"                  j 4.2.2.2.3.,.5 +.%.&.2.2.2.J.M < F I G G G H k.<X+.+.....+.+.<Xk.H G G G G G F B.5.2.2.2.3.3.:               ",
"                % [ 4.2.2.2.4.m k ;.&.=.2.+.S.8.= b I G G G G c |.Y.` +.Y.K.+.` Y.|.c G G G G G F 8.r.2.2.2.2.4.l               ",
"                , 4.3.2.2.2.3.t { %.&.@.2.3.u.u - I I G G G S W -X2.` ].$X$X].` 3.-XW S G G G G G G J.2.2.2.2.4.[ &             ",
"                N 4.2.2.2.3.] r =.%.-.3.+.t.c.+ k ] G G G G H I.].) K.=XZ c =XK.) }.I.H G G G G G A 8.u.+.2.2.3.4.,             ",
"              & [ 4.2.2.2.4.n b %.&.o.2.2.S.s @ F I G G G G A XXP.` >Xz.h J b.+X` K.|.c G G G G G S R e.2.2.2.2.4.l             ",
"              > 3.3.2.2.2.3.y ( *.&.@.3.3.q.; q I I G G G S R &X=.u.-Xi B L F =Xu.5.&XT S G G G G G F G.5.2.2.2.4.U %           ",
"              p 4.2.2.2.3.1.r o.%.$.2.2.p.! O a I G G G G H x.{._ R.^.4 I I H /.}.` *Xk.A G G G G G F 8.r.2.2.2.3.2.:           ",
"              V 4.2.2.2.3.I y ;.&.-.2.2.p.f O C I G G G G c I.Q.) ;Xg.0 I G A Q OX..OXk.A G G G G G A W u.+.2.2.3.4.7           ",
"            $ [ 4.2.2.2.4.B k %.&.o.2.3.A.e = G I G G G G c ).P...>Xd z I G S T &X5.&XW S G G G G G G G C.3.2.2.2.4.k           ",
"            : 1.3.2.2.2.3.k Z *.&.o.2.6.B.= < I I G G G G A  Xf.5.&X2 Z I G G A  X,X).A G G G G G G G G 0.3.2.2.2.4.D           ",
"            , 3.3.2.2.2.3.y { %.&.@.2.6.9.+ q ] I G G G S G oXd.S..X< A I G G A c.`.T S G G G G G G G F N.r.2.2.2.4.I &         ",
"            7 4.3.2.2.3.3.r  .%.&.+.2.p.! O i I G G G G S R '.-.L.(.3 I I G G G A c S G G G G G G G G F 8.r.2.2.2.3.| *         ",
"            8 4.2.2.2.3.1.t o.%.$.2.2.y.Y X a I G G G G S W '.$.T.!.3 I I G G G G G G G G G G G G G G A 9.u.+.2.2.3.3.:         ",
"            p 4.2.2.2.3.,.t ' %.$.2.2.p.Y X b I G G G G A Q {._ W.j.4 I I G G G G G G G G G G G G G G A / u.2.2.2.3.3.>         ",
"            k 4.2.2.2.3.>.y =.%.$.2.2.S.g . b I G G G G A Q {._ E.j.4 I G G G G G G G G G G G G G G G G ^ r.2.2.2.3.3.,         ",
"            l 4.2.2.2.3.[ y $.&.$.2.2.y.f X n I G G G G A k.{._ [.h.4 I G G G G G G G G G G G G G G G A / Z.+.2.2.3.3.,         ",
"            l 4.2.2.2.3.[ y $.&.$.2.2.S.g . b I G G G G A k.{._ [.h.4 I G G G G G G G G G G G G G G G G R r.2.2.2.3.3.,         ",
"            k 4.2.2.2.3.>.y =.%.$.2.2.y.g X b I G G G G A k.;X_ E.j.4 I G G G G G G G G G G G G G G G A ^ A.2.2.2.3.3.,         ",
"            j 4.2.2.2.3.,.t o.%.$.2.2.S.Y X a I G G I G A Q ;X_ W.j.4 I I G G G G G G G G G G G G G G A / u.2.2.2.3.3.>         ",
"            9 4.2.2.2.3.1.t o.%.&.+.2.p.E X s I G G G I S W @X$.T.!.4 I I G G G G G G G G G G G G G G F ^ r.2.2.2.3.3.:         ",
"            7 4.3.3.2.3.2.r  .%.&.@.2.y.W O w ] I G G G S R oX-.L.~.3 I I G G G G G G G G G G G G G G A n.u.+.2.2.3.| *         ",
"            , 3.3.2.2.2.3.y { %.&.@.2.t.n.= q I I G G G S T oX:.S..X1 F I G G G c c S G G G G G G G G F 8.5.2.2.2.4.[ &         ",
"            : 2.3.2.2.2.3.k Z %.&.o.2.3.q.; - I I G G G G A XXf.7.OX2 Z I G G H v. XT S G G G G G G G F N.5.2.2.2.4.F           ",
"            % [ 4.2.2.2.4.m k %.&.-.2.3.D.u + F I G G G G c ).P.X.>Xd z I G S T &X;X).c G G G G G G G T V.2.2.2.2.4.l           ",
"              F 4.2.2.2.3.G p ;.&.$.2.2.i.Y X b I G G G G c U.Q._ ;Xg.0 I G H x.:X2.&XR S G G G G G G T e.2.2.2.3.4.7           ",
"              j 4.2.2.2.3.,.r @.%.&.+.2.y.<.@ w ] I G G G H x.{._ E.!.4 I I H U.[.X.&XQ S G G G G G A 9.u.+.2.2.3.3.>           ",
"              , 4.3.2.2.2.3.t ] %.&.o.2.5.J.q = I I G G G S W &XO.S.&Xw Z I A $XD.5.-XR S G G G G G G 0.5.2.2.2.4.[ &           ",
"              * | 3.2.2.2.4.l b ;.&.-.3.2.u.Y O M I G G G G A $XS.' ,X~ z J Q -XX.J.XXc G G G G G G G C.3.2.2.2.4.N             ",
"                V 4.2.2.2.3.I t :.&.&.2.2.A.w.- q [ I G G G H /.[.) Y.|.x v _.R.) [.U.c G G G G G A n.r.+.2.2.3.4.5             ",
"                5 4.3.2.2.3.2.7 [ %.&.o.2.2.J.C = D I G G G A k.-X+...:X/./.OX..+.-XQ A G G G G G G 0.5.2.2.2.4.| &             ",
"                & } 4.2.2.2.4.l l :.&.$.2.2.r.w.i q I I G G G A $XJ.` 2.[.].3.` K.$XA G G G G G A ^ D.+.2.2.2.4.N               ",
"                  l 4.2.2.2.3.[ 5 2.-.&.@.2.5.B.I i b I G G G H v.*X..+.....+...*Xb.H G G G G G G N.2.2.2.2.3.3.>               ",
"                  : 3.3.2.2.2.4.y C s.&.$.2.+.u.n.L C G G G G S c $XY.` +.+.` R.XXc G G G G G F / u.2.2.2.2.4.P                 ",
"                    N 4.2.2.2.3.I 7 3.:.%.o.2.5.q.R L G G G G G H R <XY.X...Y.<XR K G G G G G F H.3.2.2.2.3.4.,                 ",
"                    : 3.4.2.2.2.4.y C 6.=.&.+.+.y.0.F G G G G G G H W %X>X+X%XW H G G G G G A G.5.+.2.2.2.4.P                   ",
"                      l 4.2.2.2.3.] , 2.3.o.$.2.+.A.n.A G G G G G G H G l.l.S H G G G G G A n.r.2.2.2.2.3.3.>                   ",
"                      $ [ 4.2.2.2.4.l j 4.2.@.=.2.2.u.n.A G G G G G G S c c S G G G G S F 8.A.3.2.2.2.3.a.l                     ",
"                        > 3.3.2.2.3.3.5 G 4.2.2.2.2.3.r.n.A S G G G G G G G G G G G A G 8.D.+.2.2.2.2.4.[ $                     ",
"                          k 4.3.2.2.4.] , ,.3.2.2.2.2.3.u.m.R A G G G G G G G G G A R 0.A.+.2.2.2.2.4.3.:                       ",
"                          o V a.3.2.2.4.B 5 3.3.2.2.2.2.+.r.q.n.T G A F A A F F R 9.C.5.+.2.2.2.2.4.4.7                         ",
"                            $ P a.3.2.2.4.l 8 3.3.2.2.2.2.+.3.r.C.0.n.^ / 8.8.N.q.A.+.2.2.2.2.2.4.4.j                           ",
"                              $ K a.3.2.3.4.k 8 2.4.2.2.2.2.2.2.2.3.u.r.u.r.r.5.2.+.2.2.2.2.2.4.4.j                             ",
"                                # N 4.4.2.3.4.l 5 ,.4.2.2.2.2.2.2.2.+.2.2.2.2.2.2.2.2.2.2.3.a.3.7                               ",
"                                    9 1.a.3.3.4.C , C 4.3.2.2.2.2.2.2.2.2.2.2.2.2.2.2.2.4.4.U :                                 ",
"                                      : V 3.4.4.a.>.8 8 ] 4.3.3.2.2.2.2.2.2.2.2.2.3.4.4.| j $                                   ",
"                                          > V | 4.d.a.F 8 p I 2.4.4.4.3.3.3.4.4.4.4.[ k *                                       ",
"                                              : 7 l F } [ m , 7 l D I [ [ [ I C j , &                                           ",
"                                                      & > , > * $ & & * : * $                                                   "
};
