/* XPM */
static char *_7c8899bd36a4d87f28ed8923aa4a99coU4LRfGQLP4XCI4k[] = {
/* columns rows colors chars-per-pixel */
"64 64 221 2 ",
"   c None",
".  c #7C6505",
"X  c #7F6806",
"o  c #7B660B",
"O  c #7B6611",
"+  c #955F07",
"@  c #836A03",
"#  c #836C0A",
"$  c #866C00",
"%  c #956405",
"&  c #9B6B06",
"*  c #9E6F08",
"=  c #976607",
"-  c #8C7203",
";  c #8C730B",
":  c #967A04",
">  c #9A770B",
",  c #897316",
"<  c #947C15",
"1  c #846F17",
"2  c #A27406",
"3  c #A27409",
"4  c #A6790A",
"5  c #AB7D0B",
"6  c #A97D07",
"7  c #8B7928",
"8  c #817236",
"9  c #9E820D",
"0  c #9A821B",
"q  c #AC8306",
"w  c #AD810C",
"e  c #A98908",
"r  c #B3850D",
"t  c #B4890E",
"y  c #BA8C0E",
"u  c #B18A06",
"i  c #B69104",
"p  c #BD9906",
"a  c #A58913",
"s  c #A78B13",
"d  c #B88D10",
"f  c #B29413",
"g  c #BB9B14",
"h  c #BA9513",
"j  c #AE9012",
"k  c #9E8926",
"l  c #A28A25",
"z  c #A28B2E",
"x  c #AA932E",
"c  c #B89C2C",
"v  c #B39C3A",
"b  c #A38F3A",
"n  c #BDA12C",
"m  c #BDA431",
"M  c #C19C07",
"N  c #C39B13",
"B  c #CB9C12",
"V  c #C39611",
"C  c #CCAA07",
"Z  c #D6B406",
"A  c #DEB60D",
"S  c #DDBD08",
"D  c #D7B507",
"F  c #C4A216",
"G  c #CDA415",
"H  c #CCA914",
"J  c #C8A618",
"K  c #D4AA16",
"L  c #DAAD16",
"P  c #D3AE18",
"I  c #D3A715",
"U  c #DEB614",
"Y  c #DFB815",
"T  c #D5B119",
"R  c #DDB619",
"E  c #DFB91B",
"W  c #D6B014",
"Q  c #E0B606",
"!  c #E0B70B",
"~  c #E5BB0B",
"^  c #E2B916",
"/  c #E0B418",
"(  c #E3BC1B",
")  c #E6BB17",
"_  c #C3A62B",
"`  c #DEB924",
"'  c #DEBB2B",
"]  c #CCAE32",
"[  c #C4AA3B",
"{  c #DEBD33",
"}  c #DCBC3B",
"|  c black",
" . c #CFB232",
".. c #E0BD2B",
"X. c #E0BE32",
"o. c #DEC109",
"O. c #E4C307",
"+. c #E9C90B",
"@. c #F2D307",
"#. c #FBDE05",
"$. c #F1D60A",
"%. c #F9D40D",
"&. c #F5DD0B",
"*. c #F9DE0B",
"=. c #E7C01C",
"-. c #EAC21D",
";. c #EDC81F",
":. c #F3CB1F",
">. c #F0C71D",
",. c #F7D416",
"<. c #F8D413",
"1. c #F7DD16",
"2. c #F8DC14",
"3. c #F6D41C",
"4. c #F9D51A",
"5. c #F7DB1A",
"6. c #FBDB1D",
"7. c #FBE402",
"8. c #FAE905",
"9. c #F9E60C",
"0. c #FBEA0B",
"q. c #FFF40C",
"w. c #F9E212",
"e. c #FFEC16",
"r. c #FDE319",
"t. c #F7E015",
"y. c #DFC335",
"u. c #F2CE21",
"i. c #F5D423",
"p. c #FAD522",
"a. c #FCDC25",
"s. c #F5D62C",
"d. c #FCDD2A",
"f. c #F6DA23",
"g. c #E3C234",
"h. c #E2C43D",
"j. c #E6C83D",
"k. c #E9CC3C",
"l. c #EED13C",
"z. c #EFD136",
"x. c #F3D533",
"c. c #F5D933",
"v. c #FADB34",
"b. c #F2D53C",
"n. c #FADC3B",
"m. c #F4D83B",
"M. c #EFCC20",
"N. c #FFE025",
"B. c #AE9D5B",
"V. c #BEAA5E",
"C. c #8C8772",
"Z. c #A09776",
"A. c #DBBD43",
"S. c #DBBE4B",
"D. c #DBBF52",
"F. c #C8B14E",
"G. c #D1BF7A",
"H. c #DAC056",
"J. c #DAC05A",
"K. c #E3C542",
"L. c #E6C944",
"P. c #EACD42",
"I. c #E3C64B",
"U. c #E5CA4B",
"Y. c #EACE4B",
"T. c #EED244",
"R. c #ECD14C",
"E. c #F2D643",
"W. c #F0D64A",
"Q. c #F4DA4B",
"!. c #F8DB46",
"~. c #E5CB50",
"^. c #E8CE51",
"/. c #EED552",
"(. c #EED75A",
"). c #F1D751",
"_. c #DAC263",
"`. c #D9C36D",
"'. c #D9C473",
"]. c #D9C67B",
"[. c #EDD863",
"{. c #ECD768",
"}. c #E9D97D",
"|. c #E9D77B",
" X c #F1DD74",
".X c #9E9C93",
"XX c #ADA791",
"oX c #C0B788",
"OX c #D4C381",
"+X c #D8C683",
"@X c #D8C888",
"#X c #D7CA9B",
"$X c #D8CA99",
"%X c #ECDB82",
"&X c #E6D78D",
"*X c #E6D88A",
"=X c #E8D885",
"-X c #E5D794",
";X c #E2D79C",
":X c #E6DA97",
">X c #C8C3AA",
",X c #D8CCA2",
"<X c #D7CCA7",
"1X c #DDD4AC",
"2X c #D5CEB4",
"3X c #DBD4B4",
"4X c #DFD9B5",
"5X c #D7D0BB",
"6X c #DAD4BB",
"7X c #DCD6B9",
"8X c #C4C1B3",
"9X c #E1D7A5",
"0X c #E2D8A4",
"qX c #E2DAAC",
"wX c #E1DAB9",
"eX c #DAD6C4",
"rX c #DCD8C6",
"tX c #D9D6CB",
"yX c #DCD8CB",
"uX c #DAD9D2",
"iX c #E1DCC6",
/* pixels */
"                                                    & 4 5 w t t t r r 5 3 &                                                     ",
"                                            & 5 h K =.;.u.i.i.i.i.i.i.u.;.( I d 4 &                                             ",
"                                      % 4 G >.a.a.a.a.f.f.s.s.s.s.s.s.f.f.a.a.a.p.-.B 4                                         ",
"                                  + w ) p.a.a.f.i.i.i.i.i.i.i.i.i.i.i.i.i.i.i.i.f.a.a.p.R 5                                     ",
"                                5 +.r.N.f.s.i.i.i.i.i.i.i.i.i.i.i.i.i.i.i.i.i.i.i.i.i.f.a.a./ 4                                 ",
"                            * A 0.e.f.i.i.i.i.i.i.i.3.i.3.i.i.i.i.i.i.i.3.i.i.i.i.i.i.i.i.f.a.p.B %                             ",
"                          u 7.q.r.i.i.i.i.i.i.3.i.i.x.x.T.l.T.T.k.R.l.b.x.s.s.3.i.i.i.i.i.i.i.f.N.=.3                           ",
"                        Z q.q.5.i.i.i.i.i.i.i.m.l.Y.K.g.X.` ` ` ` ` ' ..h.h.Y.l.c.i.i.i.i.i.i.i.s.N.p.r                         ",
"                    * +.q.0.1.i.i.i.i.i.s.b.P.K.` ` U R U E E E E E E U U R E { g./.s.s.3.i.i.i.i.i.a.a.V                       ",
"                  2 @.q.0.1.i.i.i.3.s.x.^...` U E E E E E E E E E E E E E E E U R ` h.P.b.i.3.i.i.i.i.f.a.B                     ",
"                * @.q.0.w.i.i.i.3.c.P.K.R R E E E E E E E E E E E E E E E E E E E E U E K.l.x.4.i.i.i.i.f.a.B                   ",
"                O.q.0.9.i.i.i.s.x.U.` U E E E E E E E E E Y ! ! A A ! A Y E E E E E E E U { k.b.4.i.i.i.i.f.a.y                 ",
"              C q.0.0.5.i.i.s.m.U.W Y E E E E E E E Y ! U ' H.'.].].`.D.` A ! E E E E E E U ` j.b.i.i.i.i.i.a.p.4               ",
"            i q.0.0.w.i.i.i.E.A.u H ( E E E E E E ! Y _.<X7X0X*X}.}.&X9X7X,XD.U ! E E E E E Y R K.x.s.i.i.i.i.a.>.&             ",
"          2 7.q.9.0.5.i.3.Q.] - F ( E E E E E Y ! H.5XqX(.s.4.<.<.<.<.4.s.[.4X2XA.Q Y E E E E E U I.m.3.i.i.i.i.N.K             ",
"          Z q.0.0.w.i.3.!._ . h -.( E E E E ! U $XeXQ.#.<.3.i.i.i.i.i.i.3.<.<.[.tX].A Y E E E E E U K.E.4.i.i.i.f.a.5           ",
"        q 0.0.9.0.5.i.n. .o 9 -.( E E E E ! E 2X;X2.7.5.i.3.,.,.4.4.<.,.i.i.i.<.s.wX$XA Y E E E E E E j.m.3.i.i.i.a.=.=         ",
"        O.q.9.0.w.i.d.K., @ T ( E E E E Y U 2X*X7.8.5.i.,.3.(.-X1X9X&X/.,.,.s.s.4.<.9X$XA Y E E E E U ' k.s.i.i.i.s.a.y         ",
"      q 0.0.9.0.5.3.Q.l . f -.E E E E E A ,X-X7.8.5.i.<.W.wX<X_.A.S.'.2XqXx.<.i.i.4.<.qX+XQ E E E E E U h.b.3.i.i.i.a.;.%       ",
"      Z q.0.0.9.3.n.] . ; R ( E E E E Q `.4X*.8.w.i.<.[.yXF.D ! U U ! A `.tXW.<.i.i.4.i.rXS.! E E E E E U U.x.3.i.i.s.a.w       ",
"    2 9.0.9.0.w.p.b.0 . j -.( E E E Y ' tXc.8.0.i.<./.yXc i ( ( E E E Y Q S.tXm.<.s.i.<.).5XE Y E E E E E ' l.i.i.i.i.a./       ",
"    p q.0.9.0.2.v.F.@ # P ( E E E E ! $X}.7.8.t.3.s.iX[ : E ( E E E E E E Q J.uXE.4.i.i.<.;X'.! E E E E E R U.s.i.i.i.f.p.3     ",
"    S q.9.9.0.6.E.a . > ( ( E E E U { eX5.8.0.3.<.:XOX$ F =.E E E E E E E E Q +X9X<.i.s.,./.,XA E E E E E U ..W.3.i.i.i.a.y     ",
"  3 7.0.9.0.9.f.h.; # f =.E E E E ! @X=X7.0.w.3.b.iXa : ( ( E E E E E E E E Y E 7Xs.4.i.%.[.#XA E E E E E E ` k.i.i.i.i.a.R     ",
"  u q.0.9.0.9.n.[ @ # J =.E E E Y E 5Xc.8.0.5.<.&XG.$ g =.E E E E E E E E E E A #X}.%.<.W.rXS.! E E E E E E U I.x.i.i.i.f.:.*   ",
"  M q.0.9.0.t.E.s X ; R ( E E E A S.1X*.8.0.4.s.wXc $ R ( E E E E E E E E E E Y ' 6X:X9X5XH.! E E E E E E E R ..m.3.i.i.f.a.5   ",
"  C q.0.9.0.6.Y.< # > ( ( E E E A +X}.7.0.9.,.).1X: 9 ( ( E E E E E E E E E E E ! ` `.H.U ! E E E E E E E E Y ' l.i.i.i.s.a.d   ",
"  o.q.9.9.0.d.K.; # a ( ( E E E U ,X(.7.0.w.<.}.OX$ f =.E E E E E E E E E E E E E Y A A Y E E E E E E E E E E R Y.s.i.i.i.a.V   ",
"  +.q.9.0.0.d.v # # f ( ( E E Y E 3Xc.7.0.2.3.:XF.@ F ( E ||||E E E E E E|||||||E E E E E E E E E E E E E E E R j.s.i.i.i.a.G   ",
"2 $.0.9.0.9.n.[ @ # g ( E E E Y ` 3Xf.8.0.1.3.qXv @ P ( E ||||E E E E E ||| E E|||E E E E E E E E E E E E E E R L.x.i.i.i.a.L   ",
"4 &.0.9.0.9.v._ # # N ( E E E Y { 3X5.8.0.1.i.qXx $ T ( E ||||E E E E E|||E E E|||E E E E E E E E E E E E E E R g.x.i.i.i.a.R   ",
"6 &.0.9.0.9.n.m @ # F ( E E E U } 1X2.8.0.1.s.qXl - R ( E ||||E E E E E E E E ||| E E E E E E E E E E E E E E R h.x.i.i.i.a.( % ",
"6 &.0.9.0.9.n.m @ # F ( E E E U } 1X6.8.0.1.s.qXl - R ( E ||||E E E E E E E E|||E E E E E E E E E E E E E E E U h.x.3.i.i.a.( = ",
"4 &.0.9.0.9.v.n @ # F ( E E E Y { 3X5.8.0.1.i.qXz - R ( E ||||E E E E E E E ||| E E E E E E E E E E E E E E E R g.s.i.i.i.a.R   ",
"3 $.0.9.0.9.n.[ @ # g ( E E E Y ` 3Xf.8.0.2.4.qXb $ T ( E ||||E E E E E E E|||E E E E E E E E E E E E E E E E R L.x.i.i.i.a.L   ",
"  +.q.9.0.0.d.] # # h ( E E E ^ E 1Xm.7.0.w.4.:XB.@ T ( E ||||E ||||E E E ||||E E E E E E E E E E E E E E E E R j.s.i.i.i.a.G   ",
"  S q.9.9.0.d.A.# # j ( ( E E E A #X(.7.0.w.<. XXX@ H ( ( ||||||||||||E ||||E E E E E E E E E E E E E E E E E E Y.s.i.i.i.a.V   ",
"  C q.0.9.0.r.L.< # a ( ( E E E A ].=X7.0.9.,.Q.>X@ g ( E E E E ||||E E ||||! U A ! E E E E E E E E E Y E E E ' T.i.i.i.s.a.t   ",
"  p q.0.9.0.t.b.0 X < ( ( E E E U A.3X2.8.0.5.p.4X7 e ( ( E E E E E E E E E E E A `.2X,XA.! E E E E E E E E R ..x.i.i.i.f.p.4   ",
"  u 0.0.9.0.9.n.v X ; T ( E E E Y R 3XE.7.0.w.<.%XZ.- ( ( E E E E E E E E E E ! ].4XE.[.tX`.! E E E E E E E U L.x.i.i.i.f.:.&   ",
"    *.0.9.0.9.a.v # # F ( E E E E ! ].&X#.0.9.4.v.8XO H ( E E E E E E E E E U ` eXs.%.%.c.eX' Y E E E E E E ` P.i.i.i.i.a.L     ",
"    D q.0.9.0.6.T.< X s ( ( E E E Y ' eXs.7.0.5.<.%XC.e =.( E E E E E E E E Q $X*X%.i.i.%.-X+XA E E E E E R ..b.i.i.i.s.a.r     ",
"    i q.0.9.0.2.d.v . ; E ( E E E E ! @X-X#.8.9.3.a.>X8 D ( E E E E E E E Q _.rXs.3.i.i.%.qX].A E E E E E R ~.s.i.i.i.f.i.*     ",
"    * *.0.9.0.w.a.y.1 @ F ( ( E E E Y ` eXW.7.0.5.4.!..Xz ~ ^ E E E E Y Q S.tXm.,.s.i.%.{.5XY Y E E E E U { x.i.i.i.i.a.L       ",
"      C q.0.9.9.5.n.x . a ( ( E E E E ! J.eX3.7.0.3.<.E..XV.( ! A A ! U '.tXW.<.i.s.,.x.tX{ ! E E E E E R L.x.i.i.i.a.a.5       ",
"      q 0.0.9.0.5.a.j.1 @ P ( E E E E E Q @XqX<.7.9.i.4.s.oX2X+XJ.J.].5X9Xx.<.i.s.,.3.6X`.Q E E E E E U h.E.3.i.i.i.a.) %       ",
"        D q.0.0.9.i.d.m O e -.( E E E E Y A ,X0X<.7.w.i.3.4.T.=X;X;X=XW.,.4.s.i.,.i.4X+XQ E E E E E U { T.i.i.i.i.p.a.w         ",
"        q 0.0.9.0.5.p.n.k o J =.E E E E E Y A #X4Xs.#.w.i.i.4.<.4.4.<.4.i.i.3.%.b.rX+XQ Y E E E E Y ` k.x.3.i.i.i.a.) %         ",
"          C q.0.0.w.i.6.l.7 ; ( ( E E E E E Y A ].tX{.4.%.4.i.3.i.i.i.3.4.<.i.}.tX_.Q Y E E E E E R K.b.4.i.i.i.f.p.4           ",
"            @.q.9.0.5.i.6.k.7 e ( ( E E E E E Y Q } <X7Xv.m.3.4.,.,.4.i.E.=X6X#X' ! E E E E E E U I.m.3.i.i.i.s.N.B             ",
"            u 0.0.0.9.s.i.a.z.b u ( ( E E E E E E ! A A.$X3X3X;X-X-X;X4X3X@X} A U E E E E E E U ~.x.i.i.i.i.i.N.) %             ",
"              p q.0.0.1.i.i.f.c.F.J ^ E E E E E E E E ! A E } H._._.H.{ E A U E E E E E E U ` ~.s.i.i.i.i.i.a.:.3               ",
"                Z q.0.0.5.i.i.p.v.L.{ U E E E E E E E E E Y U A ! ! A Y Y E E E E E E E U { Y.s.i.i.i.i.i.a.p.5                 ",
"                  O.q.0.9.i.i.i.3.c.l.I.E R U E E E E E E E E E E E E E E E E E E U R ` U.b.s.3.i.i.i.i.a.a.y                   ",
"                    O.q.0.w.i.i.i.3.s.s.R.g.' U R E E E E E E E E E E E E E Y U U ' g.R.s.i.3.i.i.i.i.a.a.y                     ",
"                      D q.q.1.i.i.i.i.3.s.x.R.j.X.` R R U E U E E U E U R R ` X.L.T.x.i.i.i.i.i.i.i.a.p.r                       ",
"                        M 0.q.t.i.i.i.i.i.i.3.c.x.R.j.h.h...{ ' ' { ..h.h.k.R.x.x.3.i.i.i.i.i.i.f.N.:.4                         ",
"                          q $.q.e.i.i.i.i.i.i.3.i.i.s.s.b.x.T.l.l.T.x.b.s.s.i.i.i.i.i.i.i.i.i.a.a.R *                           ",
"                            = C 9.e.a.s.i.i.i.i.i.i.i.i.3.i.i.i.i.3.i.3.i.i.i.i.i.i.i.i.i.f.N.:.y %                             ",
"                                3 A r.N.f.s.i.i.i.i.i.i.i.i.i.i.i.i.i.i.i.i.i.i.i.i.s.f.N.p.G *                                 ",
"                                    4 K u.a.a.f.s.i.i.i.i.i.i.i.i.i.i.i.i.i.i.s.f.a.a.:.G 3                                     ",
"                                        3 y ) p.a.a.a.a.f.f.f.p.p.f.f.f.a.a.a.a.i./ t *                                         ",
"                                              3 t N T -.;.u.u.i.i.u.M.;.( P V r 3                                               ",
"                                                      & 3 5 5 w w 5 5 3 &                                                       "
};
