/* XPM */
static char *_db27ca7b30d467fe6d6df6b8dbe07c4N1aTTI3vkYU6PJvu[] = {
/* columns rows colors chars-per-pixel */
"64 64 215 2 ",
"   c None",
".  c #7D6708",
"X  c #836B07",
"o  c #826A09",
"O  c #946405",
"+  c #9A6B07",
"@  c #9E6D09",
"#  c #8C730B",
"$  c #90770C",
"%  c #9F7009",
"&  c #967B0D",
"*  c #9C7F05",
"=  c #947B13",
"-  c #967E18",
";  c #8F781C",
":  c #A06F07",
">  c #A2730A",
",  c #A7790A",
"<  c #AA7D0C",
"1  c #A17107",
"2  c #917D28",
"3  c #917E31",
"4  c #9D820E",
"5  c #9E8003",
"6  c #9A8118",
"7  c #A3860C",
"8  c #AE810D",
"9  c #A98A06",
"0  c #B2850D",
"q  c #B58A0E",
"w  c #BA8C0E",
"e  c #B08F05",
"r  c #AF900D",
"t  c #B49306",
"y  c #B99607",
"u  c #BB9806",
"i  c #B78C10",
"p  c #B98E10",
"a  c #B69612",
"s  c #BC9211",
"d  c #BA9A12",
"f  c #A4891B",
"g  c #9C8521",
"h  c #988534",
"j  c #A78D20",
"k  c #B59B2A",
"l  c #B49C30",
"z  c #AC9429",
"x  c #C29511",
"c  c #C59B14",
"v  c #CA9B12",
"b  c #C49F06",
"n  c #CBA30E",
"m  c #D3AB0B",
"M  c #DFB60D",
"N  c #DBB102",
"B  c #CCA315",
"V  c #CFAA17",
"C  c #C7A517",
"Z  c #D1A314",
"A  c #D4AA15",
"S  c #DAAE16",
"D  c #D4AE19",
"F  c #DEB615",
"G  c #DFB815",
"H  c #D6B119",
"J  c #DDB61A",
"K  c #DFB91B",
"L  c #D6B010",
"P  c #E0B606",
"I  c #E0B70C",
"U  c #E1BB0E",
"Y  c #E0B514",
"T  c #E2BB14",
"R  c #E3B618",
"E  c #E3BC1B",
"W  c #E9BE1B",
"Q  c #CAAE2E",
"!  c #DEB924",
"~  c #DEBB2B",
"^  c #D5B52E",
"/  c #C7AD35",
"(  c #DEBC33",
")  c #DCBD3D",
"_  c #CEB439",
"`  c #E0BD2D",
"'  c #E0BF36",
"]  c #F9D40D",
"[  c #F9DD0D",
"{  c #F8D506",
"}  c #E5C21E",
"|  c #EBC31D",
" . c #E5C010",
".. c #F4CC1F",
"X. c #F1C61E",
"o. c #F7D416",
"O. c #F8D414",
"+. c #F7DC16",
"@. c #F9DB12",
"#. c #F6D41D",
"$. c #F9D51B",
"%. c #F6DB1B",
"&. c #FDDE19",
"*. c #FBE304",
"=. c #FAE60D",
"-. c #FCEC0B",
";. c #FFF20C",
":. c #F7E015",
">. c #F9E312",
",. c #FFED14",
"<. c #F9E31D",
"1. c #FFF210",
"2. c #EDCB21",
"3. c #EAC720",
"4. c #F1CE21",
"5. c #F5D423",
"6. c #F9D623",
"7. c #FCDB25",
"8. c #F5D62B",
"9. c #FCDB2A",
"0. c #F8D729",
"q. c #E2C234",
"w. c #ECCD37",
"e. c #E3C43C",
"r. c #E7C83C",
"t. c #EBCE3E",
"y. c #EFD23D",
"u. c #F4D633",
"i. c #FBDC34",
"p. c #F2D53B",
"a. c #F9DB3C",
"s. c #F6DB36",
"d. c #F7E524",
"f. c #FFE126",
"g. c #FFEA29",
"h. c #F9E62C",
"j. c #F3E43C",
"k. c #998C5B",
"l. c #988A54",
"z. c #998947",
"x. c #9D9369",
"c. c #A49A73",
"v. c #B1A36D",
"b. c #D9BD46",
"n. c #DBBF50",
"m. c #DBC24B",
"M. c #DDC242",
"N. c #DAC05A",
"B. c #DBC155",
"V. c #E3C543",
"C. c #E6C944",
"Z. c #EACE43",
"A. c #E6CA4A",
"S. c #E9CD49",
"D. c #EED244",
"F. c #ECD14A",
"G. c #F1D543",
"H. c #F0D74C",
"J. c #F5DA4A",
"K. c #F6DA43",
"L. c #E8CE53",
"P. c #EDD452",
"I. c #EFD85B",
"U. c #F7DD51",
"Y. c #F2D751",
"T. c #F2E347",
"R. c #EEE15A",
"E. c #DAC266",
"W. c #D9C474",
"Q. c #D9C67A",
"!. c #D2C17E",
"~. c #ECD768",
"^. c #ECD865",
"/. c #F3DD67",
"(. c #EADA7C",
"). c #EAD875",
"_. c #EDE161",
"`. c #B7AF8E",
"'. c #AFAB9F",
"]. c #B3AE9B",
"[. c #B0A98D",
"{. c #BAB7AE",
"}. c #C4BEA4",
"|. c #D8C783",
" X c #D8C78D",
".X c #D8C88D",
"XX c #D6CA9C",
"oX c #D9CB98",
"OX c #EBDB84",
"+X c #E6D88B",
"@X c #EADC8C",
"#X c #E7DE85",
"$X c #E6D993",
"%X c #E3D99D",
"&X c #E8DB94",
"*X c #D8CCA2",
"=X c #D6CCA9",
"-X c #D8CFAA",
";X c #D7CBA5",
":X c #DBD2AC",
">X c #DFD8AF",
",X c #D6CFB4",
"<X c #D6CFB9",
"1X c #DAD3B4",
"2X c #D7D1BB",
"3X c #D9D3BC",
"4X c #DDD8BD",
"5X c #DFD8B5",
"6X c #C8C2A7",
"7X c #E2D9A4",
"8X c #E1D9AB",
"9X c #E0D7A8",
"0X c #E0D9B1",
"qX c #D9D5C4",
"wX c #D9D5C6",
/* pixels */
"                                                      + @ 1 % + + + + % >                                                       ",
"                                            O , i B J W | | | | E A x 0 0 x B x 0 @                                             ",
"                                        1 c | 6.7.7.7.7.7.7.7.7.7.7.7.5.E c p Z 5.5.A ,                                         ",
"                                    1 A 5.7.7.7.5.5.5.5.5.5.5.5.5.5.5.6.7.7.4.B 0 B 7.f.R <                                     ",
"                                O v 6.f.7.5.5.5.5.5.5.5.5.5.5.5.5.5.5.5.5.5.7.7.5.c 8 E g.7.S %                                 ",
"                              , | f.7.5.5.5.5.5.5.5.#.5.5.5.5.#.5.5.5.5.5.5.5.5.7.7.W 8 c f.f...q                               ",
"                            w 6.7.5.5.5.5.5.5.#.5.5.p.u.D.y.p.G.8.u.5.5.#.5.5.5.5.5.7.5.s i 6.f.7.Z O                           ",
"                          v 7.7.5.5.5.5.5.5.5.G.Z.r.e.` ~ ~ ~ ' q.V.Z.p.u.#.5.5.5.5.5.7.7.c 0 5.7.f.Y O                         ",
"                        v 7.7.5.5.5.5.5.5.G.C.' K J G K G K K G J G ! ~ C.D.8.#.5.5.5.5.5.7.B 0 5.7.f.R O                       ",
"                      x 7.7.5.5.5.#.5.u.L.! K G K K K K K K K K K K K J G ( r.G.#.5.5.5.5.5.7.c p 7.7.f.F O                     ",
"                    8 7.,.%.5.5.5.5.y.V.G K K K K K K K K K K K K K K K K G K ` P.5.#.5.5.5.5.7.s c 7.7.f.Z                     ",
"                  1 #.,.+.5.5.5.5.F.( G K K K K K K K G I M M M I G K K K K K G ~ S.8.#.5.5.5.7.5.8 K 7.7.7.q                   ",
"                O W 1.>.5.5.5.5.P.! G K K K K K K G I ! N.|. XQ.n.K I K K K K K G ~ Z.u.#.5.5.5.7.} < 5.7.7...%                 ",
"                x ,.-.5.5.5.5.P.! J K K K K K K Y M W.qX7X).~.(.8X2XN.I G K K K K F ~ t.8.5.5.5.5.7.B x 7.5.f.F                 ",
"              @ @.;.+.5.5.5.K.^ J E K K K K K I K =X8Xp.O.O.o.O.O.H.4X.XM G K K K K F ( F.#.5.5.5.6.5.8 } 7.7.7.8               ",
"              A ;.=.5.5.5.i./ a E E K K K K F G ,X+XO.o.5.#.#.#.5.O.#.9XXXM G K K K K F q.G.#.5.5.5.7.H p 7.5.7.| O             ",
"            1 >.;.+.5.5.7.m.= G E K K K K K M XX$X] #.5.O.5.u.5.o.5.#.O.0XQ.P K K K K K J r.u.#.5.5.5.7.0 } 7.5.7.0             ",
"            n ;.=.5.5.$.J.- d } K K K K K I E.5XO.#.#.$.(.1X:X5X~.O.5.#.8.wX) I K K K K G ( y.5.5.5.5.7.D s 7.5.7.W O           ",
"          @ [ ;.>.5.5.9./ # E E K K K K G K qXp.o.#.$.8XXX~ K ) ,X+XO.5.O.^.,XM K K K K K G A.8.#.5.5.6.5.0 2.7.7.7.<           ",
"          q ;.-.%.5.#.p.2 r | K K K K K I Q.$X[ 5.O.&X`.N U G I F ,X).] 5.O.>XN.I K K K K K ! F.5.5.5.5.7.c V 7.5.7.Z           ",
"          U ;.=.5.5.9.b.o V W K K K K G K 2Xs.@.#.J.{.y T K K K I ~ wXp.#.o.P.-XG G K K K K J r.8.5.5.5.7.E p 7.5.7...+         ",
"        @ [ ;.>.5.5.i.z # E E K K K K I N.7X*.#.$.9Xz.N E K K K K P W.4X#.#.8.wX( F K K K K G ' p.#.5.5.5.5.0 2.7.6.7.<         ",
"        8 -.-.+.5.$.G.; 7 W K K K K K M XXR.*.#.K.{.7 W E K K K K G G 1Xp.o.8.:X! G K K K K K K Z.5.5.5.5.7.x J 7.5.7.v         ",
"        n ;.-.%.5.0.M.o d W K K K K G ! 2X<.+.o.OXx.u W K K K K K K M XXI.{ G.1XK G K K K K K K r.8.5.5.5.7.D c 7.5.7.E         ",
"        U ;.-.#.5.9./ . C W K K K K M b.9X*.#.$.:X3 m W K K K K K K I N.0XI.qXE.I K K K K K K G e.p.#.5.5.7.} p 7.5.7...@       ",
"      @ ] ;.=.5.5.a.l X H W K K K K M E.#X*.#.i.6X= G E K K K K K K K F Q.,Xb.I K K K K K K K K ! p.5.5.5.6.2.q 5.5.7.7.,       ",
"      1 =.-.=.5.5.a.f # K E K K K K M  X_.*.#.U.].* W E K K K K K K K K M F M K K K K K K K K K ! F.5.5.5.5.5.p | 7.5.7.0       ",
"      , -.-.>.5.6.G.6 $ E E K K K K M *XT.[ #./.[.9 W ||||E E E E E E|||||||E K K K K K K K K K K Z.5.5.5.5.7.s E 7.5.7.p       ",
"      0 -.-.>.5.5.F.= & E E K K K K G -Xh.[ o.(.x.e W ||||E E E E E ||| E E|||K K K K K K K K K J r.5.5.5.5.7.s J 7.5.7.c       ",
"      q -.-.>.5.7.w.# 4 E E K K K G K :Xd.@.$.OXk.t W ||||E E E E E|||E E E|||K K K K K K K K K J A.8.5.5.5.7.c H 7.5.7.B       ",
"      q -.-.>.5.0.A.# 4 W E K K K G ! :Xd.@.$.@Xl.y W ||||E E E E E E E E ||| K K K K K K K K K J e.8.5.5.5.7.c D 7.5.7.B       ",
"      w -.-.>.5.7.r.# 4 W E K K K G ! :Xd.@.$.@Xl.y W ||||E E E E E E E E|||E K K K K K K K K K J r.8.5.5.5.7.c D 7.5.7.B       ",
"      q -.-.>.5.7.t.$ 4 E E K K K G K :Xd.@.$.@Xk.t W ||||E E E E E E E ||| E K K K K K K K K K J C.8.5.5.5.7.c H 7.5.7.B       ",
"      0 -.-.>.5.6.F.= & E E K K K G G -Xh.[ o.(.x.t W ||||E E E E E E E|||E E K K K K K K K K K J r.5.5.5.5.7.x J 7.5.7.c       ",
"      < -.-.>.5.6.p.6 # E E K K K K F *Xj.[ o./.c.9 W ||||E ||||E E E ||||E E K K K K K K K K K K S.8.5.5.5.7.s E 7.5.7.s       ",
"      1 >.-.=.5.5.J.j # J E K K K K M .XR.*.#.U.].5 W ||||||||||||E ||||E E E K K K K K K K K K ! t.5.5.5.5.5.p } 7.5.7.q       ",
"      @ O.;.=.5.5.s.l o D W K K K K M W.(.*.#.s.}.& E E E E ||||E E ||||||||||K K K K K K K K K ! D.5.5.5.6.4.q 4.6.7.7.<       ",
"         .;.-.#.5.i.Q . C W K K K K I n.%X*.#.$.:X2 L E K K K K K K G G .X2XB.I K K K K K K K G q.p.#.5.5.7.} q 6.5.7.4.:       ",
"        n ;.-.%.5.0.m.o a W K K K K G ! 1X>.+.O.@Xk.b W K K K K K K I Q.7XG.qXB.I K K K K K K J e.8.5.5.5.7.H x 7.5.7.W         ",
"        0 -.-.:.5.6.p.- 4 W E K K K K F ;XT.[ #.U.].9 W K K K K K G J 2Xp.{ H.1XG K K K K K K J S.5.5.5.5.7.c D 7.5.7.B         ",
"        1 @.;.=.5.5.a.k # K E K K K K I E.$X*.#.$.1Xh M E K K K K P W.9XO.#.5.wX( F K K K K G ( y.#.5.5.5.5.q | 7.5.7.8         ",
"          T ;.-.5.5.7.m.o C W K K K K G ! 2Xd.+.o./.'.u W K K K I ! wXp.#.o.H.2XG G K K K K J q.8.5.5.5.7.} q 5.5.7...@         ",
"          w ;.-.+.5.6.p.g 7 | E K K K K I .X(.[ 5.O.9Xv.N T G I M =X(.O.5.O.>XN.I K K K K K K F.5.5.5.5.7.B B 7.5.7.S           ",
"          @ @.;.>.5.5.i._ X J E K K K K F ~ wX8.#.#.0.4X!.K M ~ =X%XO.5.o.H.2XF G K K K K G V.8.#.5.5.5.5.0 3.7.5.7.8           ",
"            S ;.-.#.5.$.J.g r | K K K K K I |.%X] 5.#.5.%X1X-X1X).o.#.#.#.4XN.I K K K K G ! t.8.5.5.5.7.K p 7.5.7.| +           ",
"            > ,.-.:.5.5.0.V.= D E K K K K G F <X~.] 5.#.o.u.G.8.O.5.#.] $XXXI K K K K K G r.p.#.5.5.5.7.i J 7.5.7.x             ",
"              F ;.-.5.5.#.K.^ a E E K K K K I ~ wX^.] #.5.#.#.#.5.#.] OX<XG F K K K K F ( D.#.5.5.5.7.E 0 7.5.7...@             ",
"              > &.;.:.5.5.#.Y.! F E K K K K K I ( wXOX#.O.o.#.o.O.8.%X,XK I K K K K G ~ Z.5.5.5.5.5.7.q J 7.5.7.w               ",
"                Z ,.-.#.5.5.5.P.! G K K K K K K I ! XX4X(.H.G.P.+XqX|.F I K K K K G ! r.u.#.5.5.5.7.D p 7.5.7.W O               ",
"                + X.,.=.5.5.5.8.S.! F K K K K K K F M ) |.*X-X*XQ.( I G K K K K G ! r.p.#.5.5.5.7.4.< 3.7.7.6.,                 ",
"                  , 7.,.>.5.5.#.u.Z.~ F K K K K K K K Y M F G M M F K K K K K G K A.p.#.5.5.5.5.7.q V 7.7.f.v                   ",
"                    x 7.<.%.5.5.#.u.t.) G K K K K K K K K K K K K K K K K G J ! L.8.#.5.5.5.5.7.B p 7.5.f.R O                   ",
"                      S 9.6.5.5.5.#.8.p.V.! G G K K K K K K K K K K K K F ! q.P.5.5.5.5.5.5.f.H 8 5.7.f.| +                     ",
"                      O Y f.7.5.5.5.5.#.p.t.V.! J G G K K K K K K G J ! e.Z.p.#.5.5.5.5.5.f.J < 2.7.f.X.@                       ",
"                        O F f.7.5.5.5.5.#.5.8.F.r.e.` ! ! K K ~ ~ q.C.t.p.5.5.5.5.5.5.5.f.J < | f.f.| @                         ",
"                          O Z 7.7.5.5.5.5.5.5.5.8.u.G.w.F.t.Z.F.u.p.5.5.#.5.5.5.5.5.7.7.B < 2.f.f.W @                           ",
"                              w 5.f.7.5.5.5.5.5.5.5.5.5.5.5.5.5.5.#.5.5.5.5.5.5.5.7.5.s q 5.g.7.Z O                             ",
"                                1 R 7.7.5.5.5.5.5.5.5.5.5.5.5.5.5.5.5.5.5.5.5.7.7.H < B f.f.| <                                 ",
"                                    8 W 7.7.7.5.5.5.5.5.5.5.5.5.5.5.5.5.7.7.7.K i s 4.g...x +                                   ",
"                                      O 8 J 5.7.7.7.7.7.7.7.7.7.7.7.7.7.4.H s s } 7.| w +                                       ",
"                                            1 q A | ..5.6.7.7.6.4.| S x w x S J x , O                                           ",
"                                                  O % , < < < < > @ + @ , 8 1                                                   ",
"                                                                                                                                ",
"                                                                                                                                "
};
