/* XPM */
static char *_00bdac9b84c4c55bd77aa2141fd5c28Np1yh552ysNvGVvG[] = {
/* columns rows colors chars-per-pixel */
"64 64 219 2 ",
"   c none",
".  c #996600",
"X  c #A67B1D",
"o  c #A77C21",
"O  c #A67B1E",
"+  c #9B6C06",
"@  c #9A6705",
"#  c #9B6C05",
"$  c #9E6E06",
"%  c #B48E37",
"&  c #A37609",
"*  c #C4A560",
"=  c #A6790A",
"-  c white",
";  c #C8AB6C",
":  c #A6780B",
">  c white",
",  c #C9AD6F",
"<  c white",
"1  c None",
"2  c #CAAE71",
"3  c #C9AE71",
"4  c #C9AE74",
"5  c #CAB077",
"6  c #CAB079",
"7  c white",
"8  c #CAB076",
"9  c #C8AB6D",
"0  c #C0A158",
"q  c #B89341",
"w  c #AF8729",
"e  c white",
"r  c #AA7F19",
"t  c #A6790F",
"y  c #A47509",
"u  c #A5770A",
"i  c #A57609",
"p  c #A47509",
"a  c #A47609",
"s  c #A47709",
"d  c #A4760A",
"f  c #A4760A",
"g  c #A47609",
"h  c #A47609",
"j  c #A47609",
"k  c #A37609",
"l  c #A37609",
"z  c #A37609",
"x  c #A47609",
"c  c #A3760B",
"v  c #A37509",
"b  c #A37509",
"n  c #A47609",
"m  c #A27509",
"M  c #A37509",
"N  c #A47509",
"B  c #A37509",
"V  c #A4750A",
"C  c #A3750A",
"Z  c #A2770D",
"A  c #A3740A",
"S  c #9B7316",
"D  c #94711D",
"F  c #A47408",
"G  c #8D6E24",
"H  c #A37408",
"J  c #886B28",
"K  c #A27408",
"L  c #84692A",
"P  c #A37408",
"I  c #A37408",
"U  c #866A29",
"Y  c #A37408",
"T  c #A27408",
"R  c #896C27",
"E  c #A27309",
"W  c #A27409",
"Q  c #A27309",
"!  c #896C28",
"~  c #A17309",
"^  c #896D26",
"/  c #A27209",
"(  c #8E6E23",
")  c #96701B",
"_  c #A07209",
"`  c #A0750E",
"'  c #986703",
"]  c #A47202",
"[  c #976504",
"{  c #996B0A",
"}  c #966C10",
"|  c #986D11",
" . c #9A6D0E",
".. c #A06E02",
"X. c #CEAA4A",
"o. c #ECD270",
"O. c #E9D172",
"+. c #E5CA60",
"@. c #DAB416",
"#. c #C99B10",
"$. c #FAE37A",
"%. c #EEDC73",
"&. c #EDDB79",
"*. c #E7CF4A",
"=. c #E4C61A",
"-. c #E9C61D",
";. c #F4DE74",
":. c #EAD671",
">. c #E8D570",
",. c #DFC128",
"<. c #DEBF1A",
"1. c #E6C41E",
"2. c #F0DA71",
"3. c #EAD875",
"4. c #E5CF5B",
"5. c #DCBC18",
"6. c #DFC11D",
"7. c #E5C31E",
"8. c #EFD970",
"9. c #EBD876",
"0. c #E1C63D",
"q. c #DCBC17",
"w. c #DFC11F",
"e. c #EFD972",
"r. c #EAD66E",
"t. c #DEC024",
"y. c #DCBD1A",
"u. c #EFDA76",
"i. c #E7D059",
"p. c #DDBE1D",
"a. c #EFDA77",
"s. c #E3C93E",
"d. c #DCBC16",
"f. c #DDBE1E",
"g. c #EED870",
"h. c #E0C328",
"j. c #DCBD19",
"k. c #ECD360",
"l. c #DDBD1C",
"z. c #E9CD49",
"x. c #DEBE17",
"c. c #E5C632",
"v. c #DEBE19",
"b. c #E2C121",
"n. c #DEBF1C",
"m. c #DFBC19",
"M. c #DFC01D",
"N. c #DEBB16",
"B. c #DFBC18",
"V. c #E0C11F",
"C. c #E0BD1A",
"Z. c #E2BF1C",
"A. c #E3C01D",
"S. c #E0C21F",
"D. c #E3BF1D",
"F. c #E3BF1C",
"G. c #E2BE1C",
"H. c #E1BE1C",
"J. c #E1BD1C",
"K. c #E0BD1C",
"L. c #E1BC1C",
"P. c #E0BC1C",
"I. c #E1C21F",
"U. c #E6C31D",
"Y. c #E0C11E",
"T. c #E4C220",
"R. c #E0BB1B",
"E. c #E1C21D",
"W. c #DDBE23",
"Q. c #E3C31C",
"!. c #D1B529",
"~. c #DEBE1E",
"^. c #E2C31D",
"/. c #C4AB2F",
"(. c #DFBB1B",
"). c #DFBF1D",
"_. c #DEC01F",
"`. c #B8A334",
"'. c #E1C11C",
"]. c #D4B823",
"[. c #B19E37",
"{. c #E2C11C",
"}. c #C5AE2A",
"|. c #B09D38",
" X c #DFBA1B",
".X c #E1C31F",
"XX c #DEBF1D",
"oX c #B7A331",
"OX c #B19D38",
"+X c #E0C01D",
"@X c #D6B921",
"#X c #AD9C35",
"$X c #B39F37",
"%X c #C6AD28",
"&X c #AA9A37",
"*X c #B4A036",
"=X c #E2C31F",
"-X c #B6A130",
";X c #AB9B36",
":X c #E4C51E",
">X c #D5B822",
",X c #AB9935",
"<X c #E6C61D",
"1X c #C3AB2A",
"2X c #A89836",
"3X c #AE9D35",
"4X c #B3A037",
"5X c #E6BE1A",
"6X c #E5C921",
"7X c #B4A234",
"8X c #AD9D37",
"9X c #B0A138",
"0X c #B9A336",
"qX c #BC8E0C",
"wX c #CFAD1F",
"eX c #A99333",
"rX c #AA9432",
"tX c #AE9733",
"yX c #B68F1D",
/* pixels */
"                                                          . X o O + @                                                           ",
"                                                        # X.o.O.+.@.#.$                                                         ",
"                                                        % $.%.&.*.=.-.&                                                         ",
"                                                        * ;.:.>.,.<.1.=                                                         ",
"                                                      - ; 2.3.4.5.6.7.:                                                         ",
"                                                      > , 8.9.0.q.w.7.:                                                         ",
"                                                      < 1 e.r.t.y.w.7.:                                                         ",
"                                                      < 2 u.i.5.p.w.7.:                                                         ",
"                                                      < 3 a.s.d.f.w.7.:                                                         ",
"                                                      < 4 g.h.j.f.w.7.:                                                         ",
"                                                      < 5 k.<.l.f.w.7.:                                                         ",
"                                                      < 6 z.x.f.f.w.7.:                                                         ",
"                                                      7 8 c.v.f.f.w.7.:                                                         ",
"                                                      7 9 b.n.f.f.w.7.:                                                         ",
"                                                      7 0 m.M.f.f.w.7.:                                                         ",
"                                                      7 q N.w.f.f.w.7.:                                                         ",
"                                                      < w B.V.f.f.w.7.:                                                         ",
"                                                      e r C.V.f.f.w.7.:                                                         ",
"                                                        t Z.V.f.f.w.7.:                                                         ",
"                                                        y A.V.f.f.w.7.:                                                         ",
"                                                        y A.S.f.f.w.7.:                                                         ",
"                                                        u D.S.f.f.w.7.:                                                         ",
"                                                        i F.S.f.f.w.7.:                                                         ",
"                                                        p F.S.f.f.w.7.:                                                         ",
"                                                        a Z.S.f.f.w.7.:                                                         ",
"                                                        a Z.S.f.f.w.7.:                                                         ",
"                                                        s Z.S.f.f.w.7.:                                                         ",
"                                                        d Z.S.f.f.w.7.:                                                         ",
"                                                        f Z.S.f.f.w.7.:                                                         ",
"                                                        g Z.S.f.f.w.7.:                                                         ",
"                                                        h Z.S.f.f.w.7.:                                                         ",
"                                                        j G.S.f.f.w.7.:                                                         ",
"                                                        k G.S.f.f.w.7.:                                                         ",
"                                                        l H.S.f.f.w.7.:                                                         ",
"                                                        z H.S.f.f.w.7.:                                                         ",
"                                                        x H.S.f.f.w.7.:                                                         ",
"                                                        c H.S.f.f.w.7.:                                                         ",
"                                                        v J.S.f.f.w.7.:                                                         ",
"                                                        b J.S.f.f.w.7.:                                                         ",
"                                                        n J.S.f.f.w.7.:                                                         ",
"                                                        m J.S.f.f.w.7.:                                                         ",
"                                                        M K.S.f.f.w.7.:                                                         ",
"                                                        N L.S.f.f.w.7.:                                                         ",
"                                                        B J.S.f.f.w.7.:                                                         ",
"                                                        V P.I.f.f.w.7.:                                                         ",
"                                                        C P.I.f.f.w.7.Z                                                         ",
"                                                        A P.I.f.f.w.U.S                                                         ",
"                                                        A P.I.f.f.Y.7.D                                                         ",
"                                                        F P.I.f.f.Y.T.G                                                         ",
"                                                        H R.I.f.f.E.W.J                                                         ",
"                                                        K R.I.f.f.Q.!.L                                                         ",
"                                                        P R.I.f.~.^./.L                                                         ",
"                                                        I (.I.f.)._.`.U                                                         ",
"                                                        Y (.I.f.'.].[.J                                                         ",
"                                                        T (.I.f.{.}.|.R                                                         ",
"                                                        E  X.XXX).oXOXR                                                         ",
"                                                        W  X.X+X@X#X$XR                                                         ",
"                                                        Q  X.X{.%X&X*X!                                                         ",
"                                                        ~  X=XM.-X;X*X^                                                         ",
"                                                        /  X:X>X,X#X*X(                                                         ",
"                                                        E R.<X1X2X3X4X)                                                         ",
"                                                        _ 5X6X7X8X9X0X`                                                         ",
"                                                        ' qXwXeXrXtXyX]                                                         ",
"                                                          [ { } |  ...                                                          "
};
