/* XPM */
static char *_a9c267c19af4624e4b43fb618d568b16GNHoLrz2nG7OSL1[] = {
/* columns rows colors chars-per-pixel */
"64 64 180 2 ",
"   c None",
".  c #000100",
"X  c #0C0402",
"o  c #010A06",
"O  c #020E09",
"+  c #0C0C0C",
"@  c #120401",
"#  c #1B0A04",
"$  c #160804",
"%  c #03130C",
"&  c #05180F",
"*  c #061D12",
"=  c #0D1913",
"-  c #151515",
";  c #240E06",
":  c #2D1007",
">  c #2D1108",
",  c #3B160A",
"<  c #361409",
"1  c #042214",
"2  c #092316",
"3  c #092618",
"4  c #072919",
"5  c #0A2C1D",
"6  c #002B17",
"7  c #00321B",
"8  c #0A311F",
"9  c #1B2922",
"0  c #0C3421",
"q  c #023B21",
"w  c #0D3A25",
"e  c #0E3E28",
"r  c #173B2A",
"t  c #1F3F30",
"y  c gray13",
"u  c #282929",
"i  c #3B3B3B",
"p  c #343434",
"a  c #43190B",
"s  c #501E0D",
"d  c #5C230F",
"f  c #642510",
"g  c #6B2812",
"h  c #722B13",
"j  c #004525",
"k  c #004927",
"l  c #0F422A",
"z  c #004D29",
"x  c #11442C",
"c  c #11492F",
"v  c #00512C",
"b  c #124C31",
"n  c #005C32",
"m  c #075833",
"M  c #135335",
"N  c #145B3A",
"B  c #145738",
"V  c #006536",
"C  c #016738",
"Z  c #016A39",
"A  c #16623F",
"S  c #3D4641",
"D  c #176540",
"F  c #196D46",
"G  c #126940",
"H  c #067340",
"J  c #0B7A46",
"K  c #0A7A46",
"L  c #1A744A",
"P  c #1C7A4E",
"I  c #167549",
"U  c #1D7E51",
"Y  c #256C4B",
"T  c #2C6E4F",
"R  c #2A7351",
"E  c #267B53",
"W  c #37795A",
"Q  c #4B4B4B",
"!  c #444444",
"~  c #5C5B5B",
"^  c gray34",
"/  c #615F60",
"(  c #696768",
")  c #727574",
"_  c #8D3517",
"`  c #923618",
"'  c #9B3A1A",
"]  c #A83F1C",
"[  c #AB401C",
"{  c #B3431E",
"}  c #BA461F",
"|  c #BE4720",
" . c #CC4C22",
".. c #D34F23",
"X. c #DC5225",
"o. c #D75024",
"O. c #E45526",
"+. c #EA5827",
"@. c #EE5928",
"#. c #F35B29",
"$. c #0F854E",
"%. c #10854F",
"&. c #1D8253",
"*. c #128B53",
"=. c #1F8957",
"-. c #1F8B58",
";. c #19965C",
":. c #1A995E",
">. c #159057",
",. c #208C5A",
"<. c #21935E",
"1. c #229760",
"2. c #239A62",
"3. c #299E68",
"4. c #3C966C",
"5. c #1FA165",
"6. c #24A267",
"7. c #25A469",
"8. c #26AB6D",
"9. c #28AE6F",
"0. c #28AF70",
"q. c #33A770",
"w. c #27B371",
"e. c #29B473",
"r. c #2BB876",
"t. c #32B779",
"y. c #39BA7E",
"u. c #30B677",
"i. c #418B69",
"p. c #499471",
"a. c #569B7B",
"s. c #7B827F",
"d. c #4CAF80",
"f. c #5EAD88",
"g. c #48BF87",
"h. c #46BE86",
"j. c #65B38F",
"k. c #66B490",
"l. c #4BC08A",
"z. c #5AC895",
"x. c #65CA9B",
"c. c #78CAA4",
"v. c #73D0A5",
"b. c #888888",
"n. c #808080",
"m. c #9A9798",
"M. c #939494",
"N. c #96A79F",
"B. c #A4A4A4",
"V. c #AFAEAF",
"C. c #A9A7A8",
"Z. c #A8B7B0",
"A. c #B6B6B6",
"S. c #BBBABA",
"D. c #92C1AB",
"F. c #84D4AF",
"G. c #87D3B0",
"H. c #97D8B9",
"J. c #A1DDC1",
"K. c #A9E2C7",
"L. c #B3E3CC",
"P. c #CDCDCD",
"I. c #C4C5C4",
"U. c #D6D5D6",
"Y. c gainsboro",
"T. c #C4EBD9",
"R. c #C4E9D8",
"E. c #E0DFE0",
"W. c #CFF0E1",
"Q. c #D9F3E6",
"!. c #D7F2E5",
"~. c #E4E3E3",
"^. c #EDECED",
"/. c #E9E6E7",
"(. c #EDF1EF",
"). c #EDF9F3",
"_. c #F4F4F4",
"`. c white",
"'. c #FEFEFE",
"]. c #F1FCF6",
/* pixels */
"                                                                                                                                ",
"                                  .                                                                                             ",
"            . .                   o .                                                                                           ",
"            % * .               o B &                                                                                           ",
"          . c L .               * 7.B .                                                                                         ",
"          . P 0.w .           . l e.7.5 .                                                                                       ",
"          % 1.r.1.* .         . B e.e.<.* .                                                                                     ",
"          & 6.e.e.&.& .       . B e.e.e.&.& .     . . . . . . . . . . . .                                                       ",
"          & 2.e.e.e.P % .     . b e.e.e.r.F o . . . . . o & * * * % o . . . . .                                                 ",
"          o ,.e.e.e.e.P % .     5 9.e.9.F 2 . . . % q F ,.2.7.7.7.2.,.Y x % . . . .       . .                                   ",
"          . D e.e.e.e.e.&.& .   O <.1.w . . . 1 k J 8.e.e.e.e.e.e.e.r.z.G.j.Y 4 . . . .   . . .                                 ",
"          . 5 8.e.e.e.e.e.=.* . . 8 * . . * z C *.w.e.e.e.e.e.e.e.e.e.e.l.K.T.c.R * . . . . . . .     . .                       ",
"          . . P e.e.e.e.e.e.<.3 . . . o q V Z >.w.e.e.e.e.e.e.e.e.e.e.e.w.r.v.!.W.k.b . . . . . .     . .                       ",
"        . * 0 3 7.e.e.e.e.e.e.2.8 . % z Z Z *.w.e.e.e.e.e.e.e.e.e.e.e.e.e.e.w.h.L.].J.R O . . . . . . . .                       ",
"        . L 6.3 b w.e.e.e.e.e.e.6.w o z Z *.w.e.e.e.e.e.e.e.e.e.e.e.e.e.e.e.e.w.u.F.).T.i.% . . . . . . .                       ",
"        * 6.e.,.* D e.e.e.e.e.e.e.7.l o m 9.e.e.e.e.e.e.e.e.e.e.e.e.e.e.e.e.e.e.e.e.x.Q.Q.p.% . . . . . .                       ",
"        * 6.e.e.&.1 F e.e.e.e.e.e.e.8.l % &.e.e.e.e.e.e.e.e.e.e.e.e.e.e.e.e.e.e.e.e.w.g.R.Q.i.o . . . . .                       ",
"        . L e.e.e.&.3 F w.e.e.e.e.e.e.8.l & =.e.e.e.e.e.e.e.e.e.e.e.e.e.e.e.e.e.e.e.e.w.y.L.T.T . . . .                         ",
"        . 1 2.e.e.e.,.0 N 9.e.e.e.e.e.e.7.w 1 2.e.e.e.e.e.e.e.e.e.e.e.e.e.e.e.e.e.e.e.e.w.t.J.H.c . .                           ",
"          . 5 2.e.e.e.7.B M 2.e.e.e.e.e.e.6.5 0 8.e.e.e.e.e.e.e.e.e.e.e.e.e.e.e.e.e.e.e.e.e.t.H.f.& . .                         ",
"            . 1 &.e.e.e.w.=.D ,.w.e.e.e.e.e.1.* N e.e.e.e.e.e.e.e.e.e.e.e.e.e.e.e.e.e.e.e.e.e.t.x.Y . .                         ",
"            * e % M 6.e.e.e.0.2.8.e.e.e.e.e.e.U * ,.e.e.e.e.e.e.e.e.e.e.e.e.e.w.e.e.e.e.e.e.e.w.r.q.2 . .                       ",
"            3 7.L 2 2 F 8.e.e.e.e.e.e.e.e.e.e.w.M l w.e.e.e.e.e.e.e.e.e.e.e.e.e.e.e.e.e.e.e.9.4.D.R.Z.Q .                       ",
"            2 8.e.7.A 2 5 F 7.e.e.e.e.e.e.e.e.e.7.0 ,.e.e.e.e.e.e.e.e.e.e.e.e.w.w.w.e.e.e.9.R I.`.`.`._.~                       ",
"            % 2.e.e.e.7.F w 0 A <.w.e.e.e.e.e.e.e.L B e.e.e.e.e.e.e.e.e.e.6.P W a.d.r.w.e.&.s.`.`.~.A.^.P.y                     ",
"            . L e.e.e.e.e.0.<.F B F <.w.e.e.e.e.e.7.M 7.e.e.e.e.e.e.e.e.-.t M.~._.(.L.g.w.B C.`._.^ - A.^.i                     ",
"            . 8 8.e.e.e.e.e.e.e.w.8.7.w.e.e.e.e.e.e.L <.e.e.e.e.e.e.e.2.5 m.`.`.`.`.`.R.y.l m.`._.! . ( Y.u                     ",
"              . N w.e.e.e.e.e.e.e.e.e.e.e.e.e.e.e.e.2.,.e.e.e.e.e.e.e.N i _.`.`.Y.B.E.`.v.N Q _.`.P.b.U.B.o                     ",
"                o M 7.e.e.e.e.e.e.e.e.e.e.e.e.e.e.e.9.1.e.e.e.e.e.w.w.8 / `.`./.i + V.`.H.2.2 ( ~.`._.V.y .                     ",
"                . . 3 F 2.w.e.e.e.e.e.e.e.e.e.e.e.e.w.8.e.e.e.e.e.e.9.4 ~ `.`.U.- + Q /.H.w.&.3 u Q S r o . .                   ",
"                . . o 1 1 w N L -.2.6.8.w.e.e.e.e.e.e.e.e.e.e.e.e.e.w.l u ~.`._.n.p b.^.f.w.e.7.P N l 0 . . . . . . . . .       ",
"                  . % n n v k k G &.<.7.w.e.e.e.e.e.e.e.e.e.e.e.e.e.e.P o ) _.`.`._.'.N.3.e.e.w.L 3 . X ; a f h h f a # . .     ",
"                  . . z Z Z Z Z *.e.e.e.e.e.e.e.e.e.e.e.e.e.e.e.e.e.e.w.M o ~ S.U.I.) E w.e.9.M . @ d ] o.+.#.#.#.#.+. .g X .   ",
"                  . . 1 V Z Z C H 8.e.e.e.e.e.e.e.e.e.e.e.e.e.e.e.8.5.5.2.D 1 = 9 r P w.e.e.F . : { @.#.#.#.#.#.#.@.X.} f X .   ",
"                    . . j Z Z Z Z *.e.e.e.e.e.e.e.e.e.e.e.e.e.w.;.H Z Z Z $.6.1.2.9.e.e.e.9.5 @ { #.#.O. .} ] ` h s : X . .     ",
"                    . . o k Z Z Z Z :.e.e.e.e.e.e.e.e.e.e.e.e.w.K V V V V Z 5.e.e.e.e.e.e.7.* : O.#.@.g X X X . . . . .         ",
"                      . . . 7 n Z Z Z :.w.e.e.e.e.e.e.e.e.e.e.e.6.%.K K K :.w.e.e.e.e.e.e.0.5 @ | #.#._ ; X . . . . .           ",
"                        . . . % 7 v V Z *.8.e.e.e.e.e.e.e.e.e.e.e.e.w.9.w.e.e.e.e.e.e.w.7.U 3 . ,  .#.#.o.} ` g a # X . .       ",
"                          . . . . . % 6 q m I 2.8.0.w.w.e.e.e.e.e.e.e.w.w.9.8.6.<.U A l * o . . . ; ` X.#.#.#.#.+...] d X .     ",
"                              . . . . . . . o % 3 8 w l c c c c c c l e 0 5 2 & O . . . . . .   . . . > h [  .O.O.O.X.' $ .     ",
"                                    . . . . . . . . . . . . . . . . . . . . . . . . . . .           . . . X # : , < ; X .       ",
"                                        . . . . . . . . . . . . . . . . . .                               . . . . . . .         ",
"                                      . . . .             . . .                                                                 ",
"                              . . . . . . .             . . . .                                                                 ",
"                            . . . . . . .           . . . . .                                                                   ",
"                            . . . . . .         . . . . . .                                                                     ",
"                                                . . . .                                                                         ",
"                                                . .                                                                             ",
"                                                                                                                                ",
"                                                                                                                                ",
"                                                                                                                                ",
"                                                                                                                                ",
"                                                                                                                                ",
"                                                                                                                                ",
"                                                                                                                                ",
"                                                                                                                                ",
"                                                                                                                                ",
"                                                                                                                                ",
"                                                                                                                                ",
"                                                                                                                                ",
"                                                                                                                                ",
"                                                                                                                                ",
"                                                                                                                                ",
"                                                                                                                                "
};
