/* XPM */
static char *_2a19b222fa942e5bdbc3817037dc81bQcjtHr9BFpcPeTaQ[] = {
/* columns rows colors chars-per-pixel */
"64 64 174 2 ",
"   c None",
".  c #000100",
"X  c #0C0402",
"o  c #020A06",
"O  c #030E09",
"+  c #0C0C0C",
"@  c #120401",
"#  c #1B0A04",
"$  c #160804",
"%  c #03130C",
"&  c #03190F",
"*  c #061D12",
"=  c #0D1913",
"-  c #151515",
";  c #240E06",
":  c #2D1007",
">  c #2D1108",
",  c #3B160A",
"<  c #361409",
"1  c #032213",
"2  c #092317",
"3  c #092618",
"4  c #072919",
"5  c #0A2C1C",
"6  c #002A17",
"7  c #0B311F",
"8  c #1B2922",
"9  c #0C3522",
"0  c #023B21",
"q  c #0D3A25",
"w  c #0E3E28",
"e  c #173B2A",
"r  c #1F3F30",
"t  c gray13",
"y  c #282929",
"u  c #3B3B3B",
"i  c #343434",
"p  c #43190B",
"a  c #501E0D",
"s  c #5C230F",
"d  c #642510",
"f  c #6B2812",
"g  c #722B13",
"h  c #0F432A",
"j  c #014C2A",
"k  c #004827",
"l  c #10452C",
"z  c #11492F",
"x  c #00522C",
"c  c #124D31",
"v  c #005C31",
"b  c #135335",
"n  c #135B39",
"m  c #006637",
"M  c #006738",
"N  c #006939",
"B  c #16613E",
"V  c #04703E",
"C  c #3D4641",
"Z  c #176540",
"A  c #196D46",
"S  c #0A7946",
"D  c #0B7D48",
"F  c #077542",
"G  c #1A744A",
"H  c #1C7A4E",
"J  c #1D7F51",
"K  c #256C4B",
"L  c #2C6E4F",
"P  c #2A7351",
"I  c #267B53",
"U  c #37795A",
"Y  c #4B4B4B",
"T  c #444444",
"R  c #5C5B5B",
"E  c gray34",
"W  c #615F60",
"Q  c #696768",
"!  c #727574",
"~  c #8D3517",
"^  c #923618",
"/  c #9B3A1A",
"(  c #A83F1C",
")  c #AB401C",
"_  c #B3431E",
"`  c #BA461F",
"'  c #BE4720",
"]  c #CC4C22",
"[  c #D34F23",
"{  c #DC5225",
"}  c #D75024",
"|  c #E45526",
" . c #EA5827",
".. c #EE5928",
"X. c #F35B29",
"o. c #0F854E",
"O. c #10864F",
"+. c #1E8454",
"@. c #138C54",
"#. c #1F8A58",
"$. c #169158",
"%. c #19965C",
"&. c #1A995E",
"*. c #159057",
"=. c #208C5A",
"-. c #21925D",
";. c #229660",
":. c #239C63",
">. c #299E68",
",. c #3C966C",
"<. c #1FA165",
"1. c #23A266",
"2. c #25A569",
"3. c #26AB6D",
"4. c #28AE6F",
"5. c #28AF70",
"6. c #33A770",
"7. c #27B371",
"8. c #29B473",
"9. c #2AB876",
"0. c #32B779",
"q. c #39BA7E",
"w. c #30B677",
"e. c #418B69",
"r. c #499471",
"t. c #569B7B",
"y. c #7B827F",
"u. c #4CAF80",
"i. c #5EAD88",
"p. c #48BF87",
"a. c #46BE86",
"s. c #65B38F",
"d. c #66B490",
"f. c #4BC08A",
"g. c #5AC895",
"h. c #65CA9B",
"j. c #78CAA4",
"k. c #73D0A5",
"l. c #888888",
"z. c #808080",
"x. c #9A9798",
"c. c #939494",
"v. c #96A79F",
"b. c #A4A4A4",
"n. c #AFAEAF",
"m. c #A9A7A8",
"M. c #A8B7B0",
"N. c #B6B6B6",
"B. c #BBBABA",
"V. c #92C1AB",
"C. c #84D4AF",
"Z. c #87D3B0",
"A. c #97D8B9",
"S. c #A1DDC1",
"D. c #A9E2C7",
"F. c #B3E3CC",
"G. c #C4C5C4",
"H. c #CDCDCD",
"J. c #D6D5D6",
"K. c gainsboro",
"L. c #C4EBD9",
"P. c #C4E9D8",
"I. c #E0DFE0",
"U. c #CFF0E1",
"Y. c #D9F3E6",
"T. c #D7F2E5",
"R. c #E4E3E3",
"E. c #EDECED",
"W. c #E9E6E7",
"Q. c #EDF1EF",
"!. c #EDF9F3",
"~. c #F4F4F4",
"^. c #FEFEFE",
"/. c #F1FCF6",
/* pixels */
"                                                                                                                                ",
"                                                                                                                                ",
"                                                                                                                                ",
"                                                                                                                                ",
"                                                                                                                                ",
"                                                                                                                                ",
"                                                                                                                                ",
"                                                  . . . . . . . . . . . .                                                       ",
"                                              . . . . . o % * * * % o . . . . .                                                 ",
"                                          . . . . % 9 A =.:.2.2.2.:.=.K l % . . . .       . .                                   ",
"                                      . . . o 1 k S 3.8.8.8.8.8.8.8.9.g.Z.s.K 3 . . . .   . . .                                 ",
"                                    . . . * j M @.7.8.8.8.8.8.8.8.8.8.8.f.D.L.j.P * . . . . . . .     . .                       ",
"                                  . . o 0 m N *.7.8.8.8.8.8.8.8.8.8.8.8.7.9.k.T.U.d.c o . . . . .     . .                       ",
"                                . . % j M M @.7.8.8.8.8.8.8.8.8.8.8.8.8.8.8.7.a.F./.S.P O . . . . . . . .                       ",
"                              . . & v M M @.7.8.8.8.8.8.8.8.8.8.8.8.8.8.8.8.8.7.w.C.!.L.e.% . . . . . . .                       ",
"                            . . & v M M D 4.8.8.8.8.8.8.8.8.8.8.8.8.8.8.8.8.8.8.8.8.h.Y.Y.r.% . . . . . .                       ",
"                          . . % v M M V 1.8.8.8.8.8.8.8.8.8.8.8.8.8.8.8.8.8.8.8.8.8.7.p.P.Y.e.o . . . . .                       ",
"                        . . o x M M M $.8.8.8.8.8.8.8.8.8.8.8.8.8.8.8.8.8.8.8.8.8.8.8.7.q.F.L.L . . . .                         ",
"                        . . 0 M M M S 4.8.8.8.8.8.8.8.8.8.8.8.8.8.8.8.8.8.8.8.8.8.8.8.8.7.0.S.A.l . .                           ",
"                      . . 1 M M M M &.8.8.8.8.8.8.8.8.8.8.8.8.8.8.8.8.8.8.8.8.8.8.8.8.8.8.8.0.A.i.& . .                         ",
"                      . o x M M M S 4.8.8.8.8.8.8.8.8.8.8.8.8.8.8.8.8.8.8.8.8.8.8.8.8.8.8.8.8.0.h.K . .                         ",
"                    . . 6 M M M M $.8.8.8.8.8.8.8.8.8.8.8.8.8.8.8.8.8.8.8.8.8.8.8.8.8.8.8.8.8.7.9.6.2 . .                       ",
"                    . o x M M M N 2.8.8.8.8.8.8.8.8.8.8.8.8.8.8.8.8.8.8.8.8.8.8.8.8.8.8.8.8.4.,.V.P.M.Y .                       ",
"                  . . * M M M M D 7.8.8.8.8.8.8.8.8.8.8.8.8.8.8.8.8.8.8.8.8.8.7.7.7.8.8.8.4.P G.^.^.^.~.R                       ",
"                  . . 0 M M M M @.8.8.8.8.8.8.8.8.8.8.8.8.8.8.8.8.8.8.8.8.1.H U t.u.9.7.8.+.y.^.^.R.N.E.H.t                     ",
"                  . o x M M M M &.8.8.8.8.8.8.8.8.8.8.8.8.8.8.8.8.8.8.8.#.r c.R.~.Q.F.p.7.b m.^.~.E - N.E.u                     ",
"                  . % v M M M N 1.8.8.8.8.8.8.8.8.8.8.8.8.8.8.8.8.8.8.:.5 x.^.^.^.^.^.P.q.h x.^.~.T . Q K.y                     ",
"                . . & M M M M N 3.8.8.8.8.8.8.8.8.8.8.8.8.8.8.8.8.8.8.n u ~.^.^.K.m.I.^.k.n Y ~.^.H.l.J.b.o                     ",
"                . . 1 M M M M V 3.8.8.8.8.8.8.8.8.8.8.8.8.8.8.8.8.8.7.7 W ^.^.W.u + n.^.A.:.2 Q R.^.~.n.t .                     ",
"                . . 1 M M M M N 3.8.8.8.8.8.8.8.8.8.8.7.8.8.8.8.8.8.4.4 R ^.^.J.- + Y W.A.7.+.3 y Y C e o . .                   ",
"                . . & M M M M N 1.8.8.8.7.8.8.8.8.8.7.:.7.8.8.8.8.8.7.h y R.^.~.z.i l.E.i.7.8.2.H n h 9 o . . . . . . . .       ",
"                  . % v M M M M &.8.7.:.3.8.8.8.8.8.2.+.8.8.8.8.8.8.8.H o ! ~.^.^.~.^.v.>.8.8.7.G 3 . X ; p d g g d p # . .     ",
"                  . o j M M M M O.:.J :.7.8.8.8.8.8.+.H 8.8.8.8.8.8.8.7.b o R B.J.G.! I 7.8.4.b o @ s ( }  .X.X.X.X. .] f X .   ",
"                  . . 1 M M M x j G 2.8.8.8.8.8.8.5.b -.8.8.8.8.8.3.<.<.:.Z 2 = 8 e H 7.8.8.A . : _ ..X.X.X.X.X.X...{ ` d X .   ",
"                    . o 0 j 0 b -.7.8.8.8.8.8.8.8.G c 7.8.8.8.7.%.F M M N o.1.;.:.4.8.8.8.4.5 @ _ X.X.| ] ` ( ^ g a : X . .     ",
"                    . . % b =.7.8.8.8.8.8.8.8.8.=.7 -.8.8.8.8.7.S M M M M M <.8.8.8.8.8.8.2.* : | X...f X X X . . . . .         ",
"                  . * b ;.4.:.;.3.8.8.8.8.8.8.-.5 A 8.8.8.8.8.8.1.O.S F D %.7.8.8.8.8.8.8.5.5 @ ' X.X.~ ; X . . . . .           ",
"              . * n :.2.H Z +.3.8.8.8.8.8.8.=.3 n 7.8.8.8.8.8.8.8.8.7.4.7.8.8.8.8.8.8.7.2.J 3 . , ] X.X.} ` ^ f p # X . .       ",
"            o c :.1.Z l G 3.8.7.8.8.8.8.7.G % h 2.7.7.7.8.8.8.8.8.8.8.7.7.4.3.1.-.J B h * o . . . ; ^ { X.X.X.X. .[ ( s X .     ",
"          % G 4.G 5 b 1.9.1.+.1.8.8.8.2.b o . % 3 7 q h l z z z z z h w 9 5 2 & O o . . . . .   . . . > g ) ] | | | { / $ .     ",
"        o A 2.h 5 +.8.5.G n :.8.8.8.#.5 . . . . . . . . . . . . . . . . . . . . . . . . .           . . . X # : , < ; X .       ",
"        & +.7 q :.9.:.l b 2.8.8.3.B % & & . . . 5 c h w 9 o . . . . . . . .                               . . . . . . .         ",
"        o * w 2.9.=.5 b 4.8.8.-.9 . o * o . . h 2.8.8.:.l o . .                                                                 ",
"        . 3 1.9.#.* n 7.8.7.G & . . . . . . h 3.9.8.+.3 . . . .                                                                 ",
"        o H 9.;.2 c 5.8.4.n o . . . . . . 9 2.7.=.n % . . . .                                                                   ",
"        * 2.4.q 7 2.8.3.l . . . . o 2 O * ;.9.2.* . . . . .                                                                     ",
"        * 3.A % =.8.3.l . .   . o G J % G 8.7.B o . . .                                                                         ",
"        o H 5 c 8.7.n . .       . Z l 7 4.8.G o . .                                                                             ",
"        . % % =.9.+.o .         . % O A 9.:.* .                                                                                 ",
"          . * 2.4.9 .             . o -.8.b .                                                                                   ",
"          . 2 3.+.o                 O ;.:.& .                                                                                   ",
"            % ;.n .                 o H H .                                                                                     ",
"            . c 9 .                 . 9 c .                                                                                     ",
"              o o                     o o .                                                                                     ",
"                .                       .                                                                                       ",
"                                                                                                                                ",
"                                                                                                                                ",
"                                                                                                                                ",
"                                                                                                                                ",
"                                                                                                                                ",
"                                                                                                                                ",
"                                                                                                                                ",
"                                                                                                                                ",
"                                                                                                                                "
};
