/* XPM */
static char *_920dbc738954ba8b5ba051b45dc0ae6B6LiuGyt7uYIAuU8[] = {
/* columns rows colors chars-per-pixel */
"64 64 184 2 ",
"   c None",
".  c #000000",
"X  c #0C0402",
"o  c #010A06",
"O  c #030E09",
"+  c #0C0C0C",
"@  c #130602",
"#  c #1B0A05",
"$  c #180803",
"%  c #02140C",
"&  c #031A0F",
"*  c #051C12",
"=  c #0D1913",
"-  c #151515",
";  c #1B1C1C",
":  c #2E1108",
">  c #2C1007",
",  c #3B160A",
"<  c #311208",
"1  c #032213",
"2  c #082317",
"3  c #092618",
"4  c #072919",
"5  c #0A2B1C",
"6  c #002B17",
"7  c #00321B",
"8  c #0A311E",
"9  c #00391E",
"0  c #1B2922",
"q  c #0C3522",
"w  c #023C21",
"e  c #0D3A25",
"r  c #0E3F28",
"t  c #173D2B",
"y  c #1F3F30",
"u  c #272727",
"i  c #343434",
"p  c #3B3B3B",
"a  c #383738",
"s  c #43190B",
"d  c #4F1E0D",
"f  c #56200E",
"g  c #5C230F",
"h  c #652611",
"j  c #6B2812",
"k  c #7B2E15",
"l  c #004425",
"z  c #0F422A",
"x  c #004C29",
"c  c #004827",
"v  c #11452C",
"b  c #11492F",
"n  c #00512C",
"m  c #0F4E31",
"M  c #124D31",
"N  c #015B31",
"B  c #055731",
"V  c #135536",
"C  c #145B3A",
"Z  c #006536",
"A  c #006738",
"S  c #016A39",
"D  c #16623F",
"F  c #04703E",
"G  c #176540",
"H  c #186C45",
"J  c #136F44",
"K  c #067340",
"L  c #0B7A46",
"P  c #0C7D49",
"I  c #087643",
"U  c #1A744A",
"Y  c #1C7A4E",
"T  c #167549",
"R  c #1D7F51",
"E  c #256C4B",
"W  c #2C6E4F",
"Q  c #2A7351",
"!  c #267B53",
"~  c #37795A",
"^  c #4B4B4B",
"/  c #444444",
"(  c #5C5B5B",
")  c gray34",
"_  c #615F60",
"`  c #696768",
"'  c #727574",
"]  c #803015",
"[  c #8D3517",
"{  c #8D3518",
"}  c #933719",
"|  c #A43E1B",
" . c #AE411D",
".. c #B9451F",
"X. c #B6441E",
"o. c #C64A21",
"O. c #CB4C22",
"+. c #D34F23",
"@. c #DC5325",
"#. c #E35526",
"$. c #EB5827",
"%. c #EF5A28",
"&. c #E95727",
"*. c #F25B28",
"=. c #F95D29",
"-. c #0F854E",
";. c #10854F",
":. c #1E8454",
">. c #128B53",
",. c #1F8857",
"<. c #1F8A58",
"1. c #19965C",
"2. c #1A995E",
"3. c #169158",
"4. c #218B59",
"5. c #21925D",
"6. c #229760",
"7. c #229B63",
"8. c #299E68",
"9. c #3C966C",
"0. c #1FA165",
"q. c #24A166",
"w. c #25A569",
"e. c #26AB6D",
"r. c #28AE6F",
"t. c #28AF70",
"y. c #33A770",
"u. c #27B371",
"i. c #29B473",
"p. c #2BB876",
"a. c #32B779",
"s. c #39BA7E",
"d. c #30B677",
"f. c #418B69",
"g. c #499471",
"h. c #569B7B",
"j. c #7B827F",
"k. c #4CAF80",
"l. c #5EAD88",
"z. c #48BF87",
"x. c #46BE86",
"c. c #65B38F",
"v. c #66B490",
"b. c #4BC08A",
"n. c #5AC895",
"m. c #65CA9B",
"M. c #78CAA4",
"N. c #73D0A5",
"B. c #888888",
"V. c #808080",
"C. c #9A9798",
"Z. c #969797",
"A. c #96A79F",
"S. c #A4A4A4",
"D. c #ACABAC",
"F. c #A8B7B0",
"G. c #B6B6B6",
"H. c #BBBABA",
"J. c #92C1AB",
"K. c #84D4AF",
"L. c #87D3B0",
"P. c #97D8B9",
"I. c #A1DDC1",
"U. c #A9E2C7",
"Y. c #B3E3CC",
"T. c #C4C5C4",
"R. c #CDCDCD",
"E. c #D5D5D5",
"W. c gainsboro",
"Q. c #C4EBD9",
"!. c #C4E9D8",
"~. c #E0DFE0",
"^. c #CFF0E1",
"/. c #D9F3E6",
"(. c #D7F2E5",
"). c #E4E3E3",
"_. c #EDECED",
"`. c #E9E6E7",
"'. c #EDF1EF",
"]. c #EDF9F3",
"[. c #F4F3F4",
"{. c white",
"}. c #FEFEFE",
"|. c #F1FCF6",
/* pixels */
"                                                                                                                                ",
"                                                                                                                                ",
"                                                                                                                                ",
"                                                                                                                                ",
"                                                                                                                                ",
"                                                                                                                                ",
"                                                                                                                                ",
"                                                  . . . . . . . . . . . .                                                       ",
"                                              . . . . . o % * * * % o . . . . .                                                 ",
"                                          . . . . % q H 4.7.w.w.w.7.4.E v % . . . .     . .                                     ",
"                                      . . . o 1 c L e.i.i.i.i.i.i.i.p.n.L.c.E 4 . . . . . . .         .                         ",
"                                    . . . * x A >.u.i.i.i.i.i.i.i.i.i.i.b.U.Q.M.Q * . . . . . .       .                         ",
"                                  . . o w Z S 3.u.i.i.i.i.i.i.i.i.i.i.i.u.p.N.(.^.v.M o . . . . .   . . .                       ",
"                                . . % x A A >.u.i.i.i.i.i.i.i.i.i.i.i.i.i.i.u.x.Y.|.I.Q O . . . . . . . .                       ",
"                              . . & N A A >.u.i.i.i.i.i.i.i.i.i.i.i.i.i.i.i.i.u.d.K.].Q.f.% . . . . . . .                       ",
"  .                 .       . . & N A A P r.i.i.i.i.i.i.i.i.i.i.i.i.i.i.i.i.i.i.i.i.m././.g.% . . . . . .                       ",
"  . o               . o . . . % N A A F q.i.i.i.i.i.i.i.i.i.i.i.i.i.i.i.i.i.i.i.i.i.u.z.!./.f.o . . . .                         ",
"  O C 2 .           o b O . o n A A A 3.i.i.i.i.i.i.i.i.i.i.i.i.i.i.i.i.i.i.i.i.i.i.i.u.s.Y.Q.W . . . .                         ",
"  . U q.C * . .     . 2 o . w A A A L r.i.i.i.i.i.i.i.i.i.i.i.i.i.i.i.i.i.i.i.i.i.i.i.i.u.a.I.P.b . .                           ",
"    2 q.i.q.U r % o . . . % N A A A 2.i.i.i.i.i.i.i.i.i.i.i.i.i.i.i.i.i.i.i.i.i.i.i.i.i.i.i.a.P.l.& . .                         ",
"    . e w.p.i.u.7.Y V q & o % 1 9 N w.i.i.i.i.i.i.i.i.i.i.i.i.i.i.i.i.i.i.i.i.i.i.i.i.i.i.i.i.a.m.E . .                         ",
"    . o q 5.i.i.i.i.i.t.q.:.G z 2 % 4 C 6.u.i.i.i.i.i.i.i.i.i.i.i.i.i.i.i.i.i.i.i.i.i.i.i.i.i.u.p.y.2 . .                       ",
"    . C b * H e.i.i.i.i.i.i.i.u.w.,.C 4 * b 5.i.i.i.i.i.i.i.i.i.i.i.i.i.i.i.i.i.i.i.i.i.i.i.r.9.J.!.F.^ .                       ",
"    . b r.U 5 q Y e.i.i.i.i.i.i.i.i.i.e.R e * G r.i.i.i.i.i.i.i.i.i.i.i.i.i.i.u.u.u.i.i.i.r.Q T.{.{.{.[.(                       ",
"      o H i.e.H q e H q.i.i.i.i.i.i.i.i.i.t.U 2 M e.i.i.i.i.i.i.i.i.i.i.i.q.Y ~ h.k.p.u.i.:.j.{.{.).G._.R.u                     ",
"      . o M 7.p.r.:.M r C :.w.i.i.i.i.i.i.i.i.7.q V u.i.i.i.i.i.i.i.i.i.<.y Z.).[.'.Y.z.u.V D.{.[.) - G._.p                     ",
"        O 4 2 V 5.u.i.w.R C V G ,.q.u.i.i.i.i.i.q.r R i.i.i.i.i.i.i.i.7.5 C.{.{.{.{.{.!.s.z C.{.[./ . ` W.u     . . . . . .     ",
"        o G :.b 5 e D ,.w.u.r.7.<.:.5.e.i.i.i.i.i.6.V r.i.i.i.i.i.i.i.C a [.{.{.W.S.~.{.N.C ^ [.{.R.B.E.S.o . . . # , s : . .   ",
"          * U e.w.:.D M b V G R 5.q.e.u.i.i.i.i.i.i.:.6.i.i.i.i.i.i.u.8 _ {.{.`.a + D.{.P.7.2 ` ).{.[.C.; . $ g | +.&.$.#.j .   ",
"            o q H 6.r.u.r.q.5.<.:.4.6.e.i.i.i.i.i.i.r.w.i.i.i.i.i.i.r.4 ( {.{.E.- + ^ `.P.u.:.3 u ^ a o @ j o.%.*.*.*.*.#.d .   ",
"                . O 4 m D U :.5.7.q.w.e.u.i.i.i.i.i.i.i.i.i.i.i.i.i.u.z u ).{.[.V.i B._.l.u.i.w.V . . s ..*.*.*.*.*.*.+.f . .   ",
"                  . o x x c c x J 4.6.w.u.i.i.i.i.i.i.i.i.i.i.i.i.i.i.Y o ' [.{.{.[.}.A.8.i.i.5.* . j @.*.*.*.*.*.$.| : . .     ",
"                  . o x A A A A >.i.i.i.i.i.i.i.i.i.i.i.i.i.i.i.i.i.i.u.V o ( H.E.T.' ! u.i.w.5 . k $.*.*.*.*.%...f X . .       ",
"                  . . 1 A A A A K e.i.i.i.i.i.i.i.i.i.i.i.i.i.i.i.e.0.0.7.G 2 = 0 t Y u.i.i.G . g &.*.*.*.$...g @ . .           ",
"                    . o l A A A A >.i.i.i.i.i.i.i.i.i.i.i.i.i.u.1.K A A S -.q.6.7.r.i.i.i.r.5 @ o.*.*.#.| d X . .               ",
"                    . . o l A A A S 2.i.i.i.i.i.i.i.i.i.i.i.i.u.P A A A A A 0.i.i.i.i.i.i.w.* < #.*.*.j . . .                   ",
"                      . . o 7 N A A S 2.u.i.i.i.i.i.i.i.i.i.i.i.q.;.L I P 2.u.i.i.i.i.i.i.r.5 $ O.*.*.[ # . . .                 ",
"                        . . . % 7 n Z S >.e.i.i.i.i.i.i.i.i.i.i.i.i.u.r.u.i.i.i.i.i.i.u.w.R 2 . h $.*.%.O.] > . . .             ",
"                          . . . . o % 6 w B T 7.e.t.u.u.i.i.i.i.i.i.i.u.u.r.e.q.5.R D z * o . . . ] $.*.*.*.@.{ : . .           ",
"                              . . . . . . . o % 3 8 e z b b b b b b z r q 5 2 & O o . . . . . . . . j @.*.*.*.*.@.k $ . .       ",
"                                    . . . . . . . . . . . . . . . . . . . . . . . . . . .         . . ,  .$.*.*.*.*.X.: .       ",
"                                        . . . . . . . . . . . . . . . . . .                         . . X f  .#.*.*.=. .X .     ",
"                                      . . . .             . . .                                         . . X < h [ } f . .     ",
"                              . . . . . . .             . . . .                                             . . . . . . .       ",
"                            . . . . . . .           . . . . .                                                                   ",
"                            . . . . . .         . . . . . .                                                                     ",
"                                                . . . .                                                                         ",
"                                                . .                                                                             ",
"                                                                                                                                ",
"                                                                                                                                ",
"                                                                                                                                ",
"                                                                                                                                ",
"                                                                                                                                ",
"                                                                                                                                ",
"                                                                                                                                ",
"                                                                                                                                ",
"                                                                                                                                ",
"                                                                                                                                ",
"                                                                                                                                ",
"                                                                                                                                ",
"                                                                                                                                ",
"                                                                                                                                ",
"                                                                                                                                ",
"                                                                                                                                "
};
