/* XPM */
static char *_bf10bba56064114d10591a101a0b1ec0npYZRzaq5PrxECb[] = {
/* columns rows colors chars-per-pixel */
"64 64 33 1 ",
"  c None",
". c None",
"X c gray33",
"o c #5F5F5F",
"O c #6D6D6D",
"+ c #6D6D6D",
"@ c #626262",
"# c #C1C1C1",
"$ c #676767",
"% c gray77",
"& c gray35",
"* c #555555",
"= c #B6B6B6",
"- c #C6C6C6",
"; c #656565",
": c #B9B9B9",
"> c gray72",
", c #727272",
"< c gray59",
"1 c gray44",
"2 c #686868",
"3 c #909090",
"4 c #7E7E7E",
"5 c gray57",
"6 c #717171",
"7 c gray53",
"8 c #797979",
"9 c #DADADA",
"0 c #D0D0D0",
"q c gray71",
"w c gray30",
"e c #A2A2A2",
"r c #C1C1C1",
/* pixels */
"990----------------------------------------------------------rqe",
"990>q>>>>>>>>>>>>>>>>>>>>>>>>>>>>>>>>>>>>>>>>>>>>>>>>>>>>>>::qe3",
"007w;1,,,,,,,,,,,,,,,,,,,,,,,,,,,,,,,,,,,,,,,,,,,,,,,,,,,,,,477,",
"-:;w18,,$$$$$$$$$$$$$$$$$$$$$$$$$$$$$$$$$$$$$$$$$$$$$$$$$$$$$542",
"-:2;354+O                                                   #=3;",
"-:12354+O                                                   #%<;",
"-:12354+O                                                   #%<;",
"-:12354+O                                                   #%<;",
"-:12354+O                                                   #%<;",
"-:12354+O                                                   #%<;",
"-:12354+O                                                   #%<;",
"-:12354+O                                                   #%<;",
"-:12354+O                                                   #%<;",
"-:12354+O                                                   #%<;",
"-:12354+O                                                   #%<;",
"-:12354+O                                                   #%<;",
"-:12354+O                                                   #%<;",
"-:12354+O                                                   #%<;",
"-:12354+O                                                   #%<;",
"-:12354+O                                                   #%<;",
"-:12354+O                                                   #%<;",
"-:12354+O                                                   #%<;",
"-:12354+O                                                   #%<;",
"-:12354+O                                                   #%<;",
"-:12354+O                                                   #%<;",
"-:12354+O                                                   #%<;",
"-:12354+O                                                   #%<;",
"-:12354+O                                                   #%<;",
"-:12354+O                                                   #%<;",
"-:12354+O                                                   #%<;",
"-:12354+O                                                   #%<;",
"-:12354+O                                                   #%<;",
"-:12354+O                                                   #%<;",
"-:12354+O                                                   #%<;",
"-:12354+O                                                   #%<;",
"-:12354+O                                                   #%<;",
"-:12354+O                                                   #%<;",
"-:12354+O                                                   #%<;",
"-:12354+O                                                   #%<;",
"-:12354+O                                                   #%<;",
"-:12354+O                                                   #%<;",
"-:12354+O                                                   #%<;",
"-:12354+O                                                   #%<;",
"-:12354+O                                                   #%<;",
"-:12354+O                                                   #%<;",
"-:12354+O                                                   #%<;",
"-:12354+O                                                   #%<;",
"-:12354+O                                                   #%<;",
"-:12338+o                                                   #%<;",
"-:12372$                                                    #%<;",
"-:1238@X                                                    #%<;",
"-:128;&                                                     #%<;",
"-:628;&                                                     #%<;",
"-:6;8;&                                                     #%<;",
"-:68;&                                                      #%<;",
"-:68;&                                                      #%<;",
"-:8;&                                                       #%<;",
"-:8;&                                                       #%<;",
"-:6@O                                                       #%<;",
"-:6@O                                                       #%<;",
"-:6@O                                                       #%<;",
"-:6@O                                                       #%<;",
"-:6@O                                                       #%<;",
"-:6@O                                                       #%<;"
};
