/* XPM */
static char *_ad3a05a742b4bc2e14835906b9ad8d82r0SWKD5bNPAoRop[] = {
/* columns rows colors chars-per-pixel */
"64 64 45 1 ",
"  c None",
". c #E1E1E1",
"X c #5F5F5F",
"o c gray64",
"O c #6D6D6D",
"+ c #D0D0D0",
"@ c gray40",
"# c gray42",
"$ c #D7D7D7",
"% c gray84",
"& c #DFDFDF",
"* c gray40",
"= c #585858",
"- c #555555",
"; c #4E4E4E",
": c #E4E4E4",
"> c #E1E1E1",
", c #DFDFDF",
"< c gainsboro",
"1 c gray87",
"2 c #CCC670",
"3 c #939393",
"4 c gray80",
"5 c #C6C6C6",
"6 c gray44",
"7 c #CBCBCB",
"8 c gray56",
"9 c gray40",
"0 c #686868",
"q c #B9B9B9",
"w c #C5C5C5",
"e c gray59",
"r c gray81",
"t c gray72",
"y c LightGray",
"u c gray57",
"i c #7E7E7E",
"p c #717171",
"a c gray49",
"s c #9B9B9B",
"d c gray82",
"f c gray52",
"g c gray47",
"h c gray30",
"j c #47704C",
/* pixels */
"++r7555555555555555555555555555555555555555555555555555555555wts",
"++rttttttttttttttttttttttttttttttttttttttttttttttttttttttttqqts8",
"rd8h96pppppppppppppppppppppppppppppppppppppp666666666666666paffg",
"7q9h6aaaaaaaaaaaaaaaaaaaaaaaaaaaaap*@@@@@@@@sssssssssssssssssei0",
"5t0983333333333333333333333333333uiO#      $%yrrrrrrrrrrrrrr7q89",
"5q6983333333333333333333333333333uiO#      $%d444444444444447we9",
"5q6083333333333333333333333333333uiO#      $%d444444444444447we9",
"5q6083333333333333333333333333333uiO#      $%d444444444444447we9",
"5q6083333333333333333333333333333uiO#      $%d444444444444447we9",
"5q6083333333333333333333333333333uiO#      $%d444444444444447we9",
"5q6083333333333333333333333333333uiO#      $%d444444444444447we9",
"5q6083333333333333333333333333333uiO#      $%d444444444444447we9",
"5q6083333333333333333333333333333uiO#      $%d444444444444447we9",
"5q6083333333333333333333333333333uiO#      $%d444444444444447we9",
"5q6083333333333333333333333333333uiO#      $%d444444444444447we9",
"5q6083333333333333333333333333333uiO#      $%d444444444444447we9",
"5q6083333333333333333333333333333uiO#      $%d444444444444447we9",
"5q6083333333333333333333333333333uiO#      $%d444444444444447we9",
"5q6083333333333333333333333333333uiO#      $%d444444444444447we9",
"5q6083333333333333333333333333333uiO#      $%d444444444444447we9",
"5q6083333333333333333333333333333uiO#      $%d444444444444447we9",
"5q6083333333333333333333333333333uiO#      $%d444444444444447we9",
"5q6083333333333333333333333333333uiO#      $%d444444444444447we9",
"5q6083333333333333333333333333333uiO#      $%d444444444444447we9",
"5q6083333333333333333333333333333uiO#      $%d444444444444447we9",
"5q6083333333333333333333333333333uiO#      $%d444444444444447we9",
"5q6083333333333333333333333333333uiO#      $%d444444444444447we9",
"5q6083333333333333333333333333333uiO#      $%d444444444444447we9",
"5q6083333333333333333333333333333uiO#      $%d444444444444447we9",
"5q6083333333333333333333333333333uiO#      $%d444444444444447we9",
"5q6083333333333333333333333333333uiO#      $%d444444444444447we9",
"5q6083333333333333333333333333333uiO#      $%d444444444444447we9",
"5q6083333333333333333333333333333uiO#      $%d444444444444447we9",
"5q6083333333333333333333333333333uiO#      $%d444444444444447we9",
"5q6083333333333333333333333333333uiO#      $%d444444444444447we9",
"5q6083333333333333333333333333333uiO#      $%d444444444444447we9",
"5q6083333333333333333333333333333uiO#      $%d444444444444447we9",
"5q6083333333333333333333333333333uiO#      $%d444444444444447we9",
"5q6083333333333333333333333333333uiO#      $%d444444444444447we9",
"5q6083333333333333333333333333333uiO#      $%d444444444444447we9",
"5q6083333333333333333333333333333uiO#      $%d444444444444447we9",
"5q6083333333333333333333333333333uiO#      $%d444444444444447we9",
"5q6083333333333333333333333333333uiO#      $%d444444444444447we9",
"5q6083333333333333333333333333333uiO#      $%d444444444444447we9",
"5q6083333333333333333333333333333uiO#      $%d444444444444447we9",
"5q6083333333333333333333333333333uiO#      $%d444444444444447we9",
"5q6083333333333333333333333333333uiO#      $%d444444444444447we9",
"5q6083333333333333333333333333333uaO#      $%y444444444444447we9",
"5q60833333333333333333333333333338gX#      .+d444444444444447we9",
"5q6083333333333333333333333333333f0-      o&+4744444444444447we9",
"5q6083333333333333333333333333338gX;      .<d7444444444444447we9",
"5q60833333333333333333333333333u86=       ,+r7444444444444447we9",
"5q60833333333333333333333333333ui*;      :1y44444444444444447we9",
"5q6083333333333333333333333333u86=o      >+r74444444444444447we9",
"5q60833333333333333333333333333f*-      $&y444444444444444447we9",
"5q60833333333333333333333333338gX#      .+d444444444444444447we9",
"5q6083333333333333333333333333f0-      o&+4744444444444444447we9",
"5q6083333333333333333333333338gX;      .<d7444444444444444447we9",
"5q60833333333333333333333333386=       ,+r7444444444444444447we9",
"5q60833333333333333333333333ui*;      :1y44444444444444444447we9",
"5q6083333333333333333333333386=o      >+r74444444444444444447we9",
"5q6083333333333333333333333uf*-      $&y444444444444444444447we9",
"5q60833333333333333333333338gX#      .+d444444444444444444447we9",
"5q6083333333333333333333333f0@      o&+r744444444444444444447we9"
};
