/* XPM */
static char *_e562422229e4a4c977e2ac8d3989d85zH1ST3pdfkHMh41T[] = {
/* columns rows colors chars-per-pixel */
"64 64 20 1 ",
"  c None",
". c gray81",
"X c #909090",
"o c gray83",
"O c gray44",
"+ c #CBCBCB",
"@ c #C6C6C6",
"# c #939393",
"$ c gray80",
"% c #676767",
"& c #C5C5C5",
"* c #B9B9B9",
"= c gray59",
"- c gray72",
"; c gray47",
": c #7E7E7E",
"> c gray49",
", c #9B9B9B",
"< c #888888",
"1 c gray30",
/* pixels */
"oo.+@@@@@@@@@@@@@@@@@@@@@@@@@@@@@@@@@@@@@@@@@@@@@@@@@@@@@@@@@&-,",
"oo.--------------------------------------------------------**-,<",
".o<1%OOOOOOOOOOOOOOOOOOOOOOOOOOOOOOOOOOOOOOOOOOOOOOOOOOOOOOO><:;",
"+*%1O>>>>>>>>>>>>>>>>>>>>>>>>>>>>>>>>:OO,,,,,,,,,,,,,,,,,,,,,=:%",
"@-%%X#################################:;$o..................+*X%",
"@*O%X################################X:;+o$$$$$$$$$$$$$$$$$$+&=%",
"@*O%X################################X:;+o$$$$$$$$$$$$$$$$$$+&=%",
"@*O%X################################X:;+o$$$$$$$$$$$$$$$$$$+&=%",
"@*O%X################################X:;+o$$$$$$$$$$$$$$$$$$+&=%",
"@*O%X################################X:;+o$$$$$$$$$$$$$$$$$$+&=%",
"@*O%X################################X:;+o$$$$$$$$$$$$$$$$$$+&=%",
"@*O%X################################X:;+o$$$$$$$$$$$$$$$$$$+&=%",
"@*O%X################################X:;+o$$$$$$$$$$$$$$$$$$+&=%",
"@*O%X################################X:;+o$$$$$$$$$$$$$$$$$$+&=%",
"@*O%X################################X:;+o$$$$$$$$$$$$$$$$$$+&=%",
"@*O%X################################X:;+o$$$$$$$$$$$$$$$$$$+&=%",
"@*O%X################################X:;+o$$$$$$$$$$$$$$$$$$+&=%",
"@*O%X################################X:;+o$$$$$$$$$$$$$$$$$$+&=%",
"@*O%X################################X:;+o$$$$$$$$$$$$$$$$$$+&=%",
"@*O%X################################X:;+o$$$$$$$$$$$$$$$$$$+&=%",
"@*O%X################################X:;+o$$$$$$$$$$$$$$$$$$+&=%",
"@*O%X################################X:;+o$$$$$$$$$$$$$$$$$$+&=%",
"@*O%X################################X:;+o$$$$$$$$$$$$$$$$$$+&=%",
"@*O%X################################X:;+o$$$$$$$$$$$$$$$$$$+&=%",
"@*O%X################################X:;+o$$$$$$$$$$$$$$$$$$+&=%",
"@*O%X################################X:;+o$$$$$$$$$$$$$$$$$$+&=%",
"@*O%X################################X:;+o$$$$$$$$$$$$$$$$$$+&=%",
"@*O%X################################X:;+o$$$$$$$$$$$$$$$$$$+&=%",
"@*O%X################################X:;+o$$$$$$$$$$$$$$$$$$+&=%",
"@*O%X################################X:;+o$$$$$$$$$$$$$$$$$$+&=%",
"@*O%X################################X:;+o$$$$$$$$$$$$$$$$$$+&=%",
"@*O%X################################X:;+o$$$$$$$$$$$$$$$$$$+&=%",
"@*O%X################################X:;+o$$$$$$$$$$$$$$$$$$+&=%",
"@*O%X################################X:;+o$$$$$$$$$$$$$$$$$$+&=%",
"@*O%X################################X:;+o$$$$$$$$$$$$$$$$$$+&=%",
"@*O%X################################X:;+o$$$$$$$$$$$$$$$$$$+&=%",
"@*O%X################################X:;+o$$$$$$$$$$$$$$$$$$+&=%",
"@*O%X################################X:;+o$$$$$$$$$$$$$$$$$$+&=%",
"@*O%X################################X:;+o$$$$$$$$$$$$$$$$$$+&=%",
"@*O%X################################X:;+o$$$$$$$$$$$$$$$$$$+&=%",
"@*O%X################################X:;+o$$$$$$$$$$$$$$$$$$+&=%",
"@*O%X################################X:;+o$$$$$$$$$$$$$$$$$$+&=%",
"@*O%X################################X:;+o$$$$$$$$$$$$$$$$$$+&=%",
"@*O%X################################X:;+o$$$$$$$$$$$$$$$$$$+&=%",
"@*O%X################################X:;+o$$$$$$$$$$$$$$$$$$+&=%",
"@*O%X################################X:;+o$$$$$$$$$$$$$$$$$$+&=%",
"@*O%X################################X:;+o$$$$$$$$$$$$$$$$$$+&=%",
"@*O%X################################X>;$o$$$$$$$$$$$$$$$$$$+&=%",
"@*O%X################################X;>.o$$$$$$$$$$$$$$$$$$+&=%",
"@*O%X################################<%,o$+$$$$$$$$$$$$$$$$$+&=%",
"@*O%X###############################X;O&o+$$$$$$$$$$$$$$$$$$+&=%",
"@*O%X###############################<OXo.+$$$$$$$$$$$$$$$$$$+&=%",
"@*O%X##############################X:%-o$$$$$$$$$$$$$$$$$$$$+&=%",
"@*O%X##############################<O:o.+$$$$$$$$$$$$$$$$$$$+&=%",
"@*O%X##############################<% o$$$$$$$$$$$$$$$$$$$$$+&=%",
"@*O%X#############################X;;.o$$$$$$$$$$$$$$$$$$$$$+&=%",
"@*O%X#############################<%,o$+$$$$$$$$$$$$$$$$$$$$+&=%",
"@*O%X############################X;O&o+$$$$$$$$$$$$$$$$$$$$$+&=%",
"@*O%X############################<OXo.+$$$$$$$$$$$$$$$$$$$$$+&=%",
"@*O%X###########################X:%-o$$$$$$$$$$$$$$$$$$$$$$$+&=%",
"@*O%X###########################<O:o.+$$$$$$$$$$$$$$$$$$$$$$+&=%",
"@*O%X###########################<% o$$$$$$$$$$$$$$$$$$$$$$$$+&=%",
"@*O%X##########################X;;.o$$$$$$$$$$$$$$$$$$$$$$$$+&=%",
"@*O%X##########################<%,o.+$$$$$$$$$$$$$$$$$$$$$$$+&=%"
};
