/* XPM */
static char *_f129a7959f941b1900168edc2699d12uiv8jOrYfTbZnvxT[] = {
/* columns rows colors chars-per-pixel */
"64 64 47 1 ",
"  c None",
". c #4E4E4E",
"X c #5D5D5D",
"o c #5D5D5D",
"O c #6D6D6D",
"+ c #676767",
"@ c #D0D0D0",
"# c gray76",
"$ c gray42",
"% c gray77",
"& c #555555",
"* c #5F5F5F",
"= c #DFDFDF",
"- c gray30",
"; c #656565",
": c #555555",
"> c #ECECEC",
", c #676767",
"< c gainsboro",
"1 c #DDDDDD",
"2 c gray77",
"3 c gray87",
"4 c #E2E2E2",
"5 c #E4E4E4",
"6 c #E1E1E1",
"7 c #B6B6B6",
"8 c #939393",
"9 c #C6C6C6",
"0 c gray44",
"q c gray56",
"w c #B9B9B9",
"e c #686868",
"r c gray40",
"t c gray72",
"y c #7E7E7E",
"u c gray59",
"i c gray57",
"p c #727272",
"a c #888888",
"s c #D0D0D0",
"d c gray58",
"f c gray47",
"g c #CACACA",
"h c gray42",
"j c gray30",
"k c #A2A2A2",
"l c #676767",
/* pixels */
"@@sg9999999999999999999999999999999999999999999999999999999992tk",
"@@sttttttttttttttttttttttttttttttttttttttttttttttttttttttttwwtkq",
"ssajr000000000ppppppppppppppppppppppppppppppppppppppppppppppyayf",
"gwrjhfyyyyyyyyp;+++++++++++++++++++++++++++++++++++++++++++++dye",
"9thrqddddddddiyO$                                           #7qr",
"9w0lq88888888iyO$                                           #%ur",
"9w0eq88888888iyO$                                           #%ur",
"9w0eq88888888iyO$                                           #%ur",
"9w0eq88888888iyO$                                           #%ur",
"9w0eq88888888iyO$                                           #%ur",
"9w0eq88888888iyO$                                           #%ur",
"9w0eq88888888iyO$                                           #%ur",
"9w0eq88888888iyO$                                           #%ur",
"9w0eq88888888iyO$                                           #%ur",
"9w0eq88888888iyO$                                           #%ur",
"9w0eq88888888iyO$                                           #%ur",
"9w0eq88888888iyO$                                           #%ur",
"9w0eq88888888iyO$                                           #%ur",
"9w0eq88888888iyO$                                           #%ur",
"9w0eq88888888iyO$                                           #%ur",
"9w0eq88888888iyO$                                           #%ur",
"9w0eq88888888iyO$                                           #%ur",
"9w0eq88888888iyO$                                           #%ur",
"9w0eq88888888iyO$                                           #%ur",
"9w0eq88888888iyO$                                           #%ur",
"9w0eq88888888iyO$                                           #%ur",
"9w0eq88888888iyO$                                           #%ur",
"9w0eq88888888iyO$                                           #%ur",
"9w0eq88888888iyO$                                           #%ur",
"9w0eq88888888iyO$                                           #%ur",
"9w0eq88888888iyO$                                           #%ur",
"9w0eq88888888iyO$                                           #%ur",
"9w0eq88888888iyO$                                           #%ur",
"9w0eq88888888iyO$                                           #%ur",
"9w0eq88888888iyO$                                           #%ur",
"9w0eq88888888iyO$                                           #%ur",
"9w0eq88888888iyO$                                           #%ur",
"9w0eq88888888iyO$                                           #%ur",
"9w0eq88888888iyO$                                           #%ur",
"9w0eq88888888iyO$                                           #%ur",
"9w0eq88888888iyO$                                           #%ur",
"9w0eq88888888iyO$                                           #%ur",
"9w0eq88888888iyO$                                           #%ur",
"9w0eq88888888iyO$                                           #%ur",
"9w0eq88888888iyO$                                           #%ur",
"9w0eq88888888iyO$                                           #%ur",
"9w0eq88888888iyO$                                           #%ur",
"9w0eq88888888iyO$                                           #%ur",
"9w0eq88888888qfX-                                           #%ur",
"9w0eq8888888iah&                                            #%ur",
"9w0eq8888888qf*.                                            #%ur",
"9w0eq888888da0o                                             #%ur",
"9w0eq888888iy;.                                             #%ur",
"9w0eq88888da0X-                                             #%ur",
"9w0eq888888a,:                                              #%ur",
"9w0eq88888qf*$                                              12ur",
"9w0eq88888ae&                                              >=9ur",
"9w0eq8888qf*.                                              4<9ur",
"9w0eq8888a0o                                               =@9ur",
"9w0eq888iy;.                                              5<s9ur",
"9w0eq888a0X-                                              6@s9ur",
"9w0eq888a,:                                              #3@g9ur",
"9w0eq88qfX$                                              1@sg9ur",
"9w0eq88ae&                                              >=@sg9ur"
};
