/* XPM */
static char *_278b69daac841928e4de4834be59e29dc8sLJ1GKXvRLJII[] = {
/* columns rows colors chars-per-pixel */
"64 64 42 1 ",
"  c None",
". c gray64",
"X c #5D5D5D",
"o c #DFDFDF",
"O c gray84",
"+ c #D0D0D0",
"@ c #676767",
"# c #6A6A6A",
"$ c #6C6C6C",
"% c #D7D7D7",
"& c gray89",
"* c gray32",
"= c gray88",
"- c #E1E1E1",
"; c #555555",
": c #585858",
"> c gray87",
", c #6D6D6D",
"< c #676767",
"1 c gray40",
"2 c #CC67B9",
"3 c #939393",
"4 c gray80",
"5 c #676767",
"6 c #B9B9B9",
"7 c gray44",
"8 c #C6C6C6",
"9 c #CBCBCB",
"0 c gray56",
"q c #C5C5C5",
"w c gray59",
"e c #CDCDCD",
"r c LightGray",
"t c gray57",
"y c #7E7E7E",
"u c gray49",
"i c gray61",
"p c #D0D0D0",
"a c gray52",
"s c gray47",
"d c gray30",
"f c #47704C",
/* pixels */
"ppp9888888888888888888888888888888888888888888888888888888888q6i",
"ppp66666666666666666666666666666666666666666666666666666666666i0",
"pr0d57777777777777777777777777777777777777777777777777777777uaas",
"965d7uuuuuuuuuuuuuuuuuuuuuuuuu77,<@@@@@@@@@@@@<,iiiiiiiiiiiiiwy5",
"86550333333333333333333333333ty$#              %Orpeeeeeeeee9605",
"86750333333333333333333333333ty$#              %Ore4444444449qw5",
"86750333333333333333333333333ty$#              %Ore4444444449qw5",
"86750333333333333333333333333ty$#              %Ore4444444449qw5",
"86750333333333333333333333333ty$#              %Ore4444444449qw5",
"86750333333333333333333333333ty$#              %Ore4444444449qw5",
"86750333333333333333333333333ty$#              %Ore4444444449qw5",
"86750333333333333333333333333ty$#              %Ore4444444449qw5",
"86750333333333333333333333333ty$#              %Ore4444444449qw5",
"86750333333333333333333333333ty$#              %Ore4444444449qw5",
"86750333333333333333333333333ty$#              %Ore4444444449qw5",
"86750333333333333333333333333ty$#              %Ore4444444449qw5",
"86750333333333333333333333333ty$#              %Ore4444444449qw5",
"86750333333333333333333333333ty$#              %Ore4444444449qw5",
"86750333333333333333333333333ty$#              %Ore4444444449qw5",
"86750333333333333333333333333ty$#              %Ore4444444449qw5",
"86750333333333333333333333333ty$#              %Ore4444444449qw5",
"86750333333333333333333333333ty$#              %Ore4444444449qw5",
"86750333333333333333333333333ty$#              %Ore4444444449qw5",
"86750333333333333333333333333ty$#              %Ore4444444449qw5",
"86750333333333333333333333333ty$#              %Ore4444444449qw5",
"86750333333333333333333333333ty$#              %Ore4444444449qw5",
"86750333333333333333333333333ty$#              %Ore4444444449qw5",
"86750333333333333333333333333ty$#              %Ore4444444449qw5",
"86750333333333333333333333333ty$#              %Ore4444444449qw5",
"86750333333333333333333333333ty$#              %Ore4444444449qw5",
"86750333333333333333333333333ty$#              %Ore4444444449qw5",
"86750333333333333333333333333ty$#              %Ore4444444449qw5",
"86750333333333333333333333333ty$#              %Ore4444444449qw5",
"86750333333333333333333333333ty$#              %Ore4444444449qw5",
"86750333333333333333333333333ty$#              %Ore4444444449qw5",
"86750333333333333333333333333ty$#              %Ore4444444449qw5",
"86750333333333333333333333333ty$#              %Ore4444444449qw5",
"86750333333333333333333333333ty$#              %Ore4444444449qw5",
"86750333333333333333333333333ty$#              %Ore4444444449qw5",
"86750333333333333333333333333ty$#              %Ore4444444449qw5",
"86750333333333333333333333333ty$#              %Ore4444444449qw5",
"86750333333333333333333333333ty$#              %Ore4444444449qw5",
"86750333333333333333333333333ty$#              %Ore4444444449qw5",
"86750333333333333333333333333ty$#              %Ore4444444449qw5",
"86750333333333333333333333333ty$#              %Ore4444444449qw5",
"86750333333333333333333333333ty$#              %Ore4444444449qw5",
"86750333333333333333333333333ty$#              %Ore4444444449qw5",
"86750333333333333333333333333tu$#              %Ore4444444449qw5",
"867503333333333333333333333330sX#              -pp44444444449qw5",
"86750333333333333333333333333a5;              .ope94444444449qw5",
"86750333333333333333333333330s$#              &pr944444444449qw5",
"867503333333333333333333333t07:              .=pp944444444449qw5",
"867503333333333333333333333ty5*              &>r4444444444449qw5",
"86750333333333333333333333t07X.              =pp9444444444449qw5",
"867503333333333333333333333a5*              %or44444444444449qw5",
"867503333333333333333333330sX#              -pr44444444444449qw5",
"86750333333333333333333333a5;              .ope94444444444449qw5",
"86750333333333333333333330s$#              &pr944444444444449qw5",
"867503333333333333333333307:               =pp944444444444449qw5",
"867503333333333333333333ty5*              &>r4444444444444449qw5",
"86750333333333333333333307X.              =pp9444444444444449qw5",
"86750333333333333333333ta5*              %or44444444444444449qw5",
"867503333333333333333330sX#              -pr44444444444444449qw5",
"86750333333333333333333a5;              .ope94444444444444449qw5"
};
