/* XPM */
static char *d58d74020eed4e4485f312ba418f8a28SrUir3VDE4HN9zEA[] = {
/* columns rows colors chars-per-pixel */
"64 64 55 1 ",
"  c None",
". c #E1E1E1",
"X c #5F5F5F",
"o c gray64",
"O c gray84",
"+ c #676767",
"@ c #D0D0D0",
"# c gray42",
"$ c #D7D7D7",
"% c #6D6D6D",
"& c gray40",
"* c #585858",
"= c gray32",
"- c #555555",
"; c gray88",
": c #E4E4E4",
"> c gray87",
", c #E1E1E1",
"< c gainsboro",
"1 c #DFDFDF",
"2 c gray87",
"3 c #4E4E4E",
"4 c gray85",
"5 c gray61",
"6 c #E2E2E2",
"7 c #939393",
"8 c gray80",
"9 c #C6C6C6",
"0 c #CBCBCB",
"q c gray44",
"w c gray40",
"e c gray56",
"r c #B9B9B9",
"t c #C5C5C5",
"y c #686868",
"u c gray59",
"i c gray72",
"p c LightGray",
"a c gray57",
"s c #CDCDCD",
"d c #7E7E7E",
"f c #727272",
"g c gray58",
"h c gray49",
"j c #717171",
"k c #888888",
"l c #D0D0D0",
"z c #777777",
"x c gray61",
"c c gray48",
"v c gray30",
"b c gray42",
"n c #A2A2A2",
"m c #676767",
"M c #47704C",
/* pixels */
"@@l0999999999999999999999999999999999999999999999999999999999tin",
"@@liiiiiiiiiiiiiiiiiiiiiiiiiiiiiiiiiiiiiiiiiiiiiiiiiiiiiiiirrine",
"lpkvwqjjjjjjjjjjjjjjjjffffffffffffffffffffffffffffffffffqqqfhkdz",
"0rwvbchhhhhhhhhhhhhhhhf&++++++++++++++++++++++++++++++++5xxxxudy",
"9ibweggggggggggggggggad%#                              $4pls0rew",
"9rqme7777777777777777ad%#                              $Ops80tgw",
"9rqye7777777777777777ad%#                              $Ops80tuw",
"9rqye7777777777777777ad%#                              $Ops80tuw",
"9rqye7777777777777777ad%#                              $Ops80tuw",
"9rqye7777777777777777ad%#                              $Ops80tuw",
"9rqye7777777777777777ad%#                              $Ops80tuw",
"9rqye7777777777777777ad%#                              $Ops80tuw",
"9rqye7777777777777777ad%#                              $Ops80tuw",
"9rqye7777777777777777ad%#                              $Ops80tuw",
"9rqye7777777777777777ad%#                              $Ops80tuw",
"9rqye7777777777777777ad%#                              $Ops80tuw",
"9rqye7777777777777777ad%#                              $Ops80tuw",
"9rqye7777777777777777ad%#                              $Ops80tuw",
"9rqye7777777777777777ad%#                              $Ops80tuw",
"9rqye7777777777777777ad%#                              $Ops80tuw",
"9rqye7777777777777777ad%#                              $Ops80tuw",
"9rqye7777777777777777ad%#                              $Ops80tuw",
"9rqye7777777777777777ad%#                              $Ops80tuw",
"9rqye7777777777777777ad%#                              $Ops80tuw",
"9rqye7777777777777777ad%#                              $Ops80tuw",
"9rqye7777777777777777ad%#                              $Ops80tuw",
"9rqye7777777777777777ad%#                              $Ops80tuw",
"9rqye7777777777777777ad%#                              $Ops80tuw",
"9rqye7777777777777777ad%#                              $Ops80tuw",
"9rqye7777777777777777ad%#                              $Ops80tuw",
"9rqye7777777777777777ad%#                              $Ops80tuw",
"9rqye7777777777777777ad%#                              $Ops80tuw",
"9rqye7777777777777777ad%#                              $Ops80tuw",
"9rqye7777777777777777ad%#                              $Ops80tuw",
"9rqye7777777777777777ad%#                              $Ops80tuw",
"9rqye7777777777777777ad%#                              $Ops80tuw",
"9rqye7777777777777777ad%#                              $Ops80tuw",
"9rqye7777777777777777ad%#                              $Ops80tuw",
"9rqye7777777777777777ad%#                              $Ops80tuw",
"9rqye7777777777777777ad%#                              $Ops80tuw",
"9rqye7777777777777777ad%#                              $Ops80tuw",
"9rqye7777777777777777ad%#                              $Ops80tuw",
"9rqye7777777777777777ad%#                              $Ops80tuw",
"9rqye7777777777777777ad%#                              $Ops80tuw",
"9rqye7777777777777777ad%#                              $Ops80tuw",
"9rqye7777777777777777ad%#                              $Ops80tuw",
"9rqye7777777777777777ad%#                              $Ops80tuw",
"9rqye7777777777777777ah%#                              $4ps80tuw",
"9rqye7777777777777777ezX#                              .@l880tuw",
"9rqye777777777777777akb-                              o;@s080tuw",
"9rqye777777777777777ecX3                              6<p0880tuw",
"9rqye77777777777777gkq*                               1@l0880tuw",
"9rqye77777777777777ad&=                              :>p88880tuw",
"9rqye7777777777777gkq*o                              ,@l08880tuw",
"9rqye77777777777777k&=                              $2p888880tuw",
"9rqye7777777777777ezX#                              .@p888880tuw",
"9rqye7777777777777ky-                              o;@s088880tuw",
"9rqye777777777777ecX3                              6<p0888880tuw",
"9rqye777777777777kq*                               1@l0888880tuw",
"9rqye77777777777ad&=                              :>p88888880tuw",
"9rqye77777777777kq*o                              ,@l08888880tuw",
"9rqye77777777777k&=                              $2p888888880tuw",
"9rqye7777777777ezX#                              .@p888888880tuw",
"9rqye7777777777ky-                              o;@s088888880tuw"
};
