/* XPM */
static char *_33f22cf70ed40cdd331ff428c0d22f7CRUqSMTrC1Lp2JUm[] = {
/* columns rows colors chars-per-pixel */
"64 64 30 1 ",
"  c None",
". c None",
"X c #5D5D5D",
"o c #4E4E4E",
"O c gray42",
"+ c #6D6D6D",
"@ c #5D5D5D",
"# c gray77",
"$ c #C1C1C1",
"% c #676767",
"& c #555555",
"* c gray30",
"= c #939393",
"- c #C6C6C6",
"; c #686868",
": c gray44",
"> c gray40",
", c #B9B9B9",
"< c gray56",
"1 c gray72",
"2 c #727272",
"3 c gray59",
"4 c #7E7E7E",
"5 c gray57",
"6 c #D5D5D5",
"7 c gray47",
"8 c #868686",
"9 c gray30",
"0 c #C1C1C1",
"q c #A2A2A2",
/* pixels */
"666----------------------------------------------------------01q",
"66611111111111111111111111111111111111111111111111111111111,,1q<",
"66<9>:::::222222222222222222222222222222222222222222222222224887",
"-,>9:7444422%%%%%%%%%%%%%%%%%%%%%%%%%%%%%%%%%%%%%%%%%%%%%%%%%=4;",
"-,;><====54+O                                               $#<>",
"-,:><====54+O                                               $#3>",
"-,:;<====54+O                                               $#3>",
"-,:;<====54+O                                               $#3>",
"-,:;<====54+O                                               $#3>",
"-,:;<====54+O                                               $#3>",
"-,:;<====54+O                                               $#3>",
"-,:;<====54+O                                               $#3>",
"-,:;<====54+O                                               $#3>",
"-,:;<====54+O                                               $#3>",
"-,:;<====54+O                                               $#3>",
"-,:;<====54+O                                               $#3>",
"-,:;<====54+O                                               $#3>",
"-,:;<====54+O                                               $#3>",
"-,:;<====54+O                                               $#3>",
"-,:;<====54+O                                               $#3>",
"-,:;<====54+O                                               $#3>",
"-,:;<====54+O                                               $#3>",
"-,:;<====54+O                                               $#3>",
"-,:;<====54+O                                               $#3>",
"-,:;<====54+O                                               $#3>",
"-,:;<====54+O                                               $#3>",
"-,:;<====54+O                                               $#3>",
"-,:;<====54+O                                               $#3>",
"-,:;<====54+O                                               $#3>",
"-,:;<====54+O                                               $#3>",
"-,:;<====54+O                                               $#3>",
"-,:;<====54+O                                               $#3>",
"-,:;<====54+O                                               $#3>",
"-,:;<====54+O                                               $#3>",
"-,:;<====54+O                                               $#3>",
"-,:;<====54+O                                               $#3>",
"-,:;<====54+O                                               $#3>",
"-,:;<====54+O                                               $#3>",
"-,:;<====54+O                                               $#3>",
"-,:;<====54+O                                               $#3>",
"-,:;<====54+O                                               $#3>",
"-,:;<====54+O                                               $#3>",
"-,:;<====54+O                                               $#3>",
"-,:;<====54+O                                               $#3>",
"-,:;<====54+O                                               $#3>",
"-,:;<====54+O                                               $#3>",
"-,:;<====54+O                                               $#3>",
"-,:;<====54+O                                               $#3>",
"-,:;<====<7@*                                               $#3>",
"-,:;<====8;&                                                $#3>",
"-,:;<===<8;&                                                $#3>",
"-,:;<==58;&                                                 $#3>",
"-,:;<==58;&                                                 $#3>",
"-,:;<=5<8;&                                                 $#3>",
"-,:;<==8;&                                                  $#3>",
"-,:;<=<8;&                                                  $#3>",
"-,:;<=8;&                                                   $#3>",
"-,:;<58;&                                                   $#3>",
"-,:;<8;&                                                    $#3>",
"-,:;<8;&                                                    $#3>",
"-,:;88;&                                                    $#3>",
"-,:;8;&                                                     $#3>",
"-,:>2@O                                                     $#3>",
"-,:>;%                                                      $#3>"
};
