/* XPM */
static char *_028de73be1b4180801214998f782383UU6XGNU35LqsWmYq[] = {
/* columns rows colors chars-per-pixel */
"64 64 28 1 ",
"  c None",
". c #B6B6B6",
"X c gray35",
"o c #4E4E4E",
"O c #C1C1C1",
"+ c gray77",
"@ c None",
"# c gray45",
"$ c gray39",
"% c #676767",
"& c gray",
"* c gray48",
"= c #929292",
"- c #C6C6C6",
"; c #B9B9B9",
": c gray72",
"> c gray40",
", c #717171",
"< c #727272",
"1 c gray59",
"2 c #DADADA",
"3 c #D0D0D0",
"4 c gray55",
"5 c #818181",
"6 c gray35",
"7 c gray79",
"8 c #C1C1C1",
"9 c #A2A2A2",
/* pixels */
"2237---------------------------------------------------------8:9",
"223::::::::::::::::::::::::::::::::::::::::::::::::::::::::;;:94",
"33466<<<<<<<<<<<<<<<<<<<<<<<<<<<<<<<<<<<<<<<<<<<<<<<<<<<<<<<545<",
"7;>$%%%%%%%%%%%%%%%%%%%%%%%%%%%%%%%%%%%%%%%%%%%%%%%%%%%%%%%%*=5>",
"-:>$#                                                       &.4>",
"-;,$#                                                       O+1>",
"-;,$#                                                       O+1>",
"-;,$#                                                       O+1>",
"-;,$#                                                       O+1>",
"-;,$#                                                       O+1>",
"-;,$#                                                       O+1>",
"-;,$#                                                       O+1>",
"-;,$#                                                       O+1>",
"-;,$#                                                       O+1>",
"-;,$#                                                       O+1>",
"-;,$#                                                       O+1>",
"-;,$#                                                       O+1>",
"-;,$#                                                       O+1>",
"-;,$#                                                       O+1>",
"-;,$#                                                       O+1>",
"-;,$#                                                       O+1>",
"-;,$#                                                       O+1>",
"-;,$#                                                       O+1>",
"-;,$#                                                       O+1>",
"-;,$#                                                       O+1>",
"-;,$#                                                       O+1>",
"-;,$#                                                       O+1>",
"-;,$#                                                       O+1>",
"-;,$#                                                       O+1>",
"-;,$#                                                       O+1>",
"-;,$#                                                       O+1>",
"-;,$#                                                       O+1>",
"-;,$#                                                       O+1>",
"-;,$#                                                       O+1>",
"-;,$#                                                       O+1>",
"-;,$#                                                       O+1>",
"-;,$#                                                       O+1>",
"-;,$#                                                       O+1>",
"-;,$#                                                       O+1>",
"-;,$#                                                       O+1>",
"-;,$#                                                       O+1>",
"-;,$#                                                       O+1>",
"-;,$#                                                       O+1>",
"-;,$#                                                       O+1>",
"-;,$#                                                       O+1>",
"-;,$#                                                       O+1>",
"-;,$#                                                       O+1>",
"-;,$#                                                       O+1>",
"-;,$#                                                       O+1>",
"-;,$#                                                       O+1>",
"-;,$#                                                       O+1>",
"-;,$#                                                       O+1>",
"-;,$#                                                       O+1>",
"-;,$#                                                       O+1>",
"-;,$#                                                       O+1>",
"-;,$#                                                       O+1>",
"-;,$#                                                       O+1>",
"-;,$#                                                       O+1>",
"-;,$#                                                       O+1>",
"-;,$#                                                       O+1>",
"-;,$#                                                       O+1>",
"-;,$#                                                       O+1>",
"-;,$#                                                       O+1>",
"-;,$#                                                       O+1>"
};
