/* XPM */
static char *_681e4b4a8064870c387ba5d95f3eb8aPlItju8gXZVxzndK[] = {
/* columns rows colors chars-per-pixel */
"64 64 46 1 ",
"  c None",
". c #E1E1E1",
"X c #5D5D5D",
"o c gray64",
"O c gray84",
"+ c gray40",
"@ c #D0D0D0",
"# c #D8D8D8",
"$ c gray42",
"% c #6D6D6D",
"& c gray39",
"* c #555555",
"= c #4E4E4E",
"- c gray88",
"; c #585858",
": c #6D6D6D",
"> c gainsboro",
", c #E1E1E1",
"< c gray87",
"1 c #DFDFDF",
"2 c gray87",
"3 c gray85",
"4 c gray61",
"5 c gray85",
"6 c #CECECE",
"7 c #939393",
"8 c #C6C6C6",
"9 c #717171",
"0 c gray80",
"q c #7E7E7E",
"w c #686868",
"e c gray56",
"r c gray40",
"t c #B9B9B9",
"y c gray59",
"u c LightGray",
"i c gray72",
"p c gray57",
"a c #888888",
"s c #9D9D9D",
"d c gray47",
"f c #909090",
"g c #606060",
"h c gray71",
"j c gray30",
"k c #47704C",
/* pixels */
"@@688888888888888888888888888888888888888888888888888888888888hs",
"@@6ihiiiiiiiiiiiiiiiiiiiiiiiiiiiiiiiiiiiiiiiiiiiiiiiiiiiiiitthse",
"6uajg9999999999999999999999999999999999999999999999999999999qaqd",
"8tgj9dqqqqqqqqqqqqqqqqqqqqd&:++++++++++++++++++++++:4ssysysssyqw",
"8twgf77777777777777777777pq%$                      #5u6666660ter",
"8t9re77777777777777777777pq%$                      #Ou00000008yr",
"8t9we77777777777777777777pq%$                      #Ou00000008yr",
"8t9we77777777777777777777pq%$                      #Ou00000008yr",
"8t9we77777777777777777777pq%$                      #Ou00000008yr",
"8t9we77777777777777777777pq%$                      #Ou00000008yr",
"8t9we77777777777777777777pq%$                      #Ou00000008yr",
"8t9we77777777777777777777pq%$                      #Ou00000008yr",
"8t9we77777777777777777777pq%$                      #Ou00000008yr",
"8t9we77777777777777777777pq%$                      #Ou00000008yr",
"8t9we77777777777777777777pq%$                      #Ou00000008yr",
"8t9we77777777777777777777pq%$                      #Ou00000008yr",
"8t9we77777777777777777777pq%$                      #Ou00000008yr",
"8t9we77777777777777777777pq%$                      #Ou00000008yr",
"8t9we77777777777777777777pq%$                      #Ou00000008yr",
"8t9we77777777777777777777pq%$                      #Ou00000008yr",
"8t9we77777777777777777777pq%$                      #Ou00000008yr",
"8t9we77777777777777777777pq%$                      #Ou00000008yr",
"8t9we77777777777777777777pq%$                      #Ou00000008yr",
"8t9we77777777777777777777pq%$                      #Ou00000008yr",
"8t9we77777777777777777777pq%$                      #Ou00000008yr",
"8t9we77777777777777777777pq%$                      #Ou00000008yr",
"8t9we77777777777777777777pq%$                      #Ou00000008yr",
"8t9we77777777777777777777pq%$                      #Ou00000008yr",
"8t9we77777777777777777777pq%$                      #Ou00000008yr",
"8t9we77777777777777777777pq%$                      #Ou00000008yr",
"8t9we77777777777777777777pq%$                      #Ou00000008yr",
"8t9we77777777777777777777pq%$                      #Ou00000008yr",
"8t9we77777777777777777777pq%$                      #Ou00000008yr",
"8t9we77777777777777777777pq%$                      #Ou00000008yr",
"8t9we77777777777777777777pq%$                      #Ou00000008yr",
"8t9we77777777777777777777pq%$                      #Ou00000008yr",
"8t9we77777777777777777777pq%$                      #Ou00000008yr",
"8t9we77777777777777777777pq%$                      #Ou00000008yr",
"8t9we77777777777777777777pq%$                      #Ou00000008yr",
"8t9we77777777777777777777pq%$                      #Ou00000008yr",
"8t9we77777777777777777777pq%$                      #Ou00000008yr",
"8t9we77777777777777777777pq%$                      #Ou00000008yr",
"8t9we77777777777777777777pq%$                      #Ou00000008yr",
"8t9we77777777777777777777pq%$                      #Ou00000008yr",
"8t9we77777777777777777777pq%$                      #Ou00000008yr",
"8t9we77777777777777777777pq%$                      #Ou00000008yr",
"8t9we77777777777777777777pq%$                      #Ou00000008yr",
"8t9we77777777777777777777pq%$                      #3u00000008yr",
"8t9we77777777777777777777edX$                      .@u00000008yr",
"8t9we7777777777777777777paw*                      o-@000000008yr",
"8t9we7777777777777777777fd&=                      .>u000000008yr",
"8t9we7777777777777777777a9;                       1@6000000008yr",
"8t9we777777777777777777pq&=                      #2u0000000008yr",
"8t9we777777777777777777a9Xo                      ,@60000000008yr",
"8t9we777777777777777777aw*                      #<u00000000008yr",
"8t9we77777777777777777edX$                      .@u00000000008yr",
"8t9we77777777777777777aw*                      o-@000000000008yr",
"8t9we7777777777777777fd&=                      .>u000000000008yr",
"8t9we7777777777777777a9;                       1@6000000000008yr",
"8t9we777777777777777pq&=                      #2u0000000000008yr",
"8t9we777777777777777a9Xo                      ,@60000000000008yr",
"8t9we777777777777777aw*                      #<u00000000000008yr",
"8t9we77777777777777edX$                      .@u00000000000008yr",
"8t9we77777777777777aw+                      o-@600000000000008yr"
};
