/* XPM */
static char *_2974480534242239791057415cb8b98wBIj2QppJ7qVN6D4[] = {
/* columns rows colors chars-per-pixel */
"64 64 3 1 ",
"  c #EFA38D",
". c #F6B798",
"x c #000000",
/* pixels */
"                                                                ",
"                                                                ",
"                                                                ",
"                                                                ",
"                                              ....              ",
"                                              ....              ",
"                                            ........            ",
"                                            ........            ",
"              ....                        ............          ",
"              ....                        ............          ",
"            ........                    ................        ",
"            ........                    ................        ",
"          ............                ....................      ",
"          ............                ....................      ",
"        ................            ........................    ",
"        ................            ........................    ",
"        ................            ........................    ",
"        ................            ........................    ",
"          ............                ....................      ",
"          ............                ....................      ",
"            ........                    ................        ",
"            ........                    ................        ",
"              ....                        ............          ",
"              ....                        ............          ",
"                                            ........            ",
"                                            ........            ",
"                                              ....              ",
"                                              ....              ",
"                                                                ",
"                            xxxxxx                              ",
"                            xxxxxx                              ",
"                            xx                                  ",
"                            xxxx                                ",
"                            xx                                  ",
"              ....          xxxxxx                              ",
"              ....          xxxxxx                              ",
"            ........                                            ",
"            ........                                            ",
"          ............                        ....              ",
"          ............                        ....              ",
"        ................                    ........            ",
"        ................                    ........            ",
"      ....................                ............          ",
"      ....................                ............          ",
"    ........................            ................        ",
"    ........................            ................        ",
"  ............................        ....................      ",
"  ............................        ....................      ",
"  ............................        ....................      ",
"  ............................        ....................      ",
"    ........................            ................        ",
"    ........................            ................        ",
"      ....................                ............          ",
"      ....................                ............          ",
"        ................                    ........            ",
"        ................                    ........            ",
"          ............                        ....              ",
"          ............                        ....              ",
"            ........                                            ",
"            ........                                            ",
"              ....                                              ",
"              ....                                              ",
"                                                                ",
"                                                                "
};
