/* XPM */
static char *f6cc3bb5f23a4f7cefa106efe2426fb3EF4T42hQf2XB4Bso[] = {
/* columns rows colors chars-per-pixel */
"64 64 2 1 ",
"  c #8DF2DF",
". c #A8F8F0",
/* pixels */
"              ....                                              ",
"              ....                                              ",
"            ........                            ..              ",
"            ........                            ..              ",
"          ............                        ..  ..            ",
"          ............                        ..  ..            ",
"        ................                    ..  ..  ..          ",
"        ................                    ..  ..  ..          ",
"      ....................                ..  ..  ..  ..        ",
"      ....................                ..  ..  ..  ..        ",
"    ........................            ..  ..  ..  ..  ..      ",
"    ........................            ..  ..  ..  ..  ..      ",
"  ............................        ..  ..  ..  ..  ..  ..    ",
"  ............................        ..  ..  ..  ..  ..  ..    ",
"................................    ..  ..  ..  ..  ..  ..  ..  ",
"................................    ..  ..  ..  ..  ..  ..  ..  ",
"................................  ..  ..  ..  ..  ..  ..  ..  ..",
"................................  ..  ..  ..  ..  ..  ..  ..  ..",
"  ............................      ..  ..  ..  ..  ..  ..  ..  ",
"  ............................      ..  ..  ..  ..  ..  ..  ..  ",
"    ........................          ..  ..  ..  ..  ..  ..    ",
"    ........................          ..  ..  ..  ..  ..  ..    ",
"      ....................              ..  ..  ..  ..  ..      ",
"      ....................              ..  ..  ..  ..  ..      ",
"        ................                  ..  ..  ..  ..        ",
"        ................                  ..  ..  ..  ..        ",
"          ............                      ..  ..  ..          ",
"          ............                      ..  ..  ..          ",
"            ........                          ..  ..            ",
"            ........                          ..  ..            ",
"              ....                              ..              ",
"              ....                              ..              ",
"              ..                              ....              ",
"              ..                              ....              ",
"            ..  ..                          ........            ",
"            ..  ..                          ........            ",
"          ..  ..  ..                      ............          ",
"          ..  ..  ..                      ............          ",
"        ..  ..  ..  ..                  ................        ",
"        ..  ..  ..  ..                  ................        ",
"      ..  ..  ..  ..  ..              ....................      ",
"      ..  ..  ..  ..  ..              ....................      ",
"    ..  ..  ..  ..  ..  ..          ........................    ",
"    ..  ..  ..  ..  ..  ..          ........................    ",
"  ..  ..  ..  ..  ..  ..  ..      ............................  ",
"  ..  ..  ..  ..  ..  ..  ..      ............................  ",
"..  ..  ..  ..  ..  ..  ..  ..  ................................",
"..  ..  ..  ..  ..  ..  ..  ..  ................................",
"  ..  ..  ..  ..  ..  ..  ..    ................................",
"  ..  ..  ..  ..  ..  ..  ..    ................................",
"    ..  ..  ..  ..  ..  ..        ............................  ",
"    ..  ..  ..  ..  ..  ..        ............................  ",
"      ..  ..  ..  ..  ..            ........................    ",
"      ..  ..  ..  ..  ..            ........................    ",
"        ..  ..  ..  ..                ....................      ",
"        ..  ..  ..  ..                ....................      ",
"          ..  ..  ..                    ................        ",
"          ..  ..  ..                    ................        ",
"            ..  ..                        ............          ",
"            ..  ..                        ............          ",
"              ..                            ........            ",
"              ..                            ........            ",
"                                              ....              ",
"                                              ....              "
};
