/* XPM */
static char *_e49910259ed4bc1a66d3188286e967d0lzpVKYfQQKqvMwS[] = {
/* columns rows colors chars-per-pixel */
"64 64 3 1 ",
"  c #B7B9D8",
". c #C5C9E3",
"x c #000000",
/* pixels */
"                                                                ",
"                                                                ",
"                                                                ",
"                                                                ",
"              ....                            ....              ",
"              ....                            ....              ",
"            ........                        ........            ",
"            ........                        ........            ",
"          ............                    ............          ",
"          ............                    ............          ",
"        ................                ................        ",
"        ................                ................        ",
"      ....................            ....................      ",
"      ....................            ....................      ",
"    ........................        ........................    ",
"    ........................        ........................    ",
"    ........................        ........................    ",
"    ........................        ........................    ",
"      ....................            ....................      ",
"      ....................            ....................      ",
"        ................                ................        ",
"        ................                ................        ",
"          ............                    ............          ",
"          ............                    ............          ",
"            ........                        ........            ",
"            ........                        ........            ",
"              ....                            ....              ",
"              ....                            ....              ",
"                                                                ",
"                             xxxxxxxxx                          ",
"                             xxxxxxxxx                          ",
"                                    xx                          ",
"                             xxxxxxxxx                          ",
"                             xx                                 ",
"                             xxxxxxxxx                          ",
"                             xxxxxxxxx                          ",
"              ....                            ....              ",
"              ....                            ....              ",
"            ........                        ........            ",
"            ........                        ........            ",
"          ............                    ............          ",
"          ............                    ............          ",
"        ................                ................        ",
"        ................                ................        ",
"      ....................            ....................      ",
"      ....................            ....................      ",
"    ........................        ........................    ",
"    ........................        ........................    ",
"    ........................        ........................    ",
"    ........................        ........................    ",
"      ....................            ....................      ",
"      ....................            ....................      ",
"        ................                ................        ",
"        ................                ................        ",
"          ............                    ............          ",
"          ............                    ............          ",
"            ........                        ........            ",
"            ........                        ........            ",
"              ....                            ....              ",
"              ....                            ....              ",
"                                                                ",
"                                                                ",
"                                                                ",
"                                                                "
};
