/* XPM */
static char *d44681410e7340b7b03822c0a183cd92kKAys96k8pHOJ1rN[] = {
/* columns rows colors chars-per-pixel */
"64 64 2 1 ",
"  c #ECC589",
". c #F6DB98",
/* pixels */
"      ..........    ........................    ..........      ",
"      ..........    ........................    ..........      ",
"    ..........        ....................        ..........    ",
"    ..........        ....................        ..........    ",
"  ..........            ................            ..........  ",
"  ..........            ................            ..........  ",
"..........                ............                ..........",
"..........                ............                ..........",
"........                    ........                    ........",
"........                    ........                    ........",
"......                        ....                        ......",
"......                        ....                        ......",
"....                                                        ....",
"....                                                        ....",
"..                                                            ..",
"..                                                            ..",
"                              ....                              ",
"                              ....                              ",
"                            ........                            ",
"                            ........                            ",
"..                        ............                        ..",
"..                        ............                        ..",
"....                    ................                    ....",
"....                    ................                    ....",
"......                ....................                ......",
"......                ....................                ......",
"........            ..........    ..........            ........",
"........            ..........    ..........            ........",
"..........        ..........        ..........        ..........",
"..........        ..........        ..........        ..........",
"............    ..........            ..........    ............",
"............    ..........            ..........    ............",
"............    ..........            ..........    ............",
"............    ..........            ..........    ............",
"..........        ..........        ..........        ..........",
"..........        ..........        ..........        ..........",
"........            ..........    ..........            ........",
"........            ..........    ..........            ........",
"......                ....................                ......",
"......                ....................                ......",
"....                    ................                    ....",
"....                    ................                    ....",
"..                        ............                        ..",
"..                        ............                        ..",
"                            ........                            ",
"                            ........                            ",
"                              ....                              ",
"                              ....                              ",
"..                                                            ..",
"..                                                            ..",
"....                                                        ....",
"....                                                        ....",
"......                        ....                        ......",
"......                        ....                        ......",
"........                    ........                    ........",
"........                    ........                    ........",
"..........                ............                ..........",
"..........                ............                ..........",
"  ..........            ................            ..........  ",
"  ..........            ................            ..........  ",
"    ..........        ....................        ..........    ",
"    ..........        ....................        ..........    ",
"      ..........    ........................    ..........      ",
"      ..........    ........................    ..........      "
};
