/* XPM */
static char *_70208cad6b04989d8f415758e2274c3r6X5531h9f0wmnU2[] = {
/* columns rows colors chars-per-pixel */
"10 64 151 2 ",
"   c #FFCC00",
".  c #FDCB00",
"X  c #FDCB00",
"o  c #FDCB00",
"O  c #FFCC00",
"+  c #FECB00",
"@  c #FDCB00",
"#  c #FDCB00",
"$  c #FFCC00",
"%  c #FECB00",
"&  c #FDCB00",
"*  c #FDCB00",
"=  c #FFCC00",
"-  c #FECB00",
";  c #FDCB00",
":  c #FDCB00",
">  c #FFCC00",
",  c #FECB00",
"<  c #FDCB00",
"1  c #FDCB00",
"2  c #FFCC00",
"3  c #FDCB00",
"4  c #FFCC00",
"5  c #FDCB00",
"6  c #FFCC00",
"7  c #FDCB00",
"8  c #FFCC00",
"9  c #FDCB00",
"0  c #FFCC00",
"q  c #FDCB00",
"w  c #FFCC00",
"e  c #FDCB00",
"r  c #FFCC00",
"t  c #FDCB00",
"y  c #FFCC00",
"u  c #FDCB00",
"i  c #FFCC00",
"p  c #FFCC00",
"a  c #FDCB00",
"s  c #FFCC00",
"d  c #FDCB00",
"f  c #FFCC00",
"g  c #FDCB00",
"h  c #FFCC00",
"j  c #FDCB00",
"k  c #FFCC00",
"l  c #FDCB00",
"z  c #FFCC00",
"x  c #FDCB00",
"c  c #FFCC00",
"v  c #FDCB00",
"b  c #FFCC00",
"n  c #FDCB00",
"m  c #FFCC00",
"M  c #FDCB00",
"N  c #FFCC00",
"B  c #FDCB00",
"V  c #FFCC00",
"C  c #FFCC00",
"Z  c #FDCB00",
"A  c #FFCC00",
"S  c #FDCB00",
"D  c #FFCC00",
"F  c None",
"G  c #FFCC00",
"H  c #FECC00",
"J  c #FCCA00",
"K  c #FDCA00",
"L  c #FAC900",
"P  c #FBC900",
"I  c #F8C700",
"U  c #F8C700",
"Y  c #F6C500",
"T  c #F6C500",
"R  c #F4C400",
"E  c #F3C300",
"W  c #F1C200",
"Q  c #F1C100",
"!  c #EFC000",
"~  c #EFBF00",
"^  c #EDBE00",
"/  c #ECBD00",
"(  c #EBBC00",
")  c #EABB00",
"_  c #E8BA00",
"`  c #E7B900",
"'  c #E6B900",
"]  c #E5B700",
"[  c #E4B700",
"{  c #E3B600",
"}  c #E2B500",
"|  c #E0B400",
" . c #DFB300",
".. c #DEB200",
"X. c #DDB100",
"o. c #DBB000",
"O. c #DBAF00",
"+. c #D9AE00",
"@. c #D8AE00",
"#. c #D6AC00",
"$. c #D6AC00",
"%. c #D4AA00",
"&. c #D4AA00",
"*. c #D4AA00",
"=. c #D4AA00",
"-. c #D4AA00",
";. c #D4AA00",
":. c #D4AA00",
">. c #D4AA00",
",. c #D4AA00",
"<. c #D4AA00",
"1. c #D4AA00",
"2. c #D4AA00",
"3. c #D4AA00",
"4. c #D4AA00",
"5. c #D4AA00",
"6. c #D4AA00",
"7. c #D4AA00",
"8. c #D4AA00",
"9. c #D4AA00",
"0. c #D4AA00",
"q. c #D4AA00",
"w. c #D4AA00",
"e. c #FDCB00",
"r. c #FECB00",
"t. c #FFCC00",
"y. c #FCCA00",
"u. c #FAC800",
"i. c #F8C700",
"p. c #F7C700",
"a. c #F7C600",
"s. c #F5C500",
"d. c #F3C300",
"f. c #F1C100",
"g. c #EFBF00",
"h. c #EEBF00",
"j. c #ECBD00",
"k. c #ECBE00",
"l. c #EABC00",
"z. c #E8BA00",
"x. c #E5B800",
"c. c #E3B600",
"v. c #E1B400",
"b. c #DFB300",
"n. c #DCB100",
"m. c #DAAF00",
"M. c #D8AD00",
"N. c #D5AB00",
"B. c #D6AB00",
"V. c #D4AA00",
"C. c white",
/* pixels */
"  . e.e.e.e.e.e.X o ",
"O + e.e.e.e.e.e.@ # ",
"$ % e.e.e.e.e.e.& * ",
"= - e.e.e.e.e.e.; : ",
"> , e.e.e.e.e.e.< 1 ",
"2 r.e.e.e.e.e.e.e.3 ",
"4 r.e.e.e.e.e.e.e.5 ",
"6 r.e.e.e.e.e.e.e.7 ",
"8 r.e.e.e.e.e.e.e.9 ",
"0 r.e.e.e.e.e.e.e.q ",
"w r.e.e.e.e.e.e.e.e ",
"r r.e.e.e.e.e.e.e.t ",
"y r.e.e.e.e.e.e.e.u ",
"i r.e.e.e.e.e.e.e.X ",
"p r.e.e.e.e.e.e.e.a ",
"s r.e.e.e.e.e.e.e.d ",
"f r.e.e.e.e.e.e.e.g ",
"h r.e.e.e.e.e.e.e.j ",
"k r.e.e.e.e.e.e.e.l ",
"z r.e.e.e.e.e.e.e.x ",
"c r.e.e.e.e.e.e.e.v ",
"b r.e.e.e.e.e.e.e.n ",
"m r.e.e.e.e.e.e.e.M ",
"N r.e.e.e.e.e.e.e.B ",
"V r.e.e.e.e.e.e.e.; ",
"C r.e.e.e.e.e.e.e.Z ",
"A r.e.e.e.e.e.e.e.S ",
"D r.e.e.e.e.e.e.e.< ",
"D r.e.e.e.e.e.e.e.F ",
"G r.e.e.e.e.e.e.e.F ",
"t.r.e.e.e.e.e.e.e.e.",
"t.r.e.e.e.e.e.e.e.e.",
"t.r.e.e.e.e.e.e.e.e.",
"t.r.e.e.e.e.e.e.e.e.",
"G r.e.e.e.e.e.e.e.F ",
"G r.e.e.e.e.e.e.e.F ",
"D r.e.e.e.e.e.e.e.< ",
"A r.e.e.e.e.e.e.e.S ",
"C r.e.e.e.e.e.e.e.Z ",
"V r.e.e.e.e.e.e.e.; ",
"H y.y.y.y.y.y.y.y.J ",
"K u.u.u.u.u.u.u.u.L ",
"P i.p.p.p.i.i.i.a.I ",
"U s.s.s.s.s.s.s.s.Y ",
"T d.d.d.d.d.d.d.d.R ",
"E f.f.f.f.f.f.f.f.W ",
"Q g.h.h.h.h.h.g.h.! ",
"~ j.j.j.j.j.k.k.j.^ ",
"/ l.l.l.l.l.l.l.l.( ",
") z.z.z.z.z.z.z.z._ ",
"` x.x.x.x.x.x.x.x.' ",
"] c.c.c.c.c.c.c.c.[ ",
"{ v.v.v.v.v.v.v.v.} ",
"| b.b.b.b.b.b.b.b. .",
"..n.n.n.n.n.n.n.n.X.",
"o.m.m.m.m.m.m.m.m.O.",
"+.M.M.M.M.M.M.M.M.@.",
"#.N.B.B.B.B.B.B.B.$.",
"%.V.V.V.V.V.V.V.V.&.",
"*.=.V.V.V.V.V.V.-.;.",
":.>.V.V.V.V.V.V.,.<.",
"1.2.V.V.V.V.V.V.3.4.",
"5.6.V.V.V.V.V.V.7.8.",
"9.0.V.V.V.V.V.V.q.w."
};
