/* XPM */
static char *_f84f52a15644c20ef5541ee7e0dfb85pGqgtEUJO7pseAxl[] = {
/* columns rows colors chars-per-pixel */
"64 64 182 2 ",
"   c None",
".  c #000000",
"X  c #0C0402",
"o  c #010A06",
"O  c #030E09",
"+  c #0C0C0C",
"@  c #120401",
"#  c #1B0A04",
"$  c #160804",
"%  c #02140C",
"&  c #031A0F",
"*  c #061C12",
"=  c #0D1913",
"-  c #151515",
";  c #240E06",
":  c #2D1007",
">  c #2D1108",
",  c #3B160A",
"<  c #361409",
"1  c #032213",
"2  c #092317",
"3  c #092618",
"4  c #072919",
"5  c #0A2B1C",
"6  c #002B17",
"7  c #00321B",
"8  c #0A311E",
"9  c #00391E",
"0  c #1B2922",
"q  c #0C3522",
"w  c #023C21",
"e  c #0D3A25",
"r  c #0E3F28",
"t  c #173B2A",
"y  c #1F3F30",
"u  c gray13",
"i  c #282929",
"p  c #3B3B3B",
"a  c #343434",
"s  c #43190B",
"d  c #501E0D",
"f  c #5C230F",
"g  c #642510",
"h  c #6B2812",
"j  c #722B13",
"k  c #004425",
"l  c #0E432A",
"z  c #004C29",
"x  c #004827",
"c  c #11452C",
"v  c #11492E",
"b  c #00512C",
"n  c #0F4E31",
"m  c #124D31",
"M  c #015B31",
"N  c #055731",
"B  c #135536",
"V  c #145B3A",
"C  c #006536",
"Z  c #006738",
"A  c #016A39",
"S  c #16623F",
"D  c #04703E",
"F  c #3D4641",
"G  c #176540",
"H  c #196C45",
"J  c #136F44",
"K  c #067340",
"L  c #0B7A46",
"P  c #0C7D49",
"I  c #087643",
"U  c #1A744A",
"Y  c #1C7A4E",
"T  c #167549",
"R  c #1D7F51",
"E  c #256C4B",
"W  c #2C6E4F",
"Q  c #2A7351",
"!  c #267B53",
"~  c #37795A",
"^  c #4B4B4B",
"/  c #444444",
"(  c #5C5B5B",
")  c gray34",
"_  c #615F60",
"`  c #696768",
"'  c #727574",
"]  c #923618",
"[  c #9B3A1A",
"{  c #8D3517",
"}  c #A83F1C",
"|  c #AB401C",
" . c #B3431E",
".. c #BA461F",
"X. c #BE4720",
"o. c #CC4C22",
"O. c #D34F23",
"+. c #DC5225",
"@. c #D75024",
"#. c #E45526",
"$. c #EA5827",
"%. c #EE5928",
"&. c #F35B29",
"*. c #0F854E",
"=. c #10854F",
"-. c #1E8454",
";. c #128B53",
":. c #1F8857",
">. c #1F8A58",
",. c #19965C",
"<. c #1A995E",
"1. c #169158",
"2. c #218B59",
"3. c #21935E",
"4. c #229760",
"5. c #229B63",
"6. c #299E68",
"7. c #3C966C",
"8. c #1FA165",
"9. c #24A166",
"0. c #25A469",
"q. c #26AB6D",
"w. c #28AE6F",
"e. c #28AF70",
"r. c #33A770",
"t. c #27B371",
"y. c #29B473",
"u. c #2BB876",
"i. c #32B779",
"p. c #39BA7E",
"a. c #30B677",
"s. c #418B69",
"d. c #499471",
"f. c #569B7B",
"g. c #7B827F",
"h. c #4CAF80",
"j. c #5EAD88",
"k. c #48BF87",
"l. c #46BE86",
"z. c #65B38F",
"x. c #66B490",
"c. c #4BC08A",
"v. c #5AC895",
"b. c #65CA9B",
"n. c #78CAA4",
"m. c #73D0A5",
"M. c #888888",
"N. c #808080",
"B. c #9A9798",
"V. c #939494",
"C. c #96A79F",
"Z. c #A4A4A4",
"A. c #AFAEAF",
"S. c #A9A7A8",
"D. c #A8B7B0",
"F. c #B6B6B6",
"G. c #BBBABA",
"H. c #92C1AB",
"J. c #84D4AF",
"K. c #87D3B0",
"L. c #97D8B9",
"P. c #A1DDC1",
"I. c #A9E2C7",
"U. c #B3E3CC",
"Y. c #C8C9C9",
"T. c #D6D5D6",
"R. c gainsboro",
"E. c #C4EBD9",
"W. c #C4E9D8",
"Q. c #E0DFE0",
"!. c #CFF0E1",
"~. c #D9F3E6",
"^. c #D7F2E5",
"/. c #E4E3E3",
"(. c #EDECED",
"). c #E9E6E7",
"_. c #EDF1EF",
"`. c #EDF9F3",
"'. c #F4F4F4",
"]. c white",
"[. c #FEFEFE",
"{. c #F1FCF6",
/* pixels */
"                                                                                                                                ",
"                                                                                                                                ",
"                                                                                                                                ",
"                                                                                                                                ",
"                                                                                                                                ",
"                                                                                                                                ",
"                                                                                                                                ",
"                                                  . . . . . . . . . . . .                                                       ",
"                                              . . . . . o % * * * % o . . . . .                                                 ",
"                                          . . . . % q H 2.5.0.0.0.5.2.E c % . . . .       . .                                   ",
"                                      . . . o 1 x L q.y.y.y.y.y.y.y.u.v.K.z.E 3 . . . .   . . .                                 ",
"                                    . . . * z Z ;.t.y.y.y.y.y.y.y.y.y.y.c.I.E.n.Q * . . . . . . .     . .                       ",
"                                  . . o w C A 1.t.y.y.y.y.y.y.y.y.y.y.y.t.u.m.^.!.x.m o . . . . .     . .                       ",
"                                . . % z Z Z ;.t.y.y.y.y.y.y.y.y.y.y.y.y.y.y.t.l.U.{.P.Q O . . . . . . . .                       ",
"                              . . & M Z Z ;.t.y.y.y.y.y.y.y.y.y.y.y.y.y.y.y.y.t.a.J.`.E.s.% . . . . . . .                       ",
"  .               .         . . & M Z Z P w.y.y.y.y.y.y.y.y.y.y.y.y.y.y.y.y.y.y.y.y.b.~.~.d.% . . . . . .                       ",
"  . o             . o     . . % M Z Z D 9.y.y.y.y.y.y.y.y.y.y.y.y.y.y.y.y.y.y.y.y.y.t.k.W.~.s.o . . . . .                       ",
"  O V 2 .         o B 4 . . o b Z Z Z 1.y.y.y.y.y.y.y.y.y.y.y.y.y.y.y.y.y.y.y.y.y.y.y.t.p.U.E.W . . . .                         ",
"  . H 9.V * . .   . V S . . w Z Z Z L w.y.y.y.y.y.y.y.y.y.y.y.y.y.y.y.y.y.y.y.y.y.y.y.y.t.i.P.L.v . .                           ",
"    2 9.y.9.U r % . o O . % M Z Z Z <.y.y.y.y.y.y.y.y.y.y.y.y.y.y.y.y.y.y.y.y.y.y.y.y.y.y.y.i.L.j.& . .                         ",
"    . e 0.u.y.t.5.R B q & o % 1 9 M 0.y.y.y.y.y.y.y.y.y.y.y.y.y.y.y.y.y.y.y.y.y.y.y.y.y.y.y.y.i.b.E . .                         ",
"    . o q 3.y.y.y.y.y.e.9.-.G l 2 % 4 V 4.t.y.y.y.y.y.y.y.y.y.y.y.y.y.y.y.y.y.y.y.y.y.y.y.y.y.t.u.r.2 . .                       ",
"    . V v * H q.u.y.y.y.y.y.y.t.0.:.V 4 * v 3.y.y.y.y.y.y.y.y.y.y.y.y.y.y.y.y.y.y.y.y.y.y.y.w.7.H.W.D.^ .                       ",
"    . v w.U 5 q Y q.y.y.y.y.y.y.y.y.y.q.R e * G w.y.y.y.y.y.y.y.y.y.y.y.y.y.y.t.t.t.y.y.y.w.Q Y.].].].'.(                       ",
"      o H y.q.H q e H 9.y.y.y.y.y.y.y.y.y.e.U 2 m q.y.y.y.y.y.y.y.y.y.y.y.9.Y ~ f.h.u.t.y.-.g.].]./.F.(.Y.u                     ",
"      . o m 5.u.w.-.m r V -.0.y.y.y.y.y.y.y.y.5.q B t.y.y.y.y.y.y.y.y.y.>.y V./.'._.U.k.t.B S.].'.) - F.(.p                     ",
"        O 4 2 B 3.t.y.0.R V B G :.9.t.y.y.y.y.y.9.r R y.y.y.y.y.y.y.y.5.5 B.].].].].].W.p.l B.].'./ . ` R.i                     ",
"        o G -.v 5 e S :.0.t.w.5.>.-.3.q.y.y.y.y.y.4.B w.y.y.y.y.y.y.y.V p '.].].R.Z.Q.].m.V ^ '.].Y.M.T.Z.o                     ",
"          * U q.0.-.S m v B G R 3.9.q.t.y.y.y.y.y.y.-.4.y.y.y.y.y.t.t.8 _ ].].).p + A.].L.5.2 ` /.].'.A.u .                     ",
"            o q H 4.w.t.w.9.3.>.-.2.4.q.y.y.y.y.y.y.w.0.y.y.y.y.y.y.w.4 ( ].].T.- + ^ ).L.t.-.3 i ^ F t o . .                   ",
"                . O 4 n S U -.3.5.9.0.q.t.y.y.y.y.y.y.y.y.y.y.y.y.y.t.l i /.].'.N.a M.(.j.t.y.0.Y V l q o . . . . . . . .       ",
"                  . o z z x x z J 2.4.0.t.y.y.y.y.y.y.y.y.y.y.y.y.y.y.Y o ' '.].].'.[.C.6.y.y.t.U 3 . X ; s g j j g s # . .     ",
"                  . o z Z Z Z Z ;.y.y.y.y.y.y.y.y.y.y.y.y.y.y.y.y.y.y.t.B o ( G.T.Y.' ! t.y.w.B o @ f } @.$.&.&.&.&.$.o.h X .   ",
"                  . . 1 Z Z Z Z K q.y.y.y.y.y.y.y.y.y.y.y.y.y.y.y.q.8.8.5.G 2 = 0 t Y t.y.y.H . :  .%.&.&.&.&.&.&.%.+...g X .   ",
"                    . o k Z Z Z Z ;.y.y.y.y.y.y.y.y.y.y.y.y.y.t.,.K Z Z A *.9.4.5.w.y.y.y.w.5 @  .&.&.#.o...} ] j d : X . .     ",
"                    . . o k Z Z Z A <.y.y.y.y.y.y.y.y.y.y.y.y.t.P Z Z Z Z Z 8.y.y.y.y.t.y.0.* : #.&.%.h X X X . . . . .         ",
"                      . . o 7 M Z Z A <.t.y.y.y.y.y.y.y.y.y.y.y.9.=.L I P <.t.y.y.y.y.y.y.e.5 @ X.&.&.{ ; X . . . . .           ",
"                        . . . % 7 b C A ;.q.y.y.y.y.y.y.y.y.y.y.y.y.t.w.t.y.y.y.y.y.y.t.0.R 3 . , o.&.&.@...] h s # X . .       ",
"                          . . . . o % 6 w N T 5.q.e.t.t.y.y.y.y.y.y.y.t.t.w.q.9.3.R S l * o . . . ; ] +.&.&.&.&.$.O.} f X .     ",
"                              . . . . . . . o % 3 8 e l v v v v v v l r q 5 2 & O o . . . . .   . . . > j | o.#.#.#.+.[ $ .     ",
"                                    . . . . . . . . . . . . . . . . . . . . . . . . . . .           . . . X # : , < ; X .       ",
"                                        . . . . . . . . . . . . . . . . . .                               . . . . . . .         ",
"                                      . . . .             . . .                                                                 ",
"                              . . . . . . .             . . . .                                                                 ",
"                            . . . . . . .           . . . . .                                                                   ",
"                            . . . . . .         . . . . . .                                                                     ",
"                                                . . . .                                                                         ",
"                                                . .                                                                             ",
"                                                                                                                                ",
"                                                                                                                                ",
"                                                                                                                                ",
"                                                                                                                                ",
"                                                                                                                                ",
"                                                                                                                                ",
"                                                                                                                                ",
"                                                                                                                                ",
"                                                                                                                                ",
"                                                                                                                                ",
"                                                                                                                                ",
"                                                                                                                                ",
"                                                                                                                                ",
"                                                                                                                                ",
"                                                                                                                                ",
"                                                                                                                                "
};
