/* XPM */
static char *_55dd21ac8d74ce6873d885e279cbc2cjR7GrqDy1luqhqge[] = {
/* columns rows colors chars-per-pixel */
"30 64 177 2 ",
"   c None",
".  c #C46B09",
"X  c #CB7204",
"o  c #D77E00",
"O  c #D97900",
"+  c #C36F12",
"@  c #D38400",
"#  c #DD8700",
"$  c #D68A00",
"%  c #DC8A00",
"&  c #D5820F",
"*  c #D8870B",
"=  c #DD9600",
"-  c #CB821B",
";  c #D18312",
":  c #D88210",
">  c #E28601",
",  c #E68A01",
"<  c #E29700",
"1  c #EE9500",
"2  c #E49A00",
"3  c #ED9B00",
"4  c #F09600",
"5  c #F09B00",
"6  c #D4AA00",
"7  c #D9AE00",
"8  c #DDB100",
"9  c #E2A400",
"0  c #EEA400",
"q  c #EEAB00",
"w  c #F4A400",
"e  c #F5AB00",
"r  c #E2B500",
"t  c #EEB200",
"y  c #E6B900",
"u  c #EBBC00",
"i  c #F5B400",
"p  c #F8B500",
"a  c #F5BB00",
"s  c #FABE00",
"d  c #CE852B",
"f  c #EFC300",
"g  c #EECC00",
"h  c #F4C300",
"j  c #F9C400",
"k  c #F6CB01",
"l  c #FECC00",
"z  c #F6CD0C",
"x  c #EDD104",
"c  c #F3D000",
"v  c #F7D000",
"b  c #F7D500",
"n  c #F7D700",
"m  c #F3D100",
"M  c #F9D100",
"N  c #FAD100",
"B  c #F9D200",
"V  c #FCD100",
"C  c #FDD000",
"Z  c #FFD100",
"A  c #FED100",
"S  c #FDD300",
"D  c #FED200",
"F  c #FFD200",
"G  c #FFD300",
"H  c #FBD500",
"J  c #F9D700",
"K  c #FAD600",
"L  c #FCD500",
"P  c #FFD400",
"I  c #FFD700",
"U  c #FDD500",
"Y  c #F3DA00",
"T  c #F3DC00",
"R  c #F9D900",
"E  c #FBD800",
"W  c #F8DB00",
"Q  c #FBDB00",
"!  c #FADB00",
"~  c #FCD800",
"^  c #FED800",
"/  c #FFD800",
"(  c #FFD900",
")  c #FDDB00",
"_  c #FFDA00",
"`  c #FEDB00",
"'  c #F8DD00",
"]  c #FADC00",
"[  c #FADF00",
"{  c #FEDD00",
"}  c #FEDE00",
"|  c #FFDE00",
" . c #FFDF00",
".. c #FCDC00",
"X. c #ECCF10",
"o. c #EBCD1B",
"O. c #F5CD14",
"+. c #F5CD1C",
"@. c #FBE100",
"#. c #FBE300",
"$. c #FEE000",
"%. c #FFE100",
"&. c #FEE300",
"*. c #FFE300",
"=. c #FEE200",
"-. c #FBE500",
";. c #FBE600",
":. c #FAE600",
">. c #FDE500",
",. c #FFE400",
"<. c #FFE500",
"1. c #FFE700",
"2. c #FDE500",
"3. c #F9EA00",
"4. c #FEE900",
"5. c #FFE900",
"6. c #FDEB00",
"7. c #FFEB00",
"8. c #F9ED00",
"9. c #FBED00",
"0. c #FBEF00",
"q. c #FCED00",
"w. c #FDEF00",
"e. c #FEEF00",
"r. c #FFEF00",
"t. c #FFEE00",
"y. c #FEED00",
"u. c #FBF000",
"i. c #FDF100",
"p. c #FDF300",
"a. c #FEF300",
"s. c #FEF500",
"d. c #FFF500",
"f. c #FEF700",
"g. c #FCF500",
"h. c #FEF100",
"j. c #FDF800",
"k. c #FDF900",
"l. c #FDFA00",
"z. c #FEFA00",
"x. c #FEFB00",
"c. c #FFFB00",
"v. c #FEF800",
"b. c #FEFC00",
"n. c #FEFD00",
"m. c #FFFC00",
"M. c #FEFE00",
"N. c #FFFE00",
"B. c #FEFF00",
"V. c yellow",
"C. c #FEFB02",
"Z. c #FEFF08",
"A. c #FFFE16",
"S. c #FEFF18",
"D. c #EACA26",
"F. c #F5CE24",
"G. c #F5CE2C",
"H. c #E9C831",
"J. c #E8C53C",
"K. c #F1C536",
"L. c #F5CF34",
"P. c #FEFD26",
"I. c #FDFE29",
"U. c #FEFE37",
"Y. c #FDFE38",
"T. c #D8A744",
"R. c #E6C245",
"E. c #E5C34D",
"W. c #EACF4E",
"Q. c #EFDC48",
"!. c #F0DF4B",
"~. c #E8CC57",
"^. c #F9F445",
"/. c #FEFD47",
"(. c #FEFE49",
"). c #FDFE5A",
"_. c #FDFF6B",
/* pixels */
"                  w.7.,./ l l l l l l                       ",
"              f.a.w.7.,.%.I l l l l l l l                   ",
"              f.w.@.K K / / C l l l l l l l                 ",
"            z.w.b h a a h C C l l l l l l l l               ",
"          b.f.b a i i i e p l l l l l l l l l l             ",
"          z.' a a i i i e e p l l l l l l l l l             ",
"        b.9.h a a i i e e e w s I l l l l l l l l           ",
"        z.b a a i i i e e w w i C C l l l l l l l           ",
"      b.9.h a a i i i e e w w e k / l l l l l l l l         ",
"      b.' a a a i i i e e w w e s { C l l l l l l l         ",
"      f.k a a i i i i e w w w e i / / l l l l l l l l       ",
"    b.3.h a a i i a c w w w e e i l %.l l l l l l l l       ",
"    b.W a a a i i k 3.w w w e e i j ,.C l l l l l l l       ",
"    z.k a a i i i W z.t w w e e i a ,./ l l l l l l l l     ",
"    u.h a a i i i w.b.f w e e i i a @.%.l l l l l l l l     ",
"    :.h a a i i a z.b.Y w e e i i a K 7.l l l l l l l l     ",
"  b.W a a i i i B b.b.9.0 e e i i a l w.l l l l l l l l     ",
"  z.v a a i i i :.b.b.z.t e i i a a k a.C l l l l l l l l   ",
"  a.h a a i i a f.b.b.b.f w i i a a h w.I l l l l l l l l   ",
"  w.h a i i i j b.b.b.b.T w i i a h h :.W k l l l l l l l   ",
"  :.a a i i i ' b.z.z.b.9.t i a a h h ' / j l l l l l l l   ",
"  ' a a i i l a.f.f.f.f.f.W a a a h h B / j k l l l l l l   ",
"z.W a i i k 7.w.w.w.w.w.w.w.B a h h h k / h k l l l l l l   ",
"f.B a i k ,.7.7.7.7.7.7.7.7.,.l h h a j / h j k l l l l l l ",
"a.h i k %.%.%.%.%.%.%.%.%.%.,.%.l h a a I h h k l l l l l l ",
"w.a 0 B { { { { { { { { { { { %./ h a a C h h j k l l l l l ",
"7.i 2 a / I / / / / / / / / / / / 9 q i l h h h k l l l l l ",
":.i 2 q C C C C C C C C C I I I C @ q i k h h h j k l l l l ",
"@.q 0 2 l l l l l l l l l l l l a @ i e j h h h h k l l l l ",
"@.q 0 2 j l l l l l l l l l l l q $ i e j h u h h j k l l l ",
"' q 0 2 a l l l l l l l l l l l = 2 i e j h u h h h k l l l ",
"W q 0 3 q l l l l l l l l l l l @ q e w s f u u h h j l l l ",
"W w 3 3 0 l l l l l l l l l l a @ e e w s u y u h h h k l l ",
"W w 3 3 3 j l l l l l l l l l q % i w w s u y u a h h j l l ",
"W 0 3 3 2 a l l l l l l l l l = 2 e w w j u y u u h h h k l ",
"K 0 3 3 1 i l l l l l l l l l $ 0 e w w j y y y u f h h j k ",
"K w 3 3 1 e l l l l l l l l j @ e w w w j y y y u u h h h k ",
"W w 3 3 1 i I I I I I I I I a o w w w w j y r y y u f h h j ",
"/ w 3 1 1 a { { { { { { { { a # 5 5 w e j r r y y u u h h h ",
"/ e 3 1 1 h 7.,.,.,.,.,.,.,.f # 4 1 4 e h r r r y y u h h h ",
"/ e 1 1 1 h a.a.w.w.w.w.w.a.g # 4 1 1 w h 8 8 r y y u u h h ",
"/ i 1 1 1 k z.z.z.z.z.z.z.z.g > 4 1 1 w h 7 8 r r y y u h   ",
"  i 1 1 3 k Z.Z.Z.Z.Z.Z.Z.Z.x > 4 1 1 e u 7 8 8 r y y u u   ",
"  a 1 1 3 z S.S.A.A.A.A.A.A.X.> 4 1 1 e u 7 7 8 r r y y u   ",
"  j 3 3 3 O.I.I.P.P.P.P.P.P.o.> 4 1 1 i y 6 7 8 8 r y y u   ",
"  j 3 3 3 +.Y.Y.Y.Y.U.U.U.U.D.> 4 1 1 s r 6 7 7 8 r r y y   ",
"  l w 3 3 F.(.(.(.^.^.(./.(.H.> 4 1 3 h 8 6 6 7 8 8 r y y   ",
"  l e 3 3 G.).).!.- - Q.).).J.> 1 1 w h 7 6 6 7 7 8 r y     ",
"    a 3 3 L._.E.+ @ < ; W._.R.> 1 1 e h 6 6 6 6 7 8 8 r     ",
"    j 0 0 K.T.. 2 t q 3 & ~.E.> 1 1 i y 6 6 6 6 7 7 8 r     ",
"    B w 0 * X 0 t q 0 0 1 : d , 1 3 s r 6 6 6 6 6 7 8 8     ",
"    / a 0 0 q t t q 0 3 3 1 O , 1 w j 7 6 6 6 6 6 7 7       ",
"    %.k 0 q q t t q 0 3 1 1 1 1 1 e h 6 6 6 6 6 6 7 7       ",
"      W t q q t q 0 0 3 1 1 1 1 3 s y 6 6 6 6 6 6 6 7       ",
"      ,.h q t t q 0 3 3 1 1 1 1 w j 8 6 6 6 6 6 6 6         ",
"      w.W t t q q 0 3 1 1 1 1 1 i h 7 6 6 6 6 6 6 6         ",
"        w.h t q 0 0 3 1 1 1 1 5 j y 6 6 6 6 6 6 6           ",
"        f.:.t q 0 3 3 1 1 1 1 i k 7 6 6 6 6 6 6 6           ",
"          z.c q 0 3 1 1 1 1 w l u 6 6 6 6 6 6 6             ",
"          b.9.a 0 3 1 1 1 w j k 8 6 6 6 6 6 6 6             ",
"            a.' i 3 1 3 w j l y 6 6 6 6 6 6 6               ",
"              ,.I j i a j l h 7 6 6 6 6 6 6                 ",
"              { I l l l l h 7 6 6 6 6 6 6                   ",
"                  l l k u 7 6 6 6 6 6                       "
};
