/* XPM */
static char *_96e06255dc34d6898c6240b0d20a545JZklwmCsK73jpLxv[] = {
/* columns rows colors chars-per-pixel */
"64 64 177 2 ",
"   c None",
".  c #000100",
"X  c #0C0402",
"o  c #010A06",
"O  c #030E09",
"+  c #0C0C0C",
"@  c #130602",
"#  c #1B0A05",
"$  c #180803",
"%  c #03140C",
"&  c #021A0F",
"*  c #051D12",
"=  c #0D1913",
"-  c #151515",
";  c #1B1C1C",
":  c #2E1108",
">  c #2C1007",
",  c #3B160A",
"<  c #311208",
"1  c #032213",
"2  c #092317",
"3  c #092618",
"4  c #072919",
"5  c #0A2B1C",
"6  c #002A17",
"7  c #0A311F",
"8  c #1B2922",
"9  c #0C3522",
"0  c #023B21",
"q  c #0D3B25",
"w  c #0E3E28",
"e  c #173D2B",
"r  c #1F3F30",
"t  c #272727",
"y  c #343434",
"u  c #3B3B3B",
"i  c #383738",
"p  c #43190B",
"a  c #4F1E0D",
"s  c #56200E",
"d  c #5C230F",
"f  c #652611",
"g  c #6B2812",
"h  c #7B2E15",
"j  c #0F422A",
"k  c #014C29",
"l  c #08492B",
"z  c #11442C",
"x  c #11492F",
"c  c #00522C",
"v  c #134E32",
"b  c #005C31",
"n  c #135335",
"m  c #145C3B",
"M  c #145738",
"N  c #006637",
"B  c #006738",
"V  c #006939",
"C  c #16633F",
"Z  c #04703E",
"A  c #176541",
"S  c #186C45",
"D  c #0A7946",
"F  c #0B7D48",
"G  c #077542",
"H  c #1A734A",
"J  c #1C794E",
"K  c #1D7E51",
"L  c #256C4B",
"P  c #2C6E4F",
"I  c #2A7351",
"U  c #267B53",
"Y  c #37795A",
"T  c #4B4B4B",
"R  c #444444",
"E  c #5C5B5B",
"W  c gray34",
"Q  c #615F60",
"!  c #696768",
"~  c #727574",
"^  c #803015",
"/  c #8D3517",
"(  c #8D3518",
")  c #933719",
"_  c #A43E1B",
"`  c #AE411D",
"'  c #B9451F",
"]  c #B6441E",
"[  c #C64A21",
"{  c #CB4C22",
"}  c #D34F23",
"|  c #DC5325",
" . c #E35526",
".. c #EB5827",
"X. c #EF5A28",
"o. c #E95727",
"O. c #F25B28",
"+. c #F95D29",
"@. c #0F854E",
"#. c #10854F",
"$. c #1E8454",
"%. c #138C54",
"&. c #1F8957",
"*. c #1F8A58",
"=. c #169158",
"-. c #19965C",
";. c #1A995E",
":. c #159057",
">. c #218C5A",
",. c #21925D",
"<. c #229760",
"1. c #239C63",
"2. c #299E68",
"3. c #3C966C",
"4. c #1FA165",
"5. c #23A266",
"6. c #25A569",
"7. c #26AB6D",
"8. c #28AE6F",
"9. c #28AF70",
"0. c #33A770",
"q. c #27B371",
"w. c #29B473",
"e. c #2AB876",
"r. c #32B779",
"t. c #39BA7E",
"y. c #30B677",
"u. c #418B69",
"i. c #499471",
"p. c #569B7B",
"a. c #7B827F",
"s. c #4CAF80",
"d. c #5EAD88",
"f. c #48BF87",
"g. c #46BE86",
"h. c #65B38F",
"j. c #66B490",
"k. c #4BC08A",
"l. c #5AC895",
"z. c #65CA9B",
"x. c #78CAA4",
"c. c #73D0A5",
"v. c #888888",
"b. c #808080",
"n. c #9A9798",
"m. c #969797",
"M. c #96A79F",
"N. c #A4A4A4",
"B. c #ACABAC",
"V. c #A8B7B0",
"C. c #B6B6B6",
"Z. c #BBBABA",
"A. c #92C1AB",
"S. c #84D4AF",
"D. c #87D3B0",
"F. c #97D8B9",
"G. c #A1DDC1",
"H. c #A9E2C7",
"J. c #B3E3CC",
"K. c #C4C5C4",
"L. c #CDCDCD",
"P. c #D5D5D5",
"I. c gainsboro",
"U. c #C4EBD9",
"Y. c #C4E9D8",
"T. c #E0DFE0",
"R. c #CFF0E1",
"E. c #D9F3E6",
"W. c #D7F2E5",
"Q. c #E4E3E3",
"!. c #EDECED",
"~. c #E9E6E7",
"^. c #EDF1EF",
"/. c #EDF9F3",
"(. c #F4F3F4",
"). c #FEFEFE",
"_. c #F1FCF6",
/* pixels */
"                                                                                                                                ",
"                                                                                                                                ",
"                                                                                                                                ",
"                                                                                                                                ",
"                                                                                                                                ",
"                                                                                                                                ",
"                                                                                                                                ",
"                                                  . . . . . . . . . . . .                                                       ",
"                                              . . . . . o % * * * % o . . . . .                                                 ",
"                                          . . . . % 9 S >.1.6.6.6.<.>.L z % . . . .     . .                                     ",
"                                      . . . o 1 k D 7.w.w.w.w.w.w.w.e.l.D.h.L 4 . . . . . . .         .                         ",
"                                    . . . * k B %.q.w.w.w.w.w.w.w.w.w.w.k.H.U.x.I * . . . . . .       .                         ",
"                                  . . o 0 N V :.q.w.w.w.w.w.w.w.w.w.w.w.q.e.c.W.R.j.v o . . . . .   . . .                       ",
"                                . . % k B B %.q.w.w.w.w.w.w.w.w.w.w.w.w.w.w.q.g.J._.G.I O . . . . . . . .                       ",
"                              . . & b B B %.q.w.w.w.w.w.w.w.w.w.w.w.w.w.w.w.w.q.y.S./.U.u.% . . . . . . .                       ",
"                            . . & b B B F 8.w.w.w.w.w.w.w.w.w.w.w.w.w.w.w.w.w.w.w.w.z.E.E.i.% . . . . . .                       ",
"                          . . % b B B Z 5.w.w.w.w.w.w.w.w.w.w.w.w.w.w.w.w.w.w.w.w.w.q.f.Y.E.u.o . . . .                         ",
"                        . . o c B B B =.w.w.w.w.w.w.w.w.w.w.w.w.w.w.w.w.w.w.w.w.w.w.w.q.t.J.U.P . . . .                         ",
"                        . . 0 B B B D 8.w.w.w.w.w.w.w.w.w.w.w.w.w.w.w.w.w.w.w.w.w.w.w.w.q.r.G.F.z . .                           ",
"                      . . 1 B B B B ;.w.w.w.w.w.w.w.w.w.w.w.w.w.w.w.w.w.w.w.w.w.w.w.w.w.w.w.r.F.d.& . .                         ",
"                      . o c B B B D 8.w.w.w.w.w.w.w.w.w.w.w.w.w.w.w.w.w.w.w.w.w.w.w.w.w.w.w.w.r.z.L . .                         ",
"                    . . 6 B B B B =.w.w.w.w.w.w.w.w.w.w.w.w.w.w.w.w.w.w.w.w.w.w.w.w.w.w.w.w.w.q.e.0.2 . .                       ",
"                    . o c B B B V 6.w.w.w.w.w.w.w.w.w.w.w.w.w.w.w.w.w.w.w.w.w.w.w.w.w.w.w.w.8.3.A.Y.V.T .                       ",
"                  . . * B B B B F q.w.w.w.w.w.w.w.w.w.w.w.w.w.w.w.w.w.w.w.w.w.q.q.q.w.w.w.8.I K.).).).(.E                       ",
"                  . . 0 B B B B %.w.w.w.w.w.w.w.w.w.w.w.w.w.w.w.w.w.w.w.w.5.J Y p.s.e.q.w.$.a.).).Q.C.!.L.t                     ",
"                  . o c B B B B ;.w.w.w.w.w.w.w.w.w.w.w.w.w.w.w.w.w.w.w.*.r m.Q.(.^.J.f.q.M B.).(.W - C.!.u                     ",
"                  . % b B B B V 5.w.w.w.w.w.w.w.w.w.w.w.w.w.w.w.w.w.w.1.5 n.).).).).).Y.t.j n.).(.R . ! I.t     . . . . . .     ",
"                . . & B B B B V 7.w.w.w.w.w.w.w.w.w.w.w.w.w.w.w.w.w.w.m i (.).).I.N.T.).c.m T (.).L.v.P.N.o . . . # , p : . .   ",
"                . . 1 B B B B Z 7.w.w.w.w.w.w.w.w.w.w.w.w.w.w.w.w.w.q.7 Q ).).~.u + B.).F.<.2 ! Q.).(.n.; . $ d _ } o... .g .   ",
"                . . 1 B B B B V 7.w.w.w.w.w.w.w.w.w.w.q.w.w.w.w.w.w.8.4 E ).).P.- + T ~.F.q.$.3 t T i o @ g [ X.O.O.O.O. .a .   ",
"                . . & B B B B V 5.w.w.w.q.w.w.w.w.w.q.1.w.w.w.w.w.w.q.j t Q.).(.b.y v.!.d.q.w.6.n . . p ' O.O.O.O.O.O.} s . .   ",
"                  . % b B B B B ;.w.q.1.7.w.w.w.w.w.6.$.w.w.w.w.w.w.w.K o ~ (.).).(.).M.2.w.w.,.* . g | O.O.O.O.O..._ : . .     ",
"                  . o k B B B B #.<.K 1.w.w.w.w.w.w.$.K w.w.w.w.w.w.w.q.n o E Z.P.K.~ U q.w.6.5 . h ..O.O.O.O.X.' s X . .       ",
"                  . . 1 B B B c l H 6.w.w.w.w.w.w.8.n <.w.w.w.w.w.7.4.4.1.A 2 = 8 e J q.w.w.A . d o.O.O.O...' d @ . .           ",
"                    . o 0 k 0 n ,.q.w.w.w.w.w.w.w.S n q.w.w.w.q.-.G B B V @.5.<.<.8.w.w.w.8.5 @ [ O.O. ._ a X . .               ",
"                    . . & n ,.q.w.w.w.w.w.w.w.w.*.7 <.w.w.w.w.q.F B B B B B 4.w.w.w.w.w.w.6.* <  .O.O.g . . .                   ",
"                  . * M <.8.1.<.7.w.w.w.w.w.w.>.3 H w.w.w.w.w.w.5.#.D G F -.q.w.w.w.w.w.w.8.5 $ { O.O./ # . . .                 ",
"              . * m 1.5.J S &.7.w.w.w.w.w.w.$.3 C q.w.w.w.w.w.w.w.w.q.8.q.w.w.w.w.w.w.q.6.K 2 . f ..O.X.{ ^ > . . .             ",
"            O v 1.5.C z H 7.w.q.w.w.w.w.q.H % x 6.9.q.q.w.w.w.w.w.w.w.q.q.8.7.5.,.K C j * o . . . ^ ..O.O.O.| ( : . .           ",
"          % J 8.S 5 M 5.e.1.$.5.w.w.w.6.v o . % 3 7 q j z x x x x x j w 9 5 2 & O o . . . . . . . . g | O.O.O.O.| h $ . .       ",
"        o H 5.j 5 $.w.8.S M <.w.w.w.$.3 o . . . . . . . . . . . . . . . . . . . . . . . .         . . , ` ..O.O.O.O.] : .       ",
"        * $.5 w 1.e.<.j n 6.w.w.7.m % 3 * . . 9 M z O . . . . . . . . . . .                         . . X s `  .O.O.+.` X .     ",
"        O * j 7.e.&.3 M q.w.w.,.9 o 3 3 . . % ,.1.j o .   . . .                                         . . X < f / ) s . .     ",
"        . 3 6.e.$.* m q.w.q.H % . . o . . o A K 2 .     . . . .                                             . . . . . . .       ",
"        o K e.,.* n q.w.7.n o . . . . . % A C O . . . . . . .                                                                   ",
"        2 6.7.9 9 7.w.6.j . . . . o 2 n >.n o . . . . . . .                                                                     ",
"        3 8.S % ,.w.7.j . O m j o H 7.q.M . .   . . . .                                                                         ",
"        O K 2 n w.q.n . . o H q w q.w.S o .     . .                                                                             ",
"        . * % ,.e.K o .   . % O K e.,.% .                                                                                       ",
"          . 2 7.7.5 .       . % 1.q.j .                                                                                         ",
"          . 3 8.$.o           % 5.,.O                                                                                           ",
"            % <.n .           o >.S .                                                                                           ",
"            . n 7             . j j .                                                                                           ",
"              o o               o o                                                                                             ",
"                .                 .                                                                                             ",
"                                                                                                                                ",
"                                                                                                                                ",
"                                                                                                                                ",
"                                                                                                                                ",
"                                                                                                                                ",
"                                                                                                                                ",
"                                                                                                                                ",
"                                                                                                                                ",
"                                                                                                                                "
};
