/* XPM */
static char *b24b534268404441af2b07268356b5240Meqsmn5ebxV11rJ[] = {
/* columns rows colors chars-per-pixel */
"64 64 180 2 ",
"   c None",
".  c #000100",
"X  c #0C0402",
"o  c #020A06",
"O  c #030E09",
"+  c #0C0C0C",
"@  c #130602",
"#  c #1B0A05",
"$  c #180803",
"%  c #03130C",
"&  c #031A0F",
"*  c #051C12",
"=  c #0D1913",
"-  c #151515",
";  c #1B1C1C",
":  c #2E1108",
">  c #2C1007",
",  c #3B160A",
"<  c #311208",
"1  c #022213",
"2  c #082316",
"3  c #012A17",
"4  c #092618",
"5  c #072919",
"6  c #0A2C1C",
"7  c #0A311F",
"8  c #1B2922",
"9  c #0C3522",
"0  c #023B21",
"q  c #0D3B26",
"w  c #0E3F28",
"e  c #173D2B",
"r  c #1F3F30",
"t  c #272727",
"y  c #343434",
"u  c #3B3B3B",
"i  c #383738",
"p  c #43190B",
"a  c #4F1E0D",
"s  c #56200E",
"d  c #5C230F",
"f  c #652611",
"g  c #6B2812",
"h  c #7B2E15",
"j  c #004324",
"k  c #0F432A",
"l  c #004D2A",
"z  c #004827",
"x  c #10452C",
"c  c #11492F",
"v  c #00512C",
"b  c #124D31",
"n  c #005C31",
"m  c #135335",
"M  c #145C3A",
"N  c #006637",
"B  c #006738",
"V  c #006939",
"C  c #16613E",
"Z  c #04703E",
"A  c #176540",
"S  c #196D45",
"D  c #186742",
"F  c #067441",
"G  c #0A7946",
"H  c #0B7D48",
"J  c #087643",
"K  c #1A734A",
"L  c #1C7A4E",
"P  c #1D7F51",
"I  c #256C4B",
"U  c #2C6E4F",
"Y  c #2A7351",
"T  c #267B53",
"R  c #37795A",
"E  c #4B4B4B",
"W  c #444444",
"Q  c #5C5B5B",
"!  c gray34",
"~  c #615F60",
"^  c #696768",
"/  c #727574",
"(  c #803015",
")  c #8D3517",
"_  c #8D3518",
"`  c #933719",
"'  c #A43E1B",
"]  c #AE411D",
"[  c #B9451F",
"{  c #B6441E",
"}  c #C64A21",
"|  c #CB4C22",
" . c #D34F23",
".. c #DC5325",
"X. c #E35526",
"o. c #EB5827",
"O. c #EF5A28",
"+. c #E95727",
"@. c #F25B28",
"#. c #F95D29",
"$. c #0F854E",
"%. c #10854F",
"&. c #1E8354",
"*. c #138C54",
"=. c #1F8957",
"-. c #1E8B58",
";. c #118750",
":. c #169158",
">. c #19965C",
",. c #1A995E",
"<. c #159057",
"1. c #208D5A",
"2. c #21925E",
"3. c #229760",
"4. c #239B63",
"5. c #299E68",
"6. c #3C966C",
"7. c #1FA165",
"8. c #23A266",
"9. c #25A469",
"0. c #26AB6D",
"q. c #28AE6F",
"w. c #28AF70",
"e. c #33A770",
"r. c #27B371",
"t. c #29B473",
"y. c #2BB977",
"u. c #32B779",
"i. c #39BA7E",
"p. c #30B677",
"a. c #418B69",
"s. c #499471",
"d. c #569B7B",
"f. c #7B827F",
"g. c #4CAF80",
"h. c #5EAD88",
"j. c #48BF87",
"k. c #46BE86",
"l. c #65B38F",
"z. c #66B490",
"x. c #4BC08A",
"c. c #5AC895",
"v. c #65CA9B",
"b. c #78CAA4",
"n. c #73D0A5",
"m. c #888888",
"M. c #808080",
"N. c #9A9798",
"B. c #969797",
"V. c #96A79F",
"C. c #A4A4A4",
"Z. c #ACABAC",
"A. c #A8B7B0",
"S. c #B6B6B6",
"D. c #BBBABA",
"F. c #92C1AB",
"G. c #84D4AF",
"H. c #87D3B0",
"J. c #97D8B9",
"K. c #A1DDC1",
"L. c #A9E2C7",
"P. c #B3E3CC",
"I. c #C4C5C4",
"U. c #CDCDCD",
"Y. c #D5D5D5",
"T. c gainsboro",
"R. c #C4EBD9",
"E. c #C4E9D8",
"W. c #E0DFE0",
"Q. c #CFF0E1",
"!. c #D9F3E6",
"~. c #D7F2E5",
"^. c #E4E3E3",
"/. c #EDECED",
"(. c #E9E6E7",
"). c #EDF1EF",
"_. c #EDF9F3",
"`. c #F4F3F4",
"'. c #FEFEFE",
"]. c #F1FCF6",
/* pixels */
"                                                                                                                                ",
"                                                                                                                                ",
"                                                                                                                                ",
"                                                                                                                                ",
"                                                                                                                                ",
"                                                                                                                                ",
"                                                                                                                                ",
"                                                  . . . . . . . . . . . .                                                       ",
"                                              . . . . . o % * * * % o . . . . .                                                 ",
"                                          . . . . % 9 S 1.4.9.9.9.4.1.I x % . . . .     . .                                     ",
"                                      . . . o 1 z G 0.t.t.t.t.t.t.t.y.c.H.l.I 5 . . . . . . .         .                         ",
"                                    . . . * l B *.r.t.t.t.t.t.t.t.t.t.t.x.L.R.b.Y * . . . . . .       .                         ",
"                                  . . o 0 N V <.r.t.t.t.t.t.t.t.t.t.t.t.r.y.n.~.Q.z.b o . . . . .   . . .                       ",
"                                . . % l B B *.r.t.t.t.t.t.t.t.t.t.t.t.t.t.t.r.k.P.].K.Y O . . . . . . . .                       ",
"                              . . & n B B ;.r.t.t.t.t.t.t.t.t.t.t.t.t.t.t.t.t.r.p.G._.R.a.% . . . . . . .                       ",
"                            . . & n B B H q.t.t.t.t.t.t.t.t.t.t.t.t.t.t.t.t.t.t.t.t.v.!.!.s.% . . . . . .                       ",
"                          . . % n B B Z 8.t.t.t.t.t.t.t.t.t.t.t.t.t.t.t.t.t.t.t.t.t.r.j.E.!.a.o . . . .                         ",
"                        . . o v B B B :.t.t.t.t.t.t.t.t.t.t.t.t.t.t.t.t.t.t.t.t.t.t.t.r.i.P.R.U . . . .                         ",
"                        . . 0 B B B G q.t.t.t.t.t.t.t.t.t.t.t.t.t.t.t.t.t.t.t.t.t.t.t.t.r.u.K.J.x . .                           ",
"                      . . 1 B B B B ,.t.t.t.t.t.t.t.t.t.t.t.t.t.t.t.t.t.t.t.t.t.t.t.t.t.t.t.u.J.h.& . .                         ",
"                      . o v B B B G q.t.t.t.t.t.t.t.t.t.t.t.t.t.t.t.t.t.t.t.t.t.t.t.t.t.t.t.t.u.v.I . .                         ",
"                    . . 3 B B B B :.t.t.t.t.t.t.t.t.t.t.t.t.t.t.t.t.t.t.t.t.t.t.t.t.t.t.t.t.t.r.y.e.2 . .                       ",
"                    . o v B B B V 9.t.t.t.t.t.t.t.t.t.t.t.t.t.t.t.t.t.t.t.t.t.t.t.t.t.t.t.t.q.6.F.E.A.E .                       ",
"                  . . * B B B B H r.t.t.t.t.t.t.t.t.t.t.t.t.t.t.t.t.t.t.t.t.t.r.r.r.t.t.t.q.Y I.'.'.'.`.Q                       ",
"                  . . 0 B B B B *.t.t.t.t.t.t.t.t.t.t.t.t.t.t.t.t.t.t.t.t.8.L R d.g.y.r.t.&.f.'.'.^.S./.U.t                     ",
"                  . o v B B B B ,.t.t.t.t.t.t.t.t.t.t.t.t.t.t.t.t.t.t.t.-.r B.^.`.).P.j.r.m Z.'.`.! - S./.u                     ",
"                  . % n B B B V 8.t.t.t.t.t.t.t.t.t.t.t.t.t.t.t.t.t.t.4.6 N.'.'.'.'.'.E.i.k N.'.`.W . ^ T.t     . . . . . .     ",
"                . . & B B B B V 0.t.t.t.t.t.t.t.t.t.t.t.t.t.t.t.t.t.t.M i `.'.'.T.C.W.'.n.M E `.'.U.m.Y.C.o . . . # , p : . .   ",
"                . . 1 B B B B Z 0.t.t.t.t.t.t.t.t.t.t.t.t.t.t.t.t.t.r.7 ~ '.'.(.u + Z.'.J.4.2 ^ ^.'.`.N.; . $ d '  .+.o.X.g .   ",
"                . . 1 B B B B V 0.t.t.t.t.t.t.t.t.t.t.r.t.t.t.t.t.t.q.5 Q '.'.Y.- + E (.J.r.&.4 t E i o @ g } O.@.@.@.@.X.a .   ",
"                . . & B B B B V 8.t.t.t.r.t.t.t.t.t.t.0.r.t.t.t.t.t.r.k t ^.'.`.M.y m./.h.r.t.9.m . . p [ @.@.@.@.@.@. .s . .   ",
"                  . % n B B B B ,.t.t.9.8.t.t.t.t.t.t.4.q.t.t.t.t.t.t.P o / `.'.'.`.'.V.5.t.t.2.* . g ..@.@.@.@.@.o.' : . .     ",
"                  . o l B B B B ;.t.9.S 9.t.t.t.t.t.t.2.9.t.t.t.t.t.t.r.m o Q D.Y.I./ T r.t.9.6 . h o.@.@.@.@.O.[ s X . .       ",
"                  . . 1 B B B B F -.m &.t.t.t.t.t.t.t.&.4.t.t.t.t.0.7.7.4.A 2 = 8 e L r.t.t.A . d +.@.@.@.o.[ d @ . .           ",
"                    . o j B B B j 9 &.t.t.t.t.t.t.t.t.K 3.t.t.r.>.F B B V $.8.3.4.q.t.t.t.q.6 @ } @.@.X.' a X . .               ",
"                    . . o j l 3 k 4.t.t.t.t.t.t.t.t.r.M 4.t.t.r.G B B B B B 7.t.t.t.t.t.t.9.* < X.@.@.g . . .                   ",
"                      . . o 7 L w.t.t.t.t.t.t.t.t.t.9.x 9.t.t.t.8.%.G J H >.r.t.t.t.t.t.t.q.6 $ | @.@.) # . . .                 ",
"                      . * D 9.t.t.t.t.t.t.t.t.t.t.t.&.k r.t.t.t.t.t.r.q.r.t.t.t.t.t.t.r.9.P 2 . f o.@.O.| ( > . . .             ",
"                    o b 4.t.t.t.9.8.t.t.t.t.t.t.t.t.m M t.t.t.t.t.t.t.r.r.q.0.8.2.P C k * o . . . ( o.@.@.@..._ : . .           ",
"                  % K r.t.t.0.K S 9.t.t.t.0.r.t.t.4.* 6 x c c c c c k w 9 6 2 & O o . . . . . . . . g ..@.@.@.@...h $ . .       ",
"                % P t.t.t.1.c S q.t.t.q.&.2.t.t.t.A . . . . . . . . . . . . . . . . . . .         . . , ] o.@.@.@.@.{ : .       ",
"              . M t.t.r.S 9 &.t.t.t.9.M P r.t.t.8.2 o % 9 o . . * O 7 w x m M & .                   . . X s ] X.@.@.#.] X .     ",
"              % 4.t.0.m q 3.t.t.t.4.x K t.t.t.t.C . 2 &.S o . o 7 M q.r.t.y.&.o                         . . X < f ) ` s . .     ",
"              2 0.0.x q 8.t.t.t.4.q S t.t.t.t.3.% 2 &.C O . . . m q.t.t.t.0.9 .                             . . . . . . .       ",
"              * 4.c 9 9.t.t.t.4.9 C r.t.t.t.r.x . q 4 . . . . k 0.t.t.t.t.S .                                                   ",
"              O w 4 4.t.t.t.0.q b w.t.t.t.t.P o . . . . . . 6 9.t.t.t.t.4.* .                                                   ",
"              . o L t.t.t.r.b 7 9.t.t.r.t.9.2 * & . o 4 6 * 2.t.t.t.t.r.x .                                                     ",
"              . 6 0.t.t.t.K * 1.t.t.t.t.r.m o S M c L &.* K t.t.t.t.t.K o .                                                     ",
"              . m t.r.t.4.* A t.t.t.t.t.&.o 6 0.r.t.q.9 k r.t.t.t.t.4.* .                                                       ",
"              . m t.r.r.c 6 0.t.t.t.t.9.6 . 7 w.t.t.S % 2.t.t.t.t.r.c .                                                         ",
"              . 6 q.t.1.% K t.t.t.t.t.M . . % 4.t.9.2 b t.t.t.t.t.L o .                                                         ",
"                o S t.b 2 9.t.t.t.t.=.O .   . b r.K O 1.t.t.t.t.8.2 .                                                           ",
"                . % A * m t.t.t.t.0.9 .       o m 9 6 q.t.t.t.t.m . .                                                           ",
"                  . o o L t.t.t.t.S . .       . . . m t.t.t.t.1.% .                                                             ",
"                    . o -.t.t.t.8.2 .           . . A t.t.t.r.k .                                                               ",
"                      o 1.t.t.t.A . .             . D t.t.t.=.o .                                                               ",
"                      . L t.t.9.4 .               . m t.t.r.x .                                                                 ",
"                      . b t.t.P o .               . 6 0.t.4.% .                                                                 ",
"                      . & 4.t.m .                   o L y.L .                                                                   ",
"                        . x 0.9 .                   . 4 9.M .                                                                   ",
"                          o m 2 .                     . w w .                                                                   ",
"                          . . o                         . o .                                                                   ",
"                              .                           . .                                                                   ",
"                                                                                                                                "
};
