/* XPM */
static char *eef4938c7bd14eb2daf75d24b0f23c90AzFyy9QbH92o3NS4[] = {
/* columns rows colors chars-per-pixel */
"64 64 178 2 ",
"   c None",
".  c #000100",
"X  c #0C0402",
"o  c #010906",
"O  c #030E09",
"+  c #0C0C0C",
"@  c #120401",
"#  c #1B0A04",
"$  c #160804",
"%  c #03140C",
"&  c #031A0F",
"*  c #051C12",
"=  c #0D1913",
"-  c #151515",
";  c #240E06",
":  c #2D1007",
">  c #2D1108",
",  c #3B160A",
"<  c #361409",
"1  c #022213",
"2  c #082316",
"3  c #012A17",
"4  c #092618",
"5  c #072919",
"6  c #0A2C1C",
"7  c #0A311F",
"8  c #1B2922",
"9  c #0C3522",
"0  c #023B21",
"q  c #0D3A25",
"w  c #0E3F28",
"e  c #173B2A",
"r  c #1F3F30",
"t  c gray13",
"y  c #282929",
"u  c #3B3B3B",
"i  c #343434",
"p  c #43190B",
"a  c #501E0D",
"s  c #5C230F",
"d  c #642510",
"f  c #6B2812",
"g  c #722B13",
"h  c #004324",
"j  c #0F432A",
"k  c #004D2A",
"l  c #004827",
"z  c #10452C",
"x  c #10492E",
"c  c #00512C",
"v  c #124D31",
"b  c #005C31",
"n  c #135335",
"m  c #145C3A",
"M  c #145738",
"N  c #006637",
"B  c #006738",
"V  c #006939",
"C  c #16613E",
"Z  c #04703E",
"A  c #3D4641",
"S  c #176541",
"D  c #186742",
"F  c #196D46",
"G  c #067441",
"H  c #0A7946",
"J  c #0B7D48",
"K  c #087643",
"L  c #1A734A",
"P  c #1C7A4E",
"I  c #1D7F51",
"U  c #256C4B",
"Y  c #2C6E4F",
"T  c #2A7351",
"R  c #267B53",
"E  c #37795A",
"W  c #4B4B4B",
"Q  c #444444",
"!  c #5C5B5B",
"~  c gray34",
"^  c #615F60",
"/  c #696768",
"(  c #727574",
")  c #923618",
"_  c #9B3A1A",
"`  c #8D3517",
"'  c #A83F1C",
"]  c #AB401C",
"[  c #B3431E",
"{  c #BA461F",
"}  c #BE4720",
"|  c #CC4C22",
" . c #D34F23",
".. c #DC5225",
"X. c #D75024",
"o. c #E45526",
"O. c #EA5827",
"+. c #EE5928",
"@. c #F35B29",
"#. c #0F854E",
"$. c #10854F",
"%. c #1E8354",
"&. c #138C54",
"*. c #1E8B58",
"=. c #188854",
"-. c #169158",
";. c #19965C",
":. c #1A995E",
">. c #159057",
",. c #208D5A",
"<. c #21935E",
"1. c #229760",
"2. c #239B63",
"3. c #299E68",
"4. c #3C966C",
"5. c #1FA165",
"6. c #23A266",
"7. c #25A569",
"8. c #26AB6D",
"9. c #28AE6F",
"0. c #28AF70",
"q. c #33A770",
"w. c #27B371",
"e. c #29B473",
"r. c #2BB977",
"t. c #32B779",
"y. c #39BA7E",
"u. c #30B677",
"i. c #418B69",
"p. c #499471",
"a. c #569B7B",
"s. c #7B827F",
"d. c #4CAF80",
"f. c #5EAD88",
"g. c #48BF87",
"h. c #46BE86",
"j. c #65B38F",
"k. c #66B490",
"l. c #4BC08A",
"z. c #5AC895",
"x. c #65CA9B",
"c. c #78CAA4",
"v. c #73D0A5",
"b. c #888888",
"n. c #808080",
"m. c #9A9798",
"M. c #939494",
"N. c #96A79F",
"B. c #A4A4A4",
"V. c #AFAEAF",
"C. c #A9A7A8",
"Z. c #A8B7B0",
"A. c #B6B6B6",
"S. c #BBBABA",
"D. c #92C1AB",
"F. c #84D4AF",
"G. c #87D3B0",
"H. c #97D8B9",
"J. c #A1DDC1",
"K. c #A9E2C7",
"L. c #B3E3CC",
"P. c #C8C9C9",
"I. c #D6D5D6",
"U. c gainsboro",
"Y. c #C4EBD9",
"T. c #C4E9D8",
"R. c #E0DFE0",
"E. c #CFF0E1",
"W. c #D9F3E6",
"Q. c #D7F2E5",
"!. c #E4E3E3",
"~. c #EDECED",
"^. c #E9E6E7",
"/. c #EDF1EF",
"(. c #EDF9F3",
"). c #F4F4F4",
"_. c #FEFEFE",
"`. c #F1FCF6",
/* pixels */
"                                                                                                                                ",
"                                                                                                                                ",
"                                                                                                                                ",
"                                                                                                                                ",
"                                                                                                                                ",
"                                                                                                                                ",
"                                                                                                                                ",
"                                                  . . . . . . . . . . . .                                                       ",
"                                              . . . . . o % * * * % o . . . . .                                                 ",
"                                          . . . . % 9 F ,.2.7.7.7.2.,.U z % . . . .       . .                                   ",
"                                      . . . o 1 l H 8.e.e.e.e.e.e.e.r.z.G.j.U 4 . . . .   . . .                                 ",
"                                    . . . * k B &.w.e.e.e.e.e.e.e.e.e.e.l.K.Y.c.T * . . . . . . .     . .                       ",
"                                  . . o 0 N V >.w.e.e.e.e.e.e.e.e.e.e.e.w.r.v.Q.E.k.v o . . . . .     . .                       ",
"                                . . % k B B &.w.e.e.e.e.e.e.e.e.e.e.e.e.e.e.w.h.L.`.J.T O . . . . . . . .                       ",
"                              . . & b B B &.w.e.e.e.e.e.e.e.e.e.e.e.e.e.e.e.e.w.u.F.(.Y.i.% . . . . . . .                       ",
"                            . . & b B B J 9.e.e.e.e.e.e.e.e.e.e.e.e.e.e.e.e.e.e.e.e.x.W.W.p.% . . . . . .                       ",
"                          . . % b B B Z 6.e.e.e.e.e.e.e.e.e.e.e.e.e.e.e.e.e.e.e.e.e.w.g.T.W.i.o . . . . .                       ",
"                        . . o c B B B -.e.e.e.e.e.e.e.e.e.e.e.e.e.e.e.e.e.e.e.e.e.e.e.w.y.L.Y.Y . . . .                         ",
"                        . . 0 B B B H 9.e.e.e.e.e.e.e.e.e.e.e.e.e.e.e.e.e.e.e.e.e.e.e.e.w.t.J.H.z . .                           ",
"                      . . 1 B B B B :.e.e.e.e.e.e.e.e.e.e.e.e.e.e.e.e.e.e.e.e.e.e.e.e.e.e.e.t.H.f.& . .                         ",
"                      . o c B B B H 9.e.e.e.e.e.e.e.e.e.e.e.e.e.e.e.e.e.e.e.e.e.e.e.e.e.e.e.e.t.x.U . .                         ",
"                    . . 3 B B B B -.e.e.e.e.e.e.e.e.e.e.e.e.e.e.e.e.e.e.e.e.e.e.e.e.e.e.e.e.e.w.r.q.2 . .                       ",
"                    . o c B B B V 7.e.e.e.e.e.e.e.e.e.e.e.e.e.e.e.e.e.e.e.e.e.e.e.e.e.e.e.e.9.4.D.T.Z.W .                       ",
"                  . . * B B B B J w.e.e.e.e.e.e.e.e.e.e.e.e.e.e.e.e.e.e.e.e.e.w.w.w.e.e.e.9.T P._._._.).!                       ",
"                  . . 0 B B B B &.e.e.e.e.e.e.e.e.e.e.e.e.e.e.e.e.e.e.e.e.6.P E a.d.r.w.e.%.s._._.!.A.~.P.t                     ",
"                  . o c B B B B :.e.e.e.e.e.e.e.e.e.e.e.e.e.e.e.e.e.e.e.*.r M.!.)./.L.g.w.M C._.).~ - A.~.u                     ",
"                  . % b B B B V 6.e.e.e.e.e.e.e.e.e.e.e.e.e.e.e.e.e.e.2.6 m._._._._._.T.y.j m._.).Q . / U.y                     ",
"                . . & B B B B V 8.e.e.e.e.e.e.e.e.e.e.e.e.e.e.e.e.e.e.m u )._._.U.B.R._.v.m W )._.P.b.I.B.o                     ",
"                . . 1 B B B B Z 8.e.e.e.e.e.e.e.e.e.e.e.e.e.e.e.e.e.w.7 ^ _._.^.u + V._.H.2.2 / !._.).V.t .                     ",
"                . . 1 B B B B V 8.e.e.e.e.e.e.e.e.e.e.w.e.e.e.e.e.e.9.5 ! _._.I.- + W ^.H.w.%.4 y W A e o . .                   ",
"                . . & B B B B V 6.e.e.e.w.e.e.e.e.e.e.8.w.e.e.e.e.e.w.j y !._.).n.i b.~.f.w.e.7.P m j 9 o . . . . . . . .       ",
"                  . % b B B B B :.e.e.7.6.e.e.e.e.e.e.2.9.e.e.e.e.e.e.P o ( )._._.)._.N.3.e.e.w.L 4 . X ; p d g g d p # . .     ",
"                  . o k B B B B $.e.7.F 7.e.e.e.e.e.e.<.7.e.e.e.e.e.e.w.n o ! S.I.P.( R w.e.9.n o @ s ' X.O.@.@.@.@.O.| f X .   ",
"                  . . 1 B B B B G *.n %.e.e.e.e.e.e.e.%.2.e.e.e.e.8.5.5.2.S 2 = 8 e P w.e.e.F . : [ +.@.@.@.@.@.@.+...{ d X .   ",
"                    . o h B B B h 9 %.e.e.e.e.e.e.e.e.L 1.e.e.w.;.G B B V #.6.1.2.9.e.e.e.9.6 @ [ @.@.o.| { ' ) g a : X . .     ",
"                    . . o h k 3 j 2.e.e.e.e.e.e.e.e.w.M 2.e.e.w.H B B B B B 5.e.e.e.e.e.e.7.* : o.@.+.f X X X . . . . .         ",
"                      . . o 7 P 0.e.e.e.e.e.e.e.e.e.7.z 7.e.e.e.6.$.H K J ;.w.e.e.e.e.e.e.0.6 @ } @.@.` ; X . . . . .           ",
"                      . * D 7.e.e.e.e.e.e.e.e.e.e.e.%.j w.e.e.e.e.e.w.9.w.e.e.e.e.e.e.w.7.I 4 . , | @.@.X.{ ) f p # X . .       ",
"                    o v 2.e.e.e.7.6.e.e.e.e.e.e.e.e.n m e.e.e.e.e.e.e.w.w.9.8.6.<.I C j * o . . . ; ) ..@.@.@.@.O. .' s X .     ",
"                  % L w.e.e.8.L F 7.e.e.e.8.w.e.e.2.* 6 z x x x x x j w 9 6 2 & O o . . . . .   . . . > g ] | o.o.o..._ $ .     ",
"                % I e.e.e.,.x F 9.e.e.9.%.<.e.e.e.S . . . . . . . . . . . . . . . . . . .           . . . X # : , < ; X .       ",
"              . m e.e.w.F 9 %.e.e.e.7.m I w.e.e.6.2 6 w 9 o . . 2 9 q w j O .                             . . . . . . .         ",
"              % 2.e.8.n q 1.e.e.e.2.z L e.e.e.e.m % 2.e.F o . O ,.w.w.e.I o                                                     ",
"              2 8.8.z q 6.e.e.e.2.q F e.e.e.e.1.% n 7.C O . . n w.e.e.8.6 .                                                     ",
"              * 2.x 9 7.e.e.e.2.9 C w.e.e.e.w.z o j 4 . . . 9 7.e.e.e.S .                                                       ",
"              O w 4 2.e.e.e.8.q v 0.e.e.e.e.I o . . . . . w 6.e.e.e.<.% .                                                       ",
"              . o P e.e.e.w.v 7 7.e.e.e.e.7.2 * & . . % F 9.e.e.e.0.j .                                                         ",
"              . 6 8.e.e.e.L * ,.e.e.e.e.w.n o F m 4 o L e.e.e.e.e.L o .                                                         ",
"              . n e.w.e.2.* S e.e.e.e.e.%.o q 9.7.7 z w.e.e.e.e.2.* .                                                           ",
"              . n e.w.w.x 6 8.e.e.e.e.7.6 O ,.r.D & 1.e.e.e.e.w.z .                                                             ",
"              . 6 9.e.,.% L e.e.e.e.e.M . M e.6.* n e.e.e.e.e.L o .                                                             ",
"                o F e.v 2 7.e.e.e.e.*.O . v e.F % <.e.e.e.e.2.2 .                                                               ",
"                . % S * n e.e.e.e.8.9 . . o M 7 7 0.e.e.e.w.n .                                                                 ",
"                  . o o P e.e.e.e.F . .   . . . M e.e.e.e.*.O .                                                                 ",
"                    . o *.e.e.e.6.2 .       . . F e.e.e.0.w .                                                                   ",
"                      o ,.e.e.e.S . .         . F e.e.e.%.o .                                                                   ",
"                      . P e.e.7.4 .           . M e.e.w.j .                                                                     ",
"                      . v e.e.I o .           . 7 9.e.2.% .                                                                     ",
"                      . & 2.e.n .               o %.r.L .                                                                       ",
"                        . z 8.9 .               . 6 7.M .                                                                       ",
"                          o n 2 .                 . j q .                                                                       ",
"                          . . o                     . o .                                                                       ",
"                              .                       . .                                                                       ",
"                                                                                                                                "
};
