/* XPM */
static char *_5e6fa16164a44f983a9fe4cf0d77336qn6dG6VzOuUOX7Iy[] = {
/* columns rows colors chars-per-pixel */
"64 64 181 2 ",
"   c None",
".  c #000000",
"X  c #0C0402",
"o  c #010A06",
"O  c #020E09",
"+  c #0C0C0C",
"@  c #130602",
"#  c #1B0A05",
"$  c #180803",
"%  c #03130C",
"&  c #05180F",
"*  c #061D12",
"=  c #0D1913",
"-  c #151515",
";  c #1B1C1C",
":  c #2E1108",
">  c #2C1007",
",  c #3B160A",
"<  c #311208",
"1  c #042214",
"2  c #082316",
"3  c #092619",
"4  c #072919",
"5  c #0A2C1C",
"6  c #002B17",
"7  c #00321B",
"8  c #0A311F",
"9  c #1B2922",
"0  c #0C3422",
"q  c #023B21",
"w  c #0D3A25",
"e  c #0E3E28",
"r  c #173D2B",
"t  c #1F3F30",
"y  c #272727",
"u  c #343434",
"i  c #3B3B3B",
"p  c #383738",
"a  c #43190B",
"s  c #4F1E0D",
"d  c #56200E",
"f  c #5C230F",
"g  c #652611",
"h  c #6B2812",
"j  c #7B2E15",
"k  c #004525",
"l  c #004927",
"z  c #0F422A",
"x  c #004D29",
"c  c #11442C",
"v  c #11492F",
"b  c #00512C",
"n  c #124C31",
"m  c #005C32",
"M  c #075833",
"N  c #135335",
"B  c #145B3A",
"V  c #145738",
"C  c #006536",
"Z  c #016738",
"A  c #016A39",
"S  c #16623F",
"D  c #176540",
"F  c #196D45",
"G  c #126940",
"H  c #067340",
"J  c #0B7A46",
"K  c #0A7A46",
"L  c #1B744A",
"P  c #1C7A4E",
"I  c #167549",
"U  c #1D7E51",
"Y  c #256C4B",
"T  c #2C6E4F",
"R  c #2A7351",
"E  c #267B53",
"W  c #37795A",
"Q  c #4B4B4B",
"!  c #444444",
"~  c #5C5B5B",
"^  c gray34",
"/  c #615F60",
"(  c #696768",
")  c #727574",
"_  c #803015",
"`  c #8D3517",
"'  c #8D3518",
"]  c #933719",
"[  c #A43E1B",
"{  c #AE411D",
"}  c #B9451F",
"|  c #B6441E",
" . c #C64A21",
".. c #CB4C22",
"X. c #D34F23",
"o. c #DC5325",
"O. c #E35526",
"+. c #EB5827",
"@. c #EF5A28",
"#. c #E95727",
"$. c #F25B28",
"%. c #F95D29",
"&. c #0F854E",
"*. c #10854F",
"=. c #1D8253",
"-. c #128B53",
";. c #1F8957",
":. c #1F8B58",
">. c #19965C",
",. c #1A995E",
"<. c #159057",
"1. c #208C5A",
"2. c #21935E",
"3. c #229760",
"4. c #239A62",
"5. c #299E68",
"6. c #3C966C",
"7. c #1FA165",
"8. c #24A267",
"9. c #25A469",
"0. c #26AB6D",
"q. c #28AE6F",
"w. c #28AF70",
"e. c #33A770",
"r. c #27B371",
"t. c #29B473",
"y. c #2BB876",
"u. c #32B779",
"i. c #39BA7E",
"p. c #30B677",
"a. c #418B69",
"s. c #499471",
"d. c #569B7B",
"f. c #7B827F",
"g. c #4CAF80",
"h. c #5EAD88",
"j. c #48BF87",
"k. c #46BE86",
"l. c #65B38F",
"z. c #66B490",
"x. c #4BC08A",
"c. c #5AC895",
"v. c #65CA9B",
"b. c #78CAA4",
"n. c #73D0A5",
"m. c #888888",
"M. c #808080",
"N. c #9A9798",
"B. c #969797",
"V. c #96A79F",
"C. c #A4A4A4",
"Z. c #ACABAC",
"A. c #A8B7B0",
"S. c #B6B6B6",
"D. c #BBBABA",
"F. c #92C1AB",
"G. c #84D4AF",
"H. c #87D3B0",
"J. c #97D8B9",
"K. c #A1DDC1",
"L. c #A9E2C7",
"P. c #B3E3CC",
"I. c #C4C5C4",
"U. c #CDCDCD",
"Y. c #D5D5D5",
"T. c gainsboro",
"R. c #C4EBD9",
"E. c #C4E9D8",
"W. c #E0DFE0",
"Q. c #CFF0E1",
"!. c #D9F3E6",
"~. c #D7F2E5",
"^. c #E4E3E3",
"/. c #EDECED",
"(. c #E9E6E7",
"). c #EDF1EF",
"_. c #EDF9F3",
"`. c #F4F3F4",
"'. c white",
"]. c #FEFEFE",
"[. c #F1FCF6",
/* pixels */
"                                                                                                                                ",
"                                  .                                                                                             ",
"            . .                   o .                                                                                           ",
"            % * .               o V &                                                                                           ",
"          . v L .               * 9.V .                                                                                         ",
"          . P w.w .           . z t.9.5 .                                                                                       ",
"          % 3.y.3.* .         . V t.t.2.* .                                                                                     ",
"          & 8.t.t.=.& .       . V t.t.t.=.& .     . . . . . . . . . . . .                                                       ",
"          & 4.t.t.t.P % .     . n t.t.t.y.F o . . . . . o & * * * % o . . . . .                                                 ",
"          o 1.t.t.t.t.P % .     5 q.t.q.F 2 . . . % q F 1.4.9.9.9.4.1.Y c % . . . .     . .                                     ",
"          . D t.t.t.t.t.=.& .   O 2.3.w . . . 1 l J 0.t.t.t.t.t.t.t.y.c.H.l.Y 4 . . . . . . .         .                         ",
"          . 5 0.t.t.t.t.t.;.* . . 8 * . . * x Z -.r.t.t.t.t.t.t.t.t.t.t.x.L.R.b.R * . . . . . .       .                         ",
"          . . P t.t.t.t.t.t.2.3 . . . o q C A <.r.t.t.t.t.t.t.t.t.t.t.t.r.y.n.~.Q.z.n . . . . . .   . . .                       ",
"        . * 0 3 9.t.t.t.t.t.t.4.8 . % x A A -.r.t.t.t.t.t.t.t.t.t.t.t.t.t.t.r.k.P.[.K.R O . . . . . . . .                       ",
"        . L 8.3 n r.t.t.t.t.t.t.8.w o x A -.r.t.t.t.t.t.t.t.t.t.t.t.t.t.t.t.t.r.p.G._.R.a.% . . . . . . .                       ",
"        * 8.t.1.* D t.t.t.t.t.t.t.9.z o M q.t.t.t.t.t.t.t.t.t.t.t.t.t.t.t.t.t.t.t.t.v.!.!.s.% . . . . . .                       ",
"        * 8.t.t.=.1 F t.t.t.t.t.t.t.0.z % =.t.t.t.t.t.t.t.t.t.t.t.t.t.t.t.t.t.t.t.t.r.j.E.!.a.o . . . .                         ",
"        . L t.t.t.=.3 F r.t.t.t.t.t.t.0.z & ;.t.t.t.t.t.t.t.t.t.t.t.t.t.t.t.t.t.t.t.t.r.i.P.R.T . . . .                         ",
"        . 1 4.t.t.t.1.0 B q.t.t.t.t.t.t.9.w 1 4.t.t.t.t.t.t.t.t.t.t.t.t.t.t.t.t.t.t.t.t.r.u.K.J.v . .                           ",
"          . 5 4.t.t.t.9.V N 4.t.t.t.t.t.t.8.5 0 0.t.t.t.t.t.t.t.t.t.t.t.t.t.t.t.t.t.t.t.t.t.u.J.h.& . .                         ",
"            . 1 =.t.t.t.r.;.D 1.r.t.t.t.t.t.3.* B t.t.t.t.t.t.t.t.t.t.t.t.t.t.t.t.t.t.t.t.t.t.u.v.Y . .                         ",
"            * e % N 8.t.t.t.w.4.0.t.t.t.t.t.t.U * 1.t.t.t.t.t.t.t.t.t.t.t.t.t.t.t.t.t.t.t.t.t.r.y.e.2 . .                       ",
"            3 9.L 2 2 F 0.t.t.t.t.t.t.t.t.t.t.r.N z r.t.t.t.t.t.t.t.t.t.t.t.t.t.t.t.t.t.t.t.q.6.F.E.A.Q .                       ",
"            2 0.t.9.S 2 5 F 9.t.t.t.t.t.t.t.t.t.9.0 1.t.t.t.t.t.t.t.t.t.t.t.t.r.r.r.t.t.t.q.R I.'.'.'.`.~                       ",
"            % 4.t.t.t.9.F w 0 S 2.r.t.t.t.t.t.t.t.L V t.t.t.t.t.t.t.t.t.t.8.P W d.g.y.r.t.=.f.'.'.^.S./.U.y                     ",
"            . L t.t.t.t.t.w.2.F V F 2.r.t.t.t.t.t.9.N 9.t.t.t.t.t.t.t.t.:.t B.^.`.).P.j.r.V Z.'.`.^ - S./.i                     ",
"            . 8 0.t.t.t.t.t.t.t.r.0.9.r.t.t.t.t.t.t.L 2.t.t.t.t.t.t.t.4.5 N.'.'.'.'.'.E.i.z N.'.`.! . ( T.y     . . . . . .     ",
"              . B r.t.t.t.t.t.t.t.t.t.t.t.t.t.t.t.t.4.1.t.t.t.t.t.t.t.B p `.'.'.T.C.W.'.n.B Q `.'.U.m.Y.C.o . . . # , a : . .   ",
"                o N 9.t.t.t.t.t.t.t.t.t.t.t.t.t.t.t.q.3.t.t.t.t.t.t.r.8 / '.'.(.p + Z.'.J.4.2 ( ^.'.`.N.; . $ f [ X.#.+.O.h .   ",
"                . . 3 F 4.r.t.t.t.t.t.t.t.t.t.t.t.t.r.0.t.t.t.t.t.t.q.4 ~ '.'.Y.- + Q (.J.r.=.3 y Q p o @ h  .@.$.$.$.$.O.s .   ",
"                . . o 1 1 w B L :.4.8.0.r.t.t.t.t.t.t.t.t.t.t.t.t.t.r.z y ^.'.`.M.u m./.h.r.t.9.N . . a } $.$.$.$.$.$.X.d . .   ",
"                  . % m m b l l G =.2.9.r.t.t.t.t.t.t.t.t.t.t.t.t.t.t.P o ) `.'.'.`.].V.5.t.t.2.* . h o.$.$.$.$.$.+.[ : . .     ",
"                  . . x A A A A -.t.t.t.t.t.t.t.t.t.t.t.t.t.t.t.t.t.t.r.N o ~ D.Y.I.) E r.t.9.5 . j +.$.$.$.$.@.} d X . .       ",
"                  . . 1 C A A Z H 0.t.t.t.t.t.t.t.t.t.t.t.t.t.t.t.0.7.7.4.D 1 = 9 r P r.t.t.D . f #.$.$.$.+.} f @ . .           ",
"                    . . k A A A A -.t.t.t.t.t.t.t.t.t.t.t.t.t.r.>.H A A A &.8.3.4.q.t.t.t.q.5 @  .$.$.O.[ s X . .               ",
"                    . . o l A A A A ,.t.t.t.t.t.t.t.t.t.t.t.t.r.K C C C C A 7.t.t.t.t.t.t.9.* < O.$.$.h . . .                   ",
"                      . . . 7 m A A A ,.r.t.t.t.t.t.t.t.t.t.t.t.8.*.K K K ,.r.t.t.t.t.t.t.q.5 $ ..$.$.` # . . .                 ",
"                        . . . % 7 b C A -.0.t.t.t.t.t.t.t.t.t.t.t.t.r.q.r.t.t.t.t.t.t.r.9.U 2 . g +.$.@..._ > . . .             ",
"                          . . . . . % 6 q M I 4.0.w.r.r.t.t.t.t.t.t.t.r.r.q.0.8.2.U S z * o . . . _ +.$.$.$.o.' : . .           ",
"                              . . . . . . . o % 3 8 w z v v v v v v z e 0 5 2 & O . . . . . . . . . h o.$.$.$.$.o.j $ . .       ",
"                                    . . . . . . . . . . . . . . . . . . . . . . . . . . .         . . , { +.$.$.$.$.| : .       ",
"                                        . . . . . . . . . . . . . . . . . .                         . . X d { O.$.$.%.{ X .     ",
"                                      . . . .             . . .                                         . . X < g ` ] d . .     ",
"                              . . . . . . .             . . . .                                             . . . . . . .       ",
"                            . . . . . . .           . . . . .                                                                   ",
"                            . . . . . .         . . . . . .                                                                     ",
"                                                . . . .                                                                         ",
"                                                . .                                                                             ",
"                                                                                                                                ",
"                                                                                                                                ",
"                                                                                                                                ",
"                                                                                                                                ",
"                                                                                                                                ",
"                                                                                                                                ",
"                                                                                                                                ",
"                                                                                                                                ",
"                                                                                                                                ",
"                                                                                                                                ",
"                                                                                                                                ",
"                                                                                                                                ",
"                                                                                                                                ",
"                                                                                                                                ",
"                                                                                                                                ",
"                                                                                                                                "
};
