/* XPM */
static char *_cb31470539c45999a63217813aeba2aZmOiAcQr21uOK8XO[] = {
/* columns rows colors chars-per-pixel */
"64 64 193 2 ",
"   c None",
".  c #B54B00",
"X  c #B45400",
"o  c #BB5B00",
"O  c #BA5C15",
"+  c #BE6300",
"@  c #BE620D",
"#  c #C35F00",
"$  c #C46400",
"%  c #CB6600",
"&  c #C46B00",
"*  c #CB6B00",
"=  c #C46E0C",
"-  c #D16C00",
";  c #C67100",
":  c #CB7700",
">  c #CC760B",
",  c #D57200",
"<  c #D97700",
"1  c #D47E01",
"2  c #DB7B00",
"3  c #D2760A",
"4  c #C16E1E",
"5  c #CF7E15",
"6  c #C3741E",
"7  c #C67B1D",
"8  c #C67B25",
"9  c #D48500",
"0  c #DB8400",
"q  c #D38900",
"w  c #DA8A00",
"e  c #D59F03",
"r  c #DE9B00",
"t  c #D2980A",
"y  c #CC8A16",
"u  c #C9821A",
"i  c #CE891C",
"p  c #CF9110",
"a  c #E08200",
"s  c #E48C00",
"d  c #E88B00",
"f  c #E39500",
"g  c #EE9500",
"h  c #E29A00",
"j  c #EE9B00",
"k  c #F09700",
"l  c #F39D00",
"z  c #DBA400",
"x  c #D5AA00",
"c  c #D9AE00",
"v  c #DEB200",
"b  c #E5A300",
"n  c #EEA300",
"m  c #E3AD00",
"M  c #EEAB00",
"N  c #F5A400",
"B  c #F5AC00",
"V  c #E2B500",
"C  c #EEB200",
"Z  c #E6B900",
"A  c #ECBC00",
"S  c #F5B400",
"D  c #F9B500",
"F  c #F6BB00",
"G  c #F9BD00",
"H  c #C98322",
"J  c #D18727",
"K  c #D08D23",
"L  c #D8A138",
"P  c #DDB334",
"I  c #DFB838",
"U  c #EEC100",
"Y  c #ECCF00",
"T  c #F5C300",
"R  c #F9C500",
"E  c #F6CB00",
"W  c #FECC00",
"Q  c #EED600",
"!  c #F6D400",
"~  c #FBD700",
"^  c #FAD500",
"/  c #FFD500",
"(  c #FFD700",
")  c #FDD500",
"_  c #FED300",
"`  c #F9D800",
"'  c #F9DA00",
"]  c #FFD800",
"[  c #FFDB00",
"{  c #FFDA00",
"}  c #FCD900",
"|  c #F9DF00",
" . c #F9DD00",
".. c #FFDC00",
"X. c #FFDF00",
"o. c #FCDE00",
"O. c #FEDC00",
"+. c #F3E300",
"@. c #F7E300",
"#. c #FAE200",
"$. c #FFE100",
"%. c #FEE200",
"&. c #FEE300",
"*. c #FFE300",
"=. c #FFE200",
"-. c #FCE200",
";. c #FBE500",
":. c #F9E500",
">. c #FFE400",
",. c #FFE500",
"<. c #FFE700",
"1. c #FDE600",
"2. c #FEE400",
"3. c #F6EA00",
"4. c #FBEA00",
"5. c #FCE900",
"6. c #FEE800",
"7. c #FEE900",
"8. c #FFE900",
"9. c #FFE800",
"0. c #FFEA00",
"q. c #FFEB00",
"w. c #FCEA00",
"e. c #FBEC00",
"r. c #FBEF00",
"t. c #FFED00",
"y. c #FEEE00",
"u. c #FEEF00",
"i. c #FFEF00",
"p. c #FFEE00",
"a. c #FCED00",
"s. c #FEED00",
"d. c #FFF000",
"f. c #FFF100",
"g. c #FFF300",
"h. c #FDF300",
"j. c #FDF500",
"k. c #FEF400",
"l. c #FEF500",
"z. c #FFF500",
"x. c #FFF400",
"c. c #FFF600",
"v. c #FFF700",
"b. c #FEF700",
"n. c #FDF600",
"m. c #FEF400",
"M. c #FFF900",
"N. c #FFF900",
"B. c #FEFA00",
"V. c #FEFB00",
"C. c #FFFB00",
"Z. c #FFFA00",
"A. c #FCF900",
"S. c #FFFC00",
"D. c #FEFD00",
"F. c #FEFE00",
"G. c #FFFE00",
"H. c yellow",
"J. c #FEFF00",
"K. c #FEFC03",
"L. c #FEFF08",
"P. c #F9E412",
"I. c #F9E41D",
"U. c #FEFE16",
"Y. c #FEFE18",
"T. c #F9E429",
"R. c #FDFD26",
"E. c #FDFE28",
"W. c #F9E435",
"Q. c #F4E73F",
"!. c #F4E93F",
"~. c #FEFD36",
"^. c #FDFD38",
"/. c #DAAB46",
"(. c #DAAA4A",
"). c #DDB240",
"_. c #E2BE44",
"`. c #F0DF4A",
"'. c #EBD45D",
"]. c #F5DC52",
"[. c #F0DF59",
"{. c #F8E441",
"}. c #F2E34D",
"|. c #F8E44C",
" X c #FDFD46",
".X c #FEFE49",
"XX c #F4EB5E",
"oX c #FCFB56",
"OX c #FCFD5A",
"+X c #EDDB66",
"@X c #FBFA66",
"#X c #FDFE6A",
"$X c #FAF774",
/* pixels */
"                                                W W E E W _ { $.<.0.0.i.i.d.d.                                                  ",
"                                          W W W W W W / { o.$.$.<.<.0.0.i.d.d.v.v.v.                                            ",
"                                      W W W W W W _ { { o.o.{ ~ ~ ~ ~ ` | #.0.i.v.v.A.A.                                        ",
"                                  W W W W W W W _ / / _ E T F F F F F F F T E ! | i.v.A.A.H.                                    ",
"                                W W W W W W W W _ W T S S B B B S S S S S F F F T E ` e.v.A.H.H.                                ",
"                              W W W W W _ _ W W G S N N B B B B S S S S S S F F F F T E | d.A.H.H.                              ",
"                            W W W W W / / _ R S N N N N N B B B B B S S S S S F F F F F T ! e.A.H.H.                            ",
"                          W W W W W / { / R S N N N N N N N N N B B S S S S S F F F F F F T E ;.A.H.H.                          ",
"                        W W W W W { o.{ E S N N N N N N N N N B B B S S S S S S F F F F F F T E ;.A.H.H.                        ",
"                      W W W W W { $.o.W S B N N N N N N N N N N B B B S S S S S S S F F F F F T E ;.A.H.H.                      ",
"                    W W W W W / <.<.~ F B B N N N N N N N N N N B N M E S S S S S S F F F F F F T E w.H.H.                      ",
"                    W W W W _ <.0.o.F S S B B N N N N N N N N N N j Q v.G S S S S S S F F F F F T T E h.H.H.                    ",
"                  W W W W W $.i.0.E S S S S B B B N N N N N N N N m A.H.$.S S S S S S F F F F F F T T ! v.H.H.                  ",
"                W W W W W / d.i.` F S S S S B B B N N N N N N N h +.H.H.H.W B S S S S S F F F F F F T T #.H.H.                  ",
"                W W W W W 0.v.0.T F F S S S S B B B N N N N N g Z H.H.H.H.v.F B S S S S S F F F F F F T E e.H.H.                ",
"              W W W W W { v.v.` F F F F S S S S B B N N N N l r h.H.H.H.H.H.;.S S S S S S S F F F F F F T ` A.H.                ",
"              W W W W W i.H.i.E F F F F S S S S S B B N N N f Q H.H.H.H.H.H.H.! B S S S S S S F F F F F T T w.H.H.              ",
"              W W W W / A.H.| T T F F F F S S S S S B B N j V H.H.H.H.H.H.H.H.v.F B S S S S S F F F F F F T ~ A.H.              ",
"            W W W W W $.A.v.E T T F F F F F S S S S B B N r 3.H.H.H.H.H.H.H.H.H.;.S B S S S S S F F F F F F T i.A.H.            ",
"            W W W W W 0.v.;.E T T T F F F F F S S S S B f U H.H.H.H.H.H.H.H.H.H.H.! B B S S S S S F F F F F F | A.A.            ",
"            W W W W / i.d.! T T T T T T F F F F S S S B z v.A.A.A.A.A.A.A.A.A.A.A.d.E S B S S S S S F F F F F E v.A.            ",
"          W W W W W { 0.<.T T T T T T T F F F F S S F ! e.v.v.v.v.v.v.v.v.v.v.v.v.v.d.$.R S S S S S S F F F F T 0.A.A.          ",
"          W W W W W { <.` F F T T T T T T F F F T ~ 0.d.d.i.i.i.i.i.i.i.i.i.i.i.i.i.i.i.i.$.W F S S S F F F F F | v.A.          ",
"          W W W W W o.$.E F F F T T T T T T E ~ <.0.0.0.0.0.0.0.0.0.0.0.0.0.0.0.0.0.0.0.0.0.0.$.~ T F S F F F F E d.v.          ",
"          W W W W W { o.T S F F T T T T W { $.<.<.$.$.$.$.$.$.$.$.$.$.$.$.$.$.$.$.$.$.$.$.$.$.$.$.$.{ E G S S B F w.v.          ",
"        W W W W W W { / S S S F F F E / o.o.o.o.o.o.o.o.o.o.o.o.o.o.o.o.o.o.o.o.o.o.o.o.o.o.o.o.o.o.o.o.F b M M M #.v.v.        ",
"        W W W W W W / W S S S F h & T { { { { { { { { { { { { { { { { { { { { { { { / / / / / / / / / _ w j n M M ! d.d.        ",
"        W W W W E W _ R B S S S n X q _ _ _ _ _ _ _ _ _ _ _ _ _ _ _ _ _ _ _ _ _ _ _ _ _ _ _ _ _ _ _ _ M 0 N n n M E d.d.        ",
"        W W W W E W W G N B S S S 9 X C W W W W W W W W W W W W W W W W W W W W W W W W W W W W W W R 0 j n n n n T i.d.        ",
"        W W W E E W W G N N B S S B + ; R W W W W W W W W W W W W W W W W W W W W W W W W W W W W W b w n n n n n F 0.i.        ",
"        W W E E R W W D N N N B S S h X h W W W W W W W W W W W W W W W W W W W W W W W W W W W W T 0 j n n n n n F 0.i.        ",
"        W W E R R W W D N N N B B S S : o F W W W W W W W W W W W W W W W W W W W W W W W W W W W h s j j n n n n S <.i.        ",
"        W E R R T W W D N N N N B B S n o 9 W W W W W W W W W W W W W W W W W W W W W W W W W W F 0 j j j j n n n S $.0.        ",
"        W R R T T W W D N N N N N B S S w X C W W W W W W W W W W W W W W W W W W W W W W W W W h s j j j j n n n S $.0.        ",
"        E R R T T W W D N N N N N B B S B $ : W W W W W W W W W W W W W W W W W W W W W W W W F 0 j j j j j j n n S $.<.        ",
"        E R T T T W W G N N N N N N N B S f X b W W W W W W W W W W W W W W W W W W W W W W W f s j j j j j j j n S $.<.        ",
"        R T T T T E W G N N N N N N N B B B & & E W W W W W W W W W W W W W W W W W W W W W T s g g j j j j j j j F $.$.        ",
"        R T T T T R W T N N N N N N N N N N s . C / _ _ _ _ / / / / / / / / / / / / / / / / E j g g g j j j j j j T $.$.        ",
"        T T T T T T W R N N N N N l l j j j j o b o.o.o.o.o.o.o.o.o.o.o.o.o.o.o.o.o.o.o.o.o.W j g g g g j j j j j T o.$.        ",
"          T T T T T W W B N l l k g g g j j j # z 0.<.<.<.<.<.<.<.<.<.<.<.<.<.<.<.<.<.<.<.0.~ j j g g g g j j j n W o.          ",
"          T T T U T W W B k g g g g g g g j j $ z d.i.i.i.i.i.i.i.i.i.i.i.i.i.i.i.i.i.i.d.d.` j j g g g g g j j B _ {           ",
"          T T T A A E W S g g g g g g g g g j $ z A.v.v.v.v.v.A.A.A.A.A.A.A.A.A.A.A.A.A.A.A.#.j j j g g g g g j S / {           ",
"          T T A A A T W G j g g g g g g g g j % e L.L.L.L.L.L.L.L.L.L.L.L.L.L.L.L.L.L.L.L.L.;.n j j j g g g g j F / /           ",
"            U A A A U W R N g g g g g g g g g % t U.U.U.U.U.U.U.U.U.U.U.U.U.U.U.U.U.U.Y.Y.Y.P.n j j j g g g g j R /             ",
"            A A A A A E W S g g g g g g g g g * p R.R.R.R.R.R.R.R.R.R.R.R.R.R.R.R.R.R.R.E.E.I.n j j j j g g g B W _             ",
"            A A A A A T W G j g g g g g g g g - y ~.~.~.~.~.~.~.~.~.~.~.~.~.~.~.~.^.^.^.^.^.T.n j j j j j g j F W _             ",
"              A A A Z A W W B g g g g g g g g , u  X X X X X X X.X.X XQ.!. X.X.X.X.X.X.X.X.XW.n n j j j j j N R W               ",
"              A A Z Z Z T W G j g g g g g g g , 7 oXoXoXoXoXOXoX`.P i = @ H I }.oXOXOXOXOXOX{.n n n j j j j F W W               ",
"                A Z Z V A W W B g g g g g g g < 6 @X#X#X#XXX_.K > 1 f n h 1 $ @ H ).[.@X#X#X|.n n n j j j B W _                 ",
"                Z Z Z V V T W G j g g g g g g 2 4 $X$X'.L 5 1 f n M M M C C C b 9 & @ 8 /.+X].n n N n j n T / _                 ",
"                  Z V V V Z W W B g g g g g g 0 O (.J 3 a g j n n n n M M M C C C C b w * @ u n n n n n S / {                   ",
"                  Z V V v v T W R N g g g g g d % 2 d g g g j j j n n n M M C C C C C C M b h n n n n B ! o.{                   ",
"                    V V v v V R W G j g g g g g g g g g g g j j j n n n M M M C C C C C M M M M M n M E $.o.                    ",
"                    V v v v c Z W W S j g g g g g g g g g g g j j j n n n M M M C C C C C M M M M M E $.$.                      ",
"                      v v v c c A W W S j g g g g g g g g g g g j j j n n n M M M C C C C M M M M E <.0.<.                      ",
"                        v c c c c T W W S j g g g g g g g g g g g j j j n n n M M M C C C C M C E 0.i.0.                        ",
"                          c c c x c T W W S j g g g g g g g g g g g j j j n n n M M C C C C A ! i.d.i.                          ",
"                            c x x x c T W W G N g g g g g g g g g g j j j n n n M M M C C T @.v.v.d.                            ",
"                              x x x x c U W W R S j g g g g g g g g g j j j n n n M M A ! h.H.A.A.                              ",
"                                x x x x c A E W W T B j j g g g g g g g j j j n n C T #.d.A.H.H.                                ",
"                                  x x x x x V T W W W T S B n j j g g j j n M S T ` <.i.d.v.                                    ",
"                                      x x x x c Z T W W W W R T F S S S F T W / o.$.<.0.                                        ",
"                                          x x x x c Z T E W W W W W W W W W _ / { o.                                            ",
"                                                  x x x v A T E W W W W W W W                                                   "
};
