/* XPM */
static char *bd59ba7e25f04903b77509ad885a4788Km4amZiFYsyRq9cB[] = {
/* columns rows colors chars-per-pixel */
"64 64 182 2                                   ",
"   c None",
".  c #C46B09",
"X  c #CC7304",
"o  c #D77E00",
"O  c #D97900",
"+  c #C36F12",
"@  c #D38400",
"#  c #DD8700",
"$  c #D68A00",
"%  c #DC8A00",
"&  c #D5820F",
"*  c #D9880B",
"=  c #DD9600",
"-  c #CB821B",
";  c #D18312",
":  c #D88210",
">  c #E28601",
",  c #E68A01",
"<  c #E29700",
"1  c #EE9500",
"2  c #E39A00",
"3  c #EE9B00",
"4  c #F09600",
"5  c #F09B00",
"6  c #D4AA00",
"7  c #D9AE00",
"8  c #DDB100",
"9  c #E2A400",
"0  c #EEA300",
"q  c #EEAB00",
"w  c #F4A400",
"e  c #F4AB00",
"r  c #E2B500",
"t  c #EFB200",
"y  c #E6B900",
"u  c #EBBC00",
"i  c #F5B400",
"p  c #F8B500",
"a  c #F6BB00",
"s  c #F9BE00",
"d  c #CE852B",
"f  c #EFC300",
"g  c #EECC00",
"h  c #F4C300",
"j  c #F9C400",
"k  c #F7CB01",
"l  c #FFCE00",
"z  c #FFCF00",
"x  c #FFCC00",
"c  c #FDCB00",
"v  c #F6CD0C",
"b  c #EDD104",
"n  c #F3D000",
"m  c #F7D400",
"M  c #F4D200",
"N  c #F9D100",
"B  c #FAD100",
"V  c #F9D200",
"C  c #FCD100",
"Z  c #FDD000",
"A  c #FFD100",
"S  c #FED100",
"D  c #FDD300",
"F  c #FED200",
"G  c #FFD200",
"H  c #FFD300",
"J  c #FBD500",
"K  c #F8D700",
"L  c #FAD600",
"P  c #FFD400",
"I  c #FFD700",
"U  c #FCD500",
"Y  c #FED500",
"T  c #F3DA00",
"R  c #F3DC00",
"E  c #F9D800",
"W  c #FBD900",
"Q  c #F9DB00",
"!  c #FBDB00",
"~  c #FADB00",
"^  c #FCD800",
"/  c #FED800",
"(  c #FFD800",
")  c #FFD900",
"_  c #FDDB00",
"`  c #FFDA00",
"'  c #FEDB00",
"]  c #F9DD00",
"[  c #FADC00",
"{  c #F9DE00",
"}  c #FEDD00",
"|  c #FEDE00",
" . c #FFDE00",
".. c #FFDF00",
"X. c #FDDB00",
"o. c #ECCF10",
"O. c #EBCD1B",
"+. c #F6CD14",
"@. c #F6CE1C",
"#. c #FBE000",
"$. c #FBE100",
"%. c #FBE300",
"&. c #FEE100",
"*. c #FFE000",
"=. c #FEE300",
"-. c #FFE300",
";. c #FEE200",
":. c #FBE500",
">. c #FBE600",
",. c #FDE500",
"<. c #FFE400",
"1. c #FFE500",
"2. c #FCE700",
"3. c #FFE700",
"4. c #FEE500",
"5. c #FBEB00",
"6. c #F8EA00",
"7. c #FEE900",
"8. c #FFE900",
"9. c #FDEB00",
"0. c #FFEA00",
"q. c #FFEB00",
"w. c #F9ED00",
"e. c #FCED00",
"r. c #FDEE00",
"t. c #FEEF00",
"y. c #FFEF00",
"u. c #FFEE00",
"i. c #FEEE00",
"p. c #FCF100",
"a. c #FFF000",
"s. c #FEF000",
"d. c #FDF300",
"f. c #FEF200",
"g. c #FDF400",
"h. c #FEF500",
"j. c #FFF500",
"k. c #FFF400",
"l. c #FDF700",
"z. c #FFF600",
"x. c #FFF200",
"c. c #FDF900",
"v. c #FFF800",
"b. c #FEF900",
"n. c #FFF900",
"m. c #FDFA00",
"M. c #FEFB00",
"N. c #FFFB00",
"B. c #FEFC00",
"V. c #FFFD00",
"C. c #FFFC00",
"Z. c #FEFE00",
"A. c #FFFE00",
"S. c #FEFF00",
"D. c yellow",
"F. c #FEFB02",
"G. c #FEFF08",
"H. c #FFFE16",
"J. c #FEFF18",
"K. c #EACA26",
"L. c #F6CF24",
"P. c #F6CF2C",
"I. c #E9C831",
"U. c #E8C53C",
"Y. c #F2C636",
"T. c #F6D035",
"R. c #FEFD26",
"E. c #FDFE29",
"W. c #FEFE37",
"Q. c #FDFE38",
"!. c #D8A745",
"~. c #E6C245",
"^. c #E5C34D",
"/. c #EACF4E",
"(. c #EFDC48",
"). c #F0DF4B",
"_. c #E8CC57",
"`. c #F9F445",
"'. c #FEFD47",
"]. c #FEFE49",
"[. c #FDFF5A",
"{. c #FEFF6B",
/* pixels */
"                                                        x x x x x x ) ,.7.s.                                                    ",
"                                                    x x x x x x x P *.,.7.s.g.N.                                                ",
"                                                  x x x x x x x A ) ) K E #.s.N.                                                ",
"                                                x x x x x x x x A A h a a h K t.N.                                              ",
"                                              x x x x x x x x x x i e i i i a m g.V.                                            ",
"                                              x x x x x x x x x p e e i i i a a { N.                                            ",
"                                            x x x x x x x x P s w e e e i i a a j t.V.                                          ",
"                                            x x x x x x x A A i w w e e i i a a a K V.                                          ",
"                                          x x x x x x x x ) c e w w e e i i i a a j s.V.                                        ",
"                                          x x x x x x x A } a e w w e e e i i a a a { V.                                        ",
"                                        x x x x x x x x ) ) i e w w w e i i i a a a k g.                                        ",
"                                        x x x x x x x x *.c i e e w w w n a i i a a h 5.V.                                      ",
"                                        x x x x x x x A ,.j i e e w w e 5.c i i a a a { V.                                      ",
"                                      x x x x x x x x ) ,.a i e e w w t N.E i i a a a k N.                                      ",
"                                      x x x x x x x x *.#.a i i e e w h V.t.i i i a a j s.                                      ",
"                                      x x x x x x x x 7.K a i i e e w T V.N.a i i a a h >.                                      ",
"                                      x x x x x x x x t.c a i i e e 0 w.V.V.N i i a a a E V.                                    ",
"                                    x x x x x x x x A s.k a a i i e t N.V.V.#.i i i a a N N.                                    ",
"                                    x x x x x x x x K t.j a a i i e f V.V.V.s.a i i a a k g.                                    ",
"                                    x x x x x x x c E >.j h a i i e R V.V.V.V.j i i a a h t.                                    ",
"                                    x x x x x x c j E { j h a a i t w.V.N.N.N.{ i i i a a ,.                                    ",
"                                    x x x x x x c j E N h h a a a E g.g.g.g.g.s.c i i a a #.                                    ",
"                                    x x x x x x c j ) c h j h a N t.t.t.t.t.t.t.7.c i a a E N.                                  ",
"                                  x x x x x x c j j ) j a j h c ,.7.7.7.7.7.7.7.7.,.c i a N g.                                  ",
"                                  x x x x x x c j j P a a j c *.,.*.*.*.*.*.*.*.*.*.*.c i j s.                                  ",
"                                  x x x x x c j j j A a a j ) } } } } } } } } } } } } N 0 a t.                                  ",
"                                  x x x x x c j h h x i 0 9 ) ) ) ) ) ) ) ) ) ) ) P ) a 3 i 7.                                  ",
"                                  x x x x c j j h h c i q @ A A A A A A A A A A A A A q 0 i >.                                  ",
"                                  x x x x c j h f h j e i @ a x x x x x x x x x x x x 3 0 t >.                                  ",
"                                  x x x c j j h u h j e i $ q x x x x x x x x x x x j 3 0 q #.                                  ",
"                                  x x x c j h h u h j e i 2 = x x x x x x x x x x x a 3 0 q {                                   ",
"                                  x x c j j h u u f s w e q @ x x x x x x x x x x x q 3 0 q {                                   ",
"                                  x x c j h h u y u s w e e @ a x x x x x x x x x x 0 3 0 q E                                   ",
"                                  x c j j h u u y u s w w i % q x x x x x x x x x j 3 3 3 e E                                   ",
"                                  x c j h h u u y u j w w e 2 = x x x x x x x x x a 1 3 3 w E                                   ",
"                                  c j j h f u y y y j w w e 0 $ x x x x x x x x x i 1 3 3 w E                                   ",
"                                  c j h h u u y y y j w w w e @ j x x x x x x x x e 1 3 3 e )                                   ",
"                                  j j h f u y y r y j w w w w o a P P P P P P P P i 1 3 3 e )                                   ",
"                                  j h h u u y y r r j e w 5 5 # a } } } } } } } } a 1 1 3 e )                                   ",
"                                  j h f u y y r r r h e 5 1 5 # f ,.,.,.,.,.,.,.7.h 1 1 3 e )                                   ",
"                                  h h u u y y r 8 8 h w 1 1 5 # g s.t.t.t.t.t.s.s.j 1 1 1 e )                                   ",
"                                    h u y y r r 8 7 h w 1 1 4 > g N.N.N.N.N.N.N.N.k 1 1 1 i )                                   ",
"                                    u u y y r 8 8 7 u e 1 1 4 > b G.G.G.G.G.G.G.G.k 3 1 1 i                                     ",
"                                    u y y r r 8 7 6 u e 1 1 4 > o.H.H.H.H.H.H.J.J.v 3 1 1 s                                     ",
"                                    u y y r 8 8 7 6 y i 1 1 4 > O.R.R.R.R.R.R.E.E.+.3 3 3 j                                     ",
"                                    y y r r 8 7 6 6 r s 1 1 4 > K.W.W.W.W.Q.Q.Q.Q.@.3 3 5 j                                     ",
"                                    y y r 8 8 7 6 6 8 h 3 1 4 > I.].'.].`.`.].].].L.3 3 w x                                     ",
"                                      y r 8 7 6 6 6 6 h w 1 1 > U.[.[.(.- - ).[.[.P.3 3 e x                                     ",
"                                      r 8 8 7 6 6 6 6 h e 1 1 > ~.{./.; < @ + ^.{.T.0 3 a                                       ",
"                                      r 8 7 6 6 6 6 6 y i 1 1 > ^._.& 3 q t 2 . !.Y.0 0 j                                       ",
"                                      8 8 7 6 6 6 6 6 r s 3 1 , d : 1 0 0 q t 0 X * 0 e A                                       ",
"                                        7 6 6 6 6 6 6 7 j w 1 , O 1 3 3 0 q t t q 0 0 a )                                       ",
"                                        7 6 6 6 6 6 6 6 h e 1 1 1 1 1 3 0 q t t q q q k *.                                      ",
"                                        6 6 6 6 6 6 6 6 y s 3 1 1 1 1 3 0 0 q t t q i E                                         ",
"                                          6 6 6 6 6 6 6 8 j w 1 1 1 1 3 3 0 q t t q j ,.                                        ",
"                                          6 6 6 6 6 6 6 6 j i 1 1 1 1 3 3 0 q t t t { t.                                        ",
"                                            6 6 6 6 6 6 6 y j 5 1 1 1 1 3 0 0 q t h t.                                          ",
"                                            6 6 6 6 6 6 6 7 c i 1 1 1 1 3 3 0 q u >.g.                                          ",
"                                              6 6 6 6 6 6 6 u x w 1 1 1 1 3 0 q M N.                                            ",
"                                              6 6 6 6 6 6 6 8 c j w 1 1 1 3 0 a t.V.                                            ",
"                                                6 6 6 6 6 6 6 y x j w 3 1 3 a } s.                                              ",
"                                                  6 6 6 6 6 6 6 h x j a i j P ,.                                                ",
"                                                    6 6 6 6 6 6 7 h x x x x P }                                                 ",
"                                                        6 6 6 6 6 7 u x x x                                                     "
};
