/* XPM */
static char *_ffa12d9ce134517d130eccf4b61d4ff0fjyTyTxriECXlbl[] = {
/* columns rows colors chars-per-pixel */
"64 64 183 2 ",
"   c None",
".  c #AC4400",
"X  c #AC4900",
"o  c #B34700",
"O  c #B44B00",
"+  c #BA4C00",
"@  c #B45300",
"#  c #BE5100",
"$  c #BE5D06",
"%  c #BF5E08",
"&  c #B75919",
"*  c #BD6300",
"=  c #BE6800",
"-  c #BC600D",
";  c #BE6413",
":  c #C15500",
">  c #C35B00",
",  c #C16700",
"<  c #CA6300",
"1  c #C76A00",
"2  c #C16609",
"3  c #C47000",
"4  c #CB7700",
"5  c #CC7D00",
"6  c #CB740A",
"7  c #D37505",
"8  c #D37B00",
"9  c #D97A00",
"0  c #C06719",
"q  c #CE7716",
"w  c #C97A14",
"e  c #C67B1C",
"r  c #CD7C18",
"t  c #C17024",
"y  c #C67D25",
"u  c #CE8000",
"i  c #D58300",
"p  c #DB8300",
"a  c #DA8D00",
"s  c #DC9100",
"d  c #DD9A00",
"f  c #DF950D",
"g  c #CD811C",
"h  c #D39C1B",
"j  c #E38400",
"k  c #E38E00",
"l  c #E98E00",
"z  c #E49300",
"x  c #EE9400",
"c  c #E39B00",
"v  c #EE9B00",
"b  c #F29B00",
"n  c #DBA700",
"m  c #DFAD00",
"M  c #DCAF0D",
"N  c #D8A615",
"B  c #EEA300",
"V  c #EEAC00",
"C  c #F5A400",
"Z  c #F5AC00",
"A  c #EEB200",
"S  c #E1BA01",
"D  c #EDBE00",
"F  c #F5B400",
"G  c #F5BB00",
"H  c #F8BE00",
"J  c #CA8624",
"K  c #C9812C",
"L  c #CF9121",
"P  c #D19325",
"I  c #D39033",
"U  c #D59A35",
"Y  c #D7A330",
"T  c #D8A435",
"R  c #D8A73B",
"E  c #E0B838",
"W  c #E6C500",
"Q  c #EFC100",
"!  c #F5C300",
"~  c #FAC400",
"^  c #F5CC00",
"/  c #FECC00",
"(  c #F4C309",
")  c #EAD000",
"_  c #EEDB00",
"`  c #F6D300",
"'  c #FDD300",
"]  c #F6DB00",
"[  c #FBD900",
"{  c #F9D900",
"}  c #FEDB00",
"|  c #FDD900",
" . c #F8DF00",
".. c #FADD00",
"X. c #FDDC00",
"o. c #FEDD00",
"O. c #FEDE00",
"+. c #FEDC00",
"@. c #F4C413",
"#. c #F4C41D",
"$. c #F7E200",
"%. c #F2E500",
"&. c #FAE200",
"*. c #FDE000",
"=. c #FEE100",
"-. c #FEE200",
";. c #FEE300",
":. c #FBE700",
">. c #F9E600",
",. c #FEE400",
"<. c #FEE500",
"1. c #FEE600",
"2. c #FDE500",
"3. c #FEE500",
"4. c #F6EC00",
"5. c #FAEA00",
"6. c #FEE800",
"7. c #FEE900",
"8. c #FEEA00",
"9. c #FCEB00",
"0. c #FBEE00",
"q. c #FEED00",
"w. c #FDEE00",
"e. c #FEEE00",
"r. c #FEEF00",
"t. c #FDEC00",
"y. c #FEED00",
"u. c #FBF200",
"i. c #FEF100",
"p. c #FCF300",
"a. c #FEF200",
"s. c #FDF100",
"d. c #FCF400",
"f. c #FEF500",
"g. c #FEF400",
"h. c #FDF700",
"j. c #FEF600",
"k. c #FEF700",
"l. c #FEF300",
"z. c #FDF800",
"x. c #FEF800",
"c. c #FEF900",
"v. c #FEFA00",
"b. c #FEFB00",
"n. c #FDFA00",
"m. c #FEFC00",
"M. c #FEFD00",
"N. c #FEFE00",
"B. c #FEFF00",
"V. c yellow",
"C. c #FDFC00",
"Z. c #FEFB03",
"A. c #FEFE08",
"S. c #FEFE16",
"D. c #FEFE18",
"F. c #F3C32A",
"G. c #F3C423",
"H. c #FDFD26",
"J. c #FDFD28",
"K. c #F1E23E",
"L. c #FDFD36",
"P. c #FDFD38",
"I. c #D9AA47",
"U. c #DDB151",
"Y. c #E8CC43",
"T. c #E9CE4F",
"R. c #EFDD4A",
"E. c #E5C555",
"W. c #E9CF51",
"Q. c #F5E941",
"!. c #F9F345",
"~. c #FDFD47",
"^. c #FDFD49",
"/. c #F5EB51",
"(. c #F9F556",
"). c #FCFD5A",
"_. c #EAD160",
"`. c #F6EE61",
"'. c #F3E96C",
"]. c #FCFB67",
"[. c #FCFD6A",
"{. c #F5EC71",
"}. c #FCFB78",
/* pixels */
"                                                    =.=.,.,.6.6.6.e.e.a.a.a.                                                    ",
"                                            | O.O.O.=.=.=.,.,.6.6.6.e.e.a.a.a.j.j.c.                                            ",
"                                        ' ' | | O.O.| [ { { { { { [  .&.>.6.a.a.j.j.c.c.                                        ",
"                                    ' ' ' ' ' ' ~ ! G G G G G G G G G ! ! ^ `  .9.a.j.c.c.c.V.                                  ",
"                                / / / ' / ~ G F Z Z Z Z Z F F F F F F F G G G ! ^ ` &.0.j.c.c.V.                                ",
"                            ' ' / / ~ G F Z C Z Z Z Z Z Z Z F F F F F F F G G G G G ! ^  .0.c.V.V.V.                            ",
"                          ' ' ' / H Z C C C C C Z Z Z Z Z Z Z F F F F F F F G G G G G G ! ^ $.a.c.V.V.                          ",
"                      O.| | ' ~ F C C C C C C C C Z Z Z Z Z Z Z F F F F F F F G G G G G G G ! ` 9.c.V.V.V.                      ",
"                    =.O.O.| ~ F Z C C C C C C C C C Z Z Z Z Z Z Z F F F F F F F G G G G G G G ! ^ $.j.V.V.V.                    ",
"                  ,.=.=.| ! F Z Z Z C C C C C C C C C Z Z Z Z Z Z Z F F F F F F F G G G G G G G ! !  .j.V.V.V.                  ",
"                6.,.,.O.! F Z Z Z Z Z C C C C C C C C C Z Z Z B ! G Z F F F F F F F G G G G G G G ! ! ] u.V.V.V.                ",
"              e.6.6.=.! F F Z Z Z Z Z C C C C C C C C C C Z v m z.6.F Z F F F F F F G G G G G G G G ! ! ` u.V.V.V.              ",
"              e.e.,.^ F F F F Z Z Z Z Z Z C C C C C C C C C d 4.V.V.&.F Z F F F F F F F G G G G G G ! ! ! ] j.V.V.              ",
"            a.a.e.` G F F F F F Z Z Z Z Z Z C C C C C C C s _ V.V.V.V.[ Z Z F F F F F F F G G G G G G G ! !  .c.V.V.            ",
"          j.j.a. .G G F F F F F F Z Z Z Z Z Z C C C C C k W V.V.V.V.V.V.' Z Z F F F F F F F G G G G G G G ! ! >.c.V.V.          ",
"          c.j.9.! G G G F F F F F F Z Z Z Z Z Z C C C z m V.V.V.V.V.V.V.c.~ Z Z F F F F F F F G G G G G G G ! ^ 0.V.V.          ",
"        V.c.j.` G G G G G F F F F F F Z Z Z Z Z Z C v d u.V.V.V.V.V.V.V.V.j.G Z Z F F F F F F F G G G G G G G ! ` j.V.V.        ",
"      c.V.V.9.! ! G G G G G F F F F F F Z Z Z Z Z C s %.V.V.V.V.V.V.V.V.V.V.e.G Z Z F F F F F F F G G G G G G G ! >.c.c.V.      ",
"      j.c.c.` ! ! ! G G G G G F F F F F F Z Z Z Z a ) V.V.V.V.V.V.V.V.V.V.V.V.>.F Z Z F F F F F F F G G G G G G G ` a.c.c.      ",
"      a.j.>.^ ! ! ! ! G G G G G F F F F F F Z Z s S V.V.V.V.V.V.V.V.V.V.V.V.V.V. .F Z Z F F F F F F F G G G G G G ! >.c.c.      ",
"    6.e.e.` ! ! ! ! ! ! G G G G G G F F F F F B n h.V.c.c.c.c.c.c.c.c.c.c.c.c.c.c.[ G Z Z F F F F F F F G G G G G G ` a.c.c.    ",
"    6.e.&.! ! ! ! ! ! ! ! G G G G G F F F G ^ ] u.j.j.j.j.j.j.j.j.j.j.j.j.j.j.j.j.j.e. .~ F F F F F F F F G G G G G ! >.j.c.    ",
"  =.,.,.' G G ! ! ! ! ! ! ! G G G G G ! ' ,.e.a.a.e.e.e.e.e.e.e.e.e.e.e.e.e.e.e.e.e.e.e.e.,.{ ~ G F F F F F G G G G G [ j.j.j.  ",
"  O.=.=.! G G G ! ! ! ! ! ! ! ! ! / O.,.6.6.6.6.6.6.6.6.6.6.6.6.6.6.6.6.6.6.6.6.6.6.6.6.6.6.6.,.=.{ ~ G F F F G G G G ! 0.j.j.  ",
"  | O.{ G F G G G ! ! ! ! ^ / [ =.,.,.,.,.,.=.=.=.=.=.=.=.=.=.=.=.=.=.=.=.=.=.=.=.=.=.=.=.=.=.=.=.=.=.O.{ ~ G G F F Z A  .j.j.  ",
"  ' | ~ F F F G G G G ! ' | O.O.O.O.O.O.O.O.O.O.O.O.O.O.O.O.O.O.O.O.O.O.O.O.O.O.O.O.O.O.O.O.O.O.O.O.O.O.O.O.! c B B V V ` a.a.  ",
"' ' ' ! Z F F F G a * A | | | | | | | | | | | | | | | | | | | | | | | | | | | | | | | | ' ' ' ' ' ' ' ' | ' i z B B B V ! e.a.a.",
"/ ' ' F Z Z F F F c O = ! ' ' ' ' ' ' ' ' ' ' ' ' ' ' ' ' ' ' ' ' ' ' ' ' ' ' ' ' ' ' ' ' ' ' ' ' ' ' ' ' c p B B B B B G 6.a.a.",
"/ / / F Z Z Z F F F a X u / / / / / / / / / / / / / / / / / / / / / / / / / / / / / / / / / / / / / / / F 8 v B B B B B A &.e.a.",
"/ / ~ Z C Z Z Z F F F 4 X d / / / / / / / / / / / / / / / / / / / / / / / / / / / / / / / / / / / / / ~ i z B B B B B B V  .e.e.",
"/ / ~ C C C Z Z Z F F V * @ V / / / / / / / / / / / / / / / / / / / / / / / / / / / / / / / / / / / / c p v v B B B B B V ` e.e.",
"/ / ~ C C C C Z Z Z F F B @ * G / / / / / / / / / / / / / / / / / / / / / / / / / / / / / / / / / / F 8 v v v v B B B B V ` 6.6.",
"/ / ~ C C C C C Z Z Z F F s X 5 / / / / / / / / / / / / / / / / / / / / / / / / / / / / / / / / / ~ i z v v v v v B B B B ` 6.6.",
"/ / ~ C C C C C C Z Z Z F F 8 X d / / / / / / / / / / / / / / / / / / / / / / / / / / / / / / / / z p v v v v v v v B B B ^ ,.6.",
"/ / ~ Z C C C C C C Z Z Z F Z , @ A / / / / / / / / / / / / / / / / / / / / / / / / / / / / / / A 9 x v v v v v v v v B B ` ,.,.",
"/ / ~ Z C C C C C C C Z Z Z F B @ 3 ~ / / / / / / / / / / / / / / / / / / / / / / / / / / / / ~ p l x v v v v v v v v v V ' ,.,.",
"/ / / Z C C C C C C C C Z Z Z F i . s / / / / / / / / / / / / / / / / / / / / / / / / / / / / V j x x x v v v v v v v v V { =.=.",
"/ / / F C C C C C C C C C C C C v > @ ! ' ' ' ' ' ' ' ' ' ' ' ' ' ' ' ' ' ' ' ' ' ' ' ' ' ' ' F x x x x x v v v v v v v Z | =.=.",
"  / / G C C C C C C b b v v v v B p o D O.O.O.O.O.O.O.O.O.O.O.O.O.O.O.O.O.O.O.O.O.O.O.O.O.O.O.G x x x x x x v v v v v v F | O.  ",
"  / / ~ C C b b b x x x x x v v v k o D ,.,.,.,.,.,.,.,.,.,.,.,.,.,.,.,.,.,.,.,.,.,.,.,.,.,.,.G x x x x x x x v v v v B ! O.O.  ",
"  / / ~ C x x x x x x x x x x v v k o D a.e.e.e.e.e.e.e.e.e.e.e.e.e.e.e.e.e.e.e.a.a.a.a.a.a.a.G v v x x x x x x v v v B ~ | O.  ",
"  / / / C x x x x x x x x x x x v k o S c.j.j.j.j.c.c.c.c.c.c.c.c.c.c.c.c.c.c.c.c.c.c.c.c.c.c.! v v v x x x x x x v v C ' | |   ",
"    / / F x x x x x x x x x x x x x o S A.A.A.A.A.A.A.A.A.A.A.A.A.A.A.A.A.A.A.A.A.A.A.A.A.A.A.! v v v v x x x x x x v G ' '     ",
"    / / ~ v x x x x x x x x x x x x o M S.S.S.S.S.S.S.S.S.S.S.S.S.S.S.S.S.S.S.S.S.D.D.D.D.D.D.( v v v v v x x x x x B ~ ' '     ",
"      / / F x x x x x x x x x x x x + N H.H.H.H.H.H.H.H.H.H.H.H.H.H.H.H.H.H.H.H.H.J.J.J.J.J.J.@.v v v v v v x x x x Z / '       ",
"      / / ~ v x x x x x x x x x x x + h L.L.L.L.L.L.L.L.L.L.L.L.L.P.P.L.P.P.P.P.P.P.P.P.P.P.P.@.v v v v v v v x x v H / '       ",
"      / / / F x x x x x x x x x x x # L ~.~.~.~.~.~.^.^.^.^.^.^.!.K.Q.~.^.^.^.^.^.^.^.^.^.^.^.#.v v v v v v v v v Z / / /       ",
"        / / ~ C x x x x x x x x x x : J ).).).).).).).).(.R.E P w 2 - e Y Y./.).).).).).).).).G.B B v v v v v v B ~ / /         ",
"          / / G v x x x x x x x x x > y ].].].].].`.T.T g 6 8 a c B c i 1 $ ; y R W.`.[.[.[.].F.B B B v v v v B G ' '           ",
"          / / / Z x x x x x x x x x < t }.}.'.E.U r 7 p z B B V V V V A A V c i 1 $ ; K I._.{.F.B B B B v v B F ' ' '           ",
"            / / ~ C x x x x x x x x < & U.I q 7 j x v v v B B B B V V V A A A A A V c i 1 % 0 f B B B B B B F ' | '             ",
"              / / ~ C x x x x x x x 9 < 9 j x x x x v v v v B B B B V V V A A A A A A V V B z c B B B B B A ' O.|               ",
"              / / / H B x x x x x x x x x x x x x x x v v v v B B B B V V V A A A A A V V V V V V B B B A ` =.O.O.              ",
"                / / / H C x x x x x x x x x x x x x x x v v v v B B B B V V V A A A A A V V V V V V V A ` ,.=.=.                ",
"                  / / / ~ C x x x x x x x x x x x x x x x v v v v B B B B V V V A A A A A V V V V V G  .6.,.=.                  ",
"                    / / / ~ Z v x x x x x x x x x x x x x x v v v v B B B B V V V A A A A A V V A ^ >.e.6.6.                    ",
"                      / / / / G B x x x x x x x x x x x x x x v v v v B B B B V V V A A A A A Q ] e.a.e.e.                      ",
"                          / / / ~ Z v x x x x x x x x x x x x x v v v v B B B B V V V V A D ` 0.j.j.a.                          ",
"                            / / / / ~ Z v x x x x x x x x x x x x v v v v B B B B V V D ` 9.c.V.c.j.                            ",
"                                / / / / ~ F C v x x x x x x x x x x v v v v B B V G ` >.a.c.V.V.                                ",
"                                  / / / / / / H F C C v v v x x x x v v B Z F ! { =.6.e.a.j.c.                                  ",
"                                        / / / / / / ~ ~ H G F F F F G ~ ~ ' | O.=.,.,.6.                                        ",
"                                            / / / / / / / / / / / / / / ' ' ' | O.=.                                            ",
"                                                    / / / / / / / / / / / '                                                     "
};
