/* XPM */
static char *_34d6b050356430cd197b08a7e5eaed1SK27DPB1ihttkGts[] = {
/* columns rows colors chars-per-pixel */
"64 64 183 2 ",
"   c None",
".  c #B54B00",
"X  c #B45400",
"o  c #BB5B00",
"O  c #BA5C15",
"+  c #BE6300",
"@  c #BE620D",
"#  c #C35F00",
"$  c #C46400",
"%  c #CB6600",
"&  c #C46B00",
"*  c #CB6B00",
"=  c #C46E0C",
"-  c #D16C00",
";  c #C67100",
":  c #CB7700",
">  c #CC760B",
",  c #D57200",
"<  c #D97700",
"1  c #D47E01",
"2  c #DB7B00",
"3  c #D2760A",
"4  c #C16E1E",
"5  c #CF7E15",
"6  c #C3741E",
"7  c #C67B1D",
"8  c #C67B25",
"9  c #D48500",
"0  c #DB8400",
"q  c #D38900",
"w  c #DA8900",
"e  c #D59F03",
"r  c #DE9B00",
"t  c #D2980A",
"y  c #CC8A16",
"u  c #C9821A",
"i  c #CE891C",
"p  c #CF9110",
"a  c #E08200",
"s  c #E48C00",
"d  c #E88B00",
"f  c #E39500",
"g  c #EE9500",
"h  c #E29A00",
"j  c #EE9B00",
"k  c #F09700",
"l  c #F39D00",
"z  c #DBA400",
"x  c #D5AA00",
"c  c #D9AE00",
"v  c #DEB200",
"b  c #E5A300",
"n  c #EEA300",
"m  c #E3AD00",
"M  c #EEAB00",
"N  c #F6A400",
"B  c #F6AC00",
"V  c #E2B500",
"C  c #EEB200",
"Z  c #E6B900",
"A  c #EBBC00",
"S  c #F5B400",
"D  c #F9B500",
"F  c #F5BB00",
"G  c #F9BC00",
"H  c #C98322",
"J  c #D18727",
"K  c #D08D23",
"L  c #D8A138",
"P  c #DDB334",
"I  c #DFB838",
"U  c #EEC200",
"Y  c #ECCF00",
"T  c #F5C300",
"R  c #F9C500",
"E  c #F5CA00",
"W  c #FECC00",
"Q  c #EED600",
"!  c #F6D400",
"~  c #FFD200",
"^  c #FED100",
"/  c #FBD700",
"(  c #FAD500",
")  c #FFD500",
"_  c #FFD700",
"`  c #FDD500",
"'  c #FED400",
"]  c #F7DA00",
"[  c #F7DF00",
"{  c #F9D900",
"}  c #FAD900",
"|  c #FFD800",
" . c #FFDA00",
".. c #FDDA00",
"X. c #F8DF00",
"o. c #F9DD00",
"O. c #FFDC00",
"+. c #FFDF00",
"@. c #FCDE00",
"#. c #FEDC00",
"$. c #F3E300",
"%. c #F6E200",
"&. c #F8E300",
"*. c #FAE200",
"=. c #FFE100",
"-. c #FFE300",
";. c #FCE200",
":. c #FBE500",
">. c #F9E700",
",. c #FFE500",
"<. c #FFE700",
"1. c #FDE600",
"2. c #FEE400",
"3. c #F6EA00",
"4. c #FBE900",
"5. c #FAEB00",
"6. c #FFE900",
"7. c #FFEA00",
"8. c #FCE900",
"9. c #FBED00",
"0. c #FAEE00",
"q. c #FFED00",
"w. c #FDEE00",
"e. c #FFEF00",
"r. c #FEEC00",
"t. c #FBF300",
"y. c #FEF000",
"u. c #FDF300",
"i. c #FEF300",
"p. c #FDF500",
"a. c #FEF400",
"s. c #FEF500",
"d. c #FFF500",
"f. c #FFF600",
"g. c #FDF600",
"h. c #FEF400",
"j. c #FDF900",
"k. c #FEF800",
"l. c #FFF900",
"z. c #FDFB00",
"x. c #FEFA00",
"c. c #FEFB00",
"v. c #FFFB00",
"b. c #FEFD00",
"n. c #FFFC00",
"m. c #FEFE00",
"M. c #FFFE00",
"N. c yellow",
"B. c #FEFF00",
"V. c #FEFB03",
"C. c #FEFF08",
"Z. c #F9E412",
"A. c #F9E41D",
"S. c #FEFE16",
"D. c #FEFE18",
"F. c #F9E429",
"G. c #FDFD26",
"H. c #FDFE28",
"J. c #F9E435",
"K. c #F4E73F",
"L. c #F4E93F",
"P. c #FEFD36",
"I. c #FDFD38",
"U. c #DAAB46",
"Y. c #DAAA4A",
"T. c #DDB240",
"R. c #E2BE44",
"E. c #F0DF4A",
"W. c #EBD45D",
"Q. c #F5DC52",
"!. c #F0DF59",
"~. c #F8E441",
"^. c #F2E34D",
"/. c #F8E44C",
"(. c #FDFD46",
"). c #FEFE49",
"_. c #F4EB5E",
"`. c #FCFB56",
"'. c #FCFD5A",
"]. c #EDDB66",
"[. c #FBFA66",
"{. c #FDFE6A",
"}. c #FAF774",
/* pixels */
"                                                  i.i.w.w.7.7.,.=. .' W E R W W                                                 ",
"                                            p.p.i.i.w.w.7.7.,.,.=.=.+. ._ W W W W W W                                           ",
"                                        j.p.p.i.w.5.&.X.{ ( ( ( (  .+.+. . .' W W W W W W                                       ",
"                                    j.j.j.p.5.X.! E T F F F F F F F T E ' _ _ ' W W W W W W W                                   ",
"                                m.m.j.p.5.] E T F F F S S S S S B B B S S R W ' W W W W W W W W                                 ",
"                              m.m.j.t.[ E F F F F F S S S S S S B B B B B B S G W W ' ' W W W W W                               ",
"                            m.m.j.5.{ T F F F F F S S S S S S B B B B B B N N N S R ' _ _ W W W W W                             ",
"                          m.m.j.>.E T F F F F F F S S S S S B B B B B B N N N N N S R _  ._ W W W W W                           ",
"                        m.m.j.&.E T F F F F F F S S S S S B B B B B B N N N N N N B S E  .+. .W W W W W                         ",
"                      m.m.j.&.E T F F F F F F S S S S S B B B B B B N N N N N N B B B S W +.=. .W W W W W                       ",
"                      m.m.>.E T F F F F F F S S S S S S R M B B B B N N N N N N B B B B F ( ,.,._ W W W W W                     ",
"                    m.m.0.E T F F F F F F S S S S S S G p.Y j B B N N N N N N B B B B S S F +.7.,.' W W W W                     ",
"                  m.m.p.! T T F F F F F F S S S S S S =.m.j.m N N N N N N N B B B B S S S S E 7.w.=.W W W W W                   ",
"                  m.j.X.T T F F F F F F S S S S S B W m.m.m.$.h N N N N N B B B B B S S S S F { w.i._ W W W W W                 ",
"                m.m.0.E T F F F F F F S S S S S B F p.m.m.m.m.Z g N N N B B B B B S S S S F F T 7.p.7.W W W W W                 ",
"                m.j.{ T F F F F F F S S S S S S S >.m.m.m.m.m.t.r l N N B B B B S S S S F F F F { p.p. .W W W W W               ",
"              m.j.5.T F F F F F F S S S S S S B ( m.m.m.m.m.m.m.Q f N B B B B S S S S S F F F F E w.m.w.W W W W W               ",
"              j.j.{ T F F F F F F S S S S S B F p.m.m.m.m.m.m.m.m.V j B B B S S S S S F F F F T T X.m.j._ W W W W               ",
"            m.j.0.T F F F F F F S S S S S B S >.m.m.m.m.m.m.m.m.m.3.r B B B S S S S F F F F F T T W p.j.=.W W W W W             ",
"            j.j.X.F F F F F F S S S S S B B ( m.m.m.m.m.m.m.m.m.m.m.U f B S S S S F F F F F T T T T >.p.7.W W W W W             ",
"            j.i.E F F F F F S S S S S B S E i.j.j.j.j.j.j.j.j.j.j.j.p.z B S S S F F F F F T T T T T ( i.w._ W W W W             ",
"          j.j.5.T F F F S S S S S S S R =.i.p.p.p.p.p.p.p.p.p.p.p.p.p.0.{ F S S F F F F T T T T T T T ,.7. .W W W W W           ",
"          p.p.X.F F F F S S S S F W =.w.w.w.w.w.w.w.w.w.w.w.w.w.w.w.w.i.i.7.( R F F F T T T T T T F F { ,. .W W W W W           ",
"          p.i.E F F F S S F R ( =.7.7.7.7.7.7.7.7.7.7.7.7.7.7.7.7.7.7.7.7.7.7.,.( E T T T T T T T F F E =.+.W W W W W           ",
"          p.5.S B S S F E  .=.=.=.=.=.=.=.=.=.=.=.=.=.=.=.=.=.=.=.=.=.=.=.=.=.,.,.=. .W T T T T F F S T +. .W W W W W           ",
"        p.i.X.M M M j F +.+.+.+.+.+.+.+.+.+.+.+.+.+.+.+.+.+.+.+.+.+.+.+.+.+.+.+.+.+.+.+._ E F F F S S S _  .W W W W W W         ",
"        i.i.{ M M M h w ( _ _ _ _ _ _ _ _ _  . . . . . . . . . . . . . . . . . . . . . . .T & h F S S S W _ W W W W W W         ",
"        i.w.E M M M M 0 M ' ' ' ' ' ' ' ' ' ' ' ' ' ' ' ' ' ' ' ' ' ' ' ' ' ' ' ' ' ' ' ' q X b S S B B R ' W E W W W W         ",
"        w.w.T M M M n h 0 R W W W W W W W W W W W W W W W W W W W W W W W W W W W W W ' C X 9 S S S B B G W W E W W W W         ",
"        w.7.F M M n n n w b W W W W W W W W W W W W W W W W W W W W W W W W W W W W W R ; + B S S B B N G W W E E W W W         ",
"        w.,.F n n n n j j 0 R W W W W W W W W W W W W W W W W W W W W W W W W W W W W h X h S S B B B N D W W R E E W W         ",
"        7.=.S n n j j j j s h W W W W W W W W W W W W W W W W W W W W W W W W W W W F o : S S B B B N N D W W R R E W W         ",
"        7.=.S n n n j j j j 0 F W W W W W W W W W W W W W W W W W W W W W W W W W W 9 o M S B B B N N N D W W T R E E W         ",
"        ,.=.S n n j j j j j d h W W W W W W W W W W W W W W W W W W W W W W W W W C X w S S B B N N N N D W W T T R E E         ",
"        ,.=.S n j j j j j j j 0 F W W W W W W W W W W W W W W W W W W W W W W W W : $ B S B B N N N N N D W W T T R R E         ",
"        ,.=.S j j j j j j j j d f W W W W W W W W W W W W W W W W W W W W W W W M X f S B B B N N N N N G W W T T T R E         ",
"        =.=.F j j j j j j j g g s R W W W W W W W W W W W W W W W W W W W W W E & & B B B B N N N N N N G W E T T T T R         ",
"        =.+.F j j j j j j g g g j E _ _ _ _ _ _ _ _ _ _ _ _ _ _ _ _ ' ' ' ' _ C . s N N N N N N N N N N R W R T T T T R         ",
"        +.+.T j j j j j g g g g j W +.+.+.+.+.+.+.+.+.+.+.+.+.+.+.+.+.+.+.+.+.b o j j j j l l N N N N B R W T T T T T T         ",
"          +.W n j j j g g g g j j ( 7.,.,.,.,.,.,.,.,.,.,.,.,.,.,.,.,.,.,.,.7.z # j j j g g g k l l N B W W T T T T T           ",
"           .( M j j g g g g g j j { i.i.w.w.w.w.w.w.w.w.w.w.w.w.w.w.w.w.w.w.i.z $ j j g g g g g g g k B W W T U T T T           ",
"           ._ S j g g g g g j j j &.j.j.j.j.j.j.j.j.j.j.j.j.j.j.j.p.p.p.p.p.j.z $ j g g g g g g g g g S W E A A T T T           ",
"          _ _ F j g g g g j j j n :.C.C.C.C.C.C.C.C.C.C.C.C.C.C.C.C.C.C.C.C.C.e % j g g g g g g g g j G W T A A A T T           ",
"            _ R j g g g g j j j n Z.D.D.D.S.S.S.S.S.S.S.S.S.S.S.S.S.S.S.S.S.S.t % g g g g g g g g g N R W U A A A U             ",
"            ' W B g g g j j j j n A.H.H.G.G.G.G.G.G.G.G.G.G.G.G.G.G.G.G.G.G.G.p * g g g g g g g g g S W E A Z A A A             ",
"            ' W F j g j j j j j n F.I.I.I.I.I.P.P.P.P.P.P.P.P.P.P.P.P.P.P.P.P.y - g g g g g g g g j G W T Z Z A A A             ",
"              W R n j j j j j n M J.).).).).).).).).(.L.K.(.).).(.(.(.(.(.(.(.u , g g g g g g g g B W W A Z Z Z A               ",
"              W W S j j j j j n M ~.'.'.'.'.'.`.^.I H @ = i P E.`.'.`.`.`.`.`.7 , g g g g g g g j G W T Z Z Z Z A               ",
"                ' W M j j j j n M /.{.{.[.!.T.H @ $ 1 h b f 1 > K R._.{.{.{.[.6 < g g g g g g g B W W A V Z Z Z                 ",
"                ' _ T n j j n n M Q.].U.8 @ & 9 b C C C M M M n d 1 5 L W.}.}.4 2 g g g g g g j F W T V V V Z Z                 ",
"                   ._ S n n n M M 5 @ * 0 b C C C C M M M M M n j j g a 3 J Y.O 0 g g g g g g B W W Z V V V V                   ",
"                   .+.( M n M M M h b M C C C C C C M M M M n j j j g g g d 2 % d g g g g g N R W T v v V V V                   ",
"                    +.=.E M M M M M M M M C C C C M M M M n n j j j g g g g g g g g g g g j G W R V v v V V                     ",
"                      =.=.E M M M M M C C C C C M M M M n n j j j g g g g g g g g g g g j S W W Z c v v v V                     ",
"                      ,.,.,.E M M M M C C C C M M M M n n j j j g g g g g g g g g g g j S W W A c c v v v                       ",
"                        7.w.7.E C M C C C C M M M M M n j j j g g g g g g g g g g g j S W W T c c c c v                         ",
"                          w.i.w.! A C C C C M M M M n j j j g g g g g g g g g g g j S W W T c x c c c                           ",
"                            i.p.p.%.U C M M M M M n j j j j g g g g g g g g g g N G W W T c x x x c                             ",
"                              p.j.m.t.! A M M M n n j j j g g g g g g g g g j S R W W U c x x x x                               ",
"                                j.m.j.i.X.E C M n j j j g g g g g g g j j B R W W E Z c x x x x                                 ",
"                                    p.i.w.,.{ T S M n j j g g j j n B S R W W W T V x x x x x                                   ",
"                                        7.,.=.+._ W R F S S S F R R W W W W T Z c x x x x                                       ",
"                                            +. ._ ' W W W W W W W W W E T V c x x x x                                           ",
"                                                  W W W W W W W E T A v x x x                                                   "
};
