/* XPM */
static char *_5dbdf0ac11543aaef44548781b9dce87G5ddzHBo2M0lQJf[] = {
/* columns rows colors chars-per-pixel */
"64 64 205 2 ",
"   c None",
".  c #7E6707",
"X  c #836B06",
"o  c #866E08",
"O  c #886F08",
"+  c #926104",
"@  c #976806",
"#  c #9B6B07",
"$  c #9C6C09",
"%  c #986608",
"&  c #8A720A",
"*  c #9F7108",
"=  c #947A0B",
"-  c #967B0B",
";  c #8E7610",
":  c #977E15",
">  c #A06E0B",
",  c #A2740A",
"<  c #A7790B",
"1  c #AA7D0C",
"2  c #AE810D",
"3  c #A2860E",
"4  c #B2860E",
"5  c #B68A0F",
"6  c #BB8C0E",
"7  c #B9980E",
"8  c #BB940F",
"9  c #A38A1C",
"0  c #A88C14",
"q  c #B68B10",
"w  c #B98E10",
"e  c #AD911E",
"r  c #B39514",
"t  c #BD9211",
"y  c #B79813",
"u  c #BB9A14",
"i  c #9E8A3B",
"p  c #A68D28",
"a  c #A78E22",
"s  c #AD942F",
"d  c #B59925",
"f  c #AD9532",
"g  c #BDA22E",
"h  c #C2980F",
"j  c #C19612",
"k  c #C49A13",
"l  c #CA9D13",
"z  c #C9A40B",
"x  c #D1A903",
"c  c #DEB60D",
"v  c #CBA315",
"b  c #CDA817",
"n  c #C8A617",
"m  c #D4A514",
"M  c #D4AA16",
"N  c #DAAD15",
"B  c #D3AD19",
"V  c #D9AA19",
"C  c #DEB614",
"Z  c #DFB815",
"A  c #D6B11A",
"S  c #DCB61A",
"D  c #DFB91B",
"F  c #E1B400",
"G  c #E0B70B",
"H  c #E3BA0E",
"J  c #E0B613",
"K  c #E3BA13",
"L  c #E2B618",
"P  c #E3BC1B",
"I  c #E8BE1B",
"U  c #C7A92A",
"Y  c #DEB923",
"T  c #DEBB2C",
"R  c #D2B12A",
"E  c #DDBC32",
"W  c #DCBD3C",
"Q  c #D4B733",
"!  c #C6AA32",
"~  c #E0BF33",
"^  c #E1BB23",
"/  c #FBD403",
"(  c #F9D40B",
")  c #FCD80F",
"_  c #E5C111",
"`  c #E6C01D",
"'  c #EAC31D",
"]  c #E9C315",
"[  c #F4CC1E",
"{  c #F0C919",
"}  c #F6D314",
"|  c #F9D514",
" . c #F7DE17",
".. c #FADB13",
"X. c #F6D41D",
"o. c #F8D71B",
"O. c #F6DA1B",
"+. c #FBDA1A",
"@. c #FAE60D",
"#. c #FCEC0A",
"$. c #FAEC07",
"%. c #FFF10D",
"&. c #F9E212",
"*. c #FFEC12",
"=. c #FEE319",
"-. c #FFE91A",
";. c #FFF110",
":. c #EDCB20",
">. c #F5CE21",
",. c #F5D423",
"<. c #F9D623",
"1. c #F7DD27",
"2. c #FCDB25",
"3. c #F5D62C",
"4. c #FBDB2C",
"5. c #E3C235",
"6. c #E2C33A",
"7. c #E7C83D",
"8. c #EBCD3D",
"9. c #EED13B",
"0. c #EFD137",
"q. c #F3D534",
"w. c #F6DF34",
"e. c #FADA33",
"r. c #F3D53C",
"t. c #F9DA3A",
"y. c #FFE026",
"u. c #FFE225",
"i. c #FFE126",
"p. c #FFE528",
"a. c #F3E03C",
"s. c #F5E036",
"d. c #9E9159",
"f. c #A79F7D",
"g. c #A8A07F",
"h. c #BBAE7C",
"j. c #DBBE42",
"k. c #D9BD46",
"l. c #DBBF52",
"z. c #DBC154",
"x. c #DBC25B",
"c. c #DEC854",
"v. c #DDC349",
"b. c #E3C543",
"n. c #E6C947",
"m. c #E9CD44",
"M. c #E7CB4B",
"N. c #E9CD4B",
"B. c #EDD145",
"V. c #EED34A",
"C. c #F2D642",
"Z. c #F5DA43",
"A. c #F8DB44",
"S. c #F0D649",
"D. c #F5D848",
"F. c #E9CF53",
"G. c #E7CC50",
"H. c #EED555",
"J. c #EED75C",
"K. c #F0D750",
"L. c #F2E246",
"P. c #EFE055",
"I. c #F0E353",
"U. c #DECD64",
"Y. c #DBC566",
"T. c #DFD06E",
"R. c #DAC779",
"E. c #E0D26D",
"W. c #EDD867",
"Q. c #F1DB67",
"!. c #EAD97D",
"~. c #E6D876",
"^. c #ECE266",
"/. c #E9E178",
"(. c #AEA88E",
"). c #ACA68C",
"_. c #BCB080",
"`. c #B0AB90",
"'. c #B6B095",
"]. c #BEB89C",
"[. c #BDB8A6",
"{. c #D9C781",
"}. c #DAC986",
"|. c #C9C29E",
" X c #D8CD94",
".X c #D7C996",
"XX c #DCD499",
"oX c #E4D683",
"OX c #E7D886",
"+X c #E7DB87",
"@X c #E3D997",
"#X c #D7CCA3",
"$X c #D7CEAD",
"%X c #D9CFAA",
"&X c #DDD5AB",
"*X c #DCD4AB",
"=X c #DBD3B3",
"-X c #DFD8B4",
";X c #D7D1B9",
":X c #DAD4BA",
">X c #DCD6B8",
",X c #E1D8AA",
"<X c #E0DDBF",
"1X c #DAD5C3",
"2X c #D7D9E3",
/* pixels */
"                                                                                                                                ",
"                                                # , 1 2 2 < , $ # < q 4 1 ,                                                     ",
"                                          $ 4 N ' <.2.2.2.2.>.I v 6 l [ u.<.I l 1 +                                             ",
"                                      * v [ 2.2.2.<.<.<.<.<.<.2.2.,.B 5 k ,.p.u.2.I 2 +                                         ",
"                                  + j ,.u.<.,.,.,.,.,.,.,.,.,.,.,.<.2.,.v 1 A 2.<.2.2.P <                                       ",
"                                $ L 2.2.,.,.,.,.,.,.,.,.,.,.,.,.,.,.,.,.2.:.4 k <.<.<.u.<.t                                     ",
"                              , [ u.<.,.,.,.,.,.X.,.,.3.,.,.X.,.,.,.,.,.,.<.<.t w <.<.,.2.u.V +                                 ",
"                            < [ 2.,.,.,.,.,.,.3.r.B.8.N.8.B.9.q.,.,.,.,.,.,.<.2.k 5 <.<.,.<.u.N +                               ",
"                          , [ u.,.,.,.,.,.,.V.7.6.Y Y D D Y E 5.H.q.,.X.,.,.,.<.2.j t 2.,.,.<.u.N                               ",
"                        # { 2.,.,.,.,.,.q.G.Y S C Z Z Z Z Z C S S b.9.q.X.,.,.,.<.<.5 v 2.,.,.<.2.l                             ",
"                        C y.,.O.,.,.,.C.b.S S Z Z Z Z Z D D D Z Z C T m.3.,.,.,.,.<.,.1 P 2.,.,.<.2.1                           ",
"                      6 2.2.&.O.,.X.V.~ C Z D D Z Z Z Z Z Z D D Z Z C Y G.3.,.,.,.,.2.P 2 ,.<.,.,.2.[ $                         ",
"                    * >.2.@. .,.X.S.~ S Z D Z D D Z G Z Y c Z D D D D Z S F.,.,.,.,.,.u.k v 2.,.,.,.u.m                         ",
"                    V u.#.&.,.X.r.5.S Z D Z D D Z G Y.=X=X.XY G D D D D Z Y V.,.,.,.,.<.,.2 :.<.,.,.<.<.<                       ",
"                  < <.*.#.,.,.,.m.^ C Z Z Z D Z G R.>Xr.3.!.1XY J D D D Z C 6.C.X.,.,.,.2.v k 2.,.,.,.2.L                       ",
"                  V -.$. .,.X.V.5.z A P D Z D G l.1X,.| X.( !.$Xc Z D Z D Z S 7.3.,.,.,.<.,.4 :.<.,.,.<.2.1                     ",
"                , o.#.@.,.X.q.8.7 r P P Z Z Z C ;XK.| X.} X.| -Xx.G Z Z Z Z C E B.,.,.,.,.2.v v 2.,.,.,.2.N                     ",
"                l *.$. .,.,.r.U = Z P D Z Z G x.,X| } H.!.3.( H.$XC Z Z Z Z D C n.q.,.,.,.<.:.4 ,.,.,.,.<.<.,                   ",
"              % { %.#.X.,.3.M.= y ` D D Z Z c #XJ./ W.;X.X-XX.| -Xj.J Z Z Z D Z T 9.,.,.,.,.<.t S <.,.,.,.2.t                   ",
"              1 =.#.&.,.,.A.U o S P Z Z Z Z T -Xo.q.1XR F .XOX/ !.{.G Z Z Z D Z S M.,.,.,.,.2.B j 2.,.,.,.2.I                   ",
"              l ;.#. .,.<.8.: 3 ` P Z Z Z c Y././ +Xh.x K T :XX.C.%XC Z D D D D C 5.C.X.,.,.<.:.4 ,.,.,.,.<.<.,                 ",
"              ] %.#.O.,.e.j.X n P D Z Z Z C R.Z.| =Xs K P G #X~.| -XE Z D D D D Z Y 0.,.,.,.,.<.w P <.,.,.,.2.5                 ",
"            , ..#.@.,.,.A.d o S P D D D Z S oX1.t.[.7 I Z G l.&X| &Xj.C D D D D Z D M.,.,.,.,.2.v M 2.,.,.,.2.V                 ",
"            2 *.#.&.,.<.r.: - P P D D D Z T !.| Q.f.z I Z Z Y &XX.&XW Z D D D D Z C 6.q.,.,.,.<.S t <.,.,.,.2.` @               ",
"            h %.#. .,.4.n.& 0 P P Z Z Z C W ^.| oXd.c P Z Z C *XW.=XY Z Z Z D D Z Z T q.,.,.,.<.' w ,.,.,.,.<.,.,               ",
"            C %.#.O.,.e.Q . u P Z Z Z Z C v.^.|  Xi K P Z Z G R.2Xz.G Z Z D D D Z Z T V.,.,.,.,.,.5 :.<.,.,.<.2.1               ",
"            _ %.#.O.,.e.! . n P D D Z Z C c.I.+.|.p K P D Z Z Y W C Z D Z Z Z D Z Z D 8.,.,.,.,.<.w ' <.,.,.,.2.4               ",
"          $ } %.@.,.,.A.d X B P D D Z Z C U.L.2.].e P P D Z D C C Z D D Z Z Z Z Z Z D m.,.,.,.,.<.t D <.,.,.,.2.t               ",
"          $ ..#.@.,.,.t.a o A P D D D D C U.a.4.'.r I Z D Z Z D D D D D D D Z Z Z Z S n.3.,.,.,.<.k A 2.,.,.,.2.k               ",
"          , &.#.@.,.,.Z.a o S P D D D D C E.s.e.`.y I D D D D D Z Z D D D D D Z D Z S 6.3.,.,.,.<.v B 2.,.,.,.2.v               ",
"          < @.#.@.,.,.C.9 O S P D D D Z C E.w.t.(.u I D D D D D D Z D D D D D Z D Z S n.q.,.,.,.<.v b 2.,.,.,.2.M               ",
"          , @.#.@.,.,.r.9 & S P D D D Z C E.w.t.).u I D D D D D D D D D D D D D D Z S 7.3.,.,.,.2.v v <.,.,.,.2.V               ",
"          , &.#.@.,.,.D.9 o S P D Z Z Z C E.s.t.(.u I Z Z Z D D D D D D D D D D D Z S 6.3.,.,.,.2.n b 2.,.,.,.2.M               ",
"          > ..#.@.,.,.t.e o S P D D Z Z C T.s.e.`.y I Z Z Z Z D D D D D D D D D D Z S n.q.,.,.,.<.v B 2.,.,.,.2.v               ",
"          $ ..#.@.,.,.Z.d o B P D D D D C T.a.4.'.r I Z Z Z D D Z D D D Z Z D D D Z S 7.,.,.,.,.<.k A <.,.,.,.2.k               ",
"          $ } %.#.X.,.t.g X b P D D D D C U.L.2.].e P P Z D D D Z D D D D D D D D Z S m.,.,.,.,.<.t D <.,.,.,.2.t               ",
"            _ %.#.O.,.e.R . n P Z D D D C x.I.+.|.p K P Z Z D Z G Z D D Z Z D D Z Z Y B.,.,.,.,.<.5 ' <.,.,.,.2.4               ",
"            N %.#. .,.e.j.X r P Z Z D D c z.^... Xi K P Z Z Z W {.D Z D Z Z D D Z Z Y 0.,.,.,.,.,.5 :.<.,.,.<.<.1               ",
"            j %.#.&.,.<.m.; 3 P P Z Z Z C j./...oXd.c P Z Z C *X<X{.c Z Z D D D Z C ~ C.X.,.,.<.' w ,.,.,.,.<.,.*               ",
"            2 *.#.&.,.,.C.0 & P P Z Z Z Z T +X..Q.g.z I Z C W &X3.=XY Z Z D D D Z S 7.3.,.,.,.<.S t <.,.,.,.2.` @               ",
"            , | #.@.,.,.Z.! X B P D D D Z S XX1.t.[.7 I D G Y.@X| -XW Z D D D D Z S 7.3.,.,.,.2.l B <.,.,.,.2.m                 ",
"              ] %.#.O.,.3.6.o y ` D D D Z c }.P.| *Xf K P c #XH.| :XE Z D D D D Z Y V.,.,.,.,.<.w P <.,.,.,.2.5                 ",
"              l *.#.&.,.3.C.0 = P P Z Z Z G Y.@X/ !._.x H E >X| S.=XZ Z D D D D S 6.q.,.,.,.<.:.4 ,.,.,.,.<.<.,                 ",
"              < =.#.@.,.X.Z.Q o b P Z Z Z Z T >X,.3.:XR F .X~./ OXR.G D D D D Z S m.3.,.,.,.2.B k 2.,.,.,.2.P                   ",
"              % ' #.#.O.,.3.8.0 3 ` P Z Z Z c #XJ./ J.:X#X@X| X.-XW C Z Z Z D C T V.X.,.,.,.<.w Z <.,.,.,.2.t                   ",
"                k -.$.&.,.,.S.Y - b P D Z Z G z.,X| | S.W.,.( H.$XC Z Z Z Z Z S b.3.,.,.,.<.:.4 ,.,.,.,.<.<.,                   ",
"                , <.*.#.O.,.3.N.B r S P Z Z Z C ;XH.| X.} X.| -Xl.G Z Z Z Z Z Y B.,.,.,.,.2.v v 2.,.,.,.u.N                     ",
"                  V u.#.&.,.,.0.5.C A P D Z Z G k.1X,.| X.( !.#Xc Z Z Z Z Z C M.3.X.,.,.<.,.2 :.<.,.,.<.2.1                     ",
"                  < <.=.$.O.,.3.m.Y P Z Z Z Z Z G R.>XC.3.OX;XY Z D Z Z Z C b.q.,.,.,.,.2.v k 2.,.,.,.2.C                       ",
"                    m 2.&.#.,.X.r.b.C Z Z Z Z Z Z G x.;X:X XY G D D Z Z C E 9.3.,.,.,.<.>.2 :.<.,.,.<.<.<                       ",
"                    $ >.2. .&.,.X.r.b.C Z D Z Z D Z G C D c Z D D D D S Y m.3.X.,.,.,.2.j v 2.,.,.,.u.m                         ",
"                      6 2.<.O. .,.,.r.b.C Z D D Z Z Z Z Z Z Z Z D Z S Y N.3.X.,.,.,.2.D 4 <.,.,.,.2.[ #                         ",
"                        N u.,.,.,.,.,.q.n.S S Z D D D Z Z Z Z Z Z S Y F.,.,.,.,.,.<.,.1 ` 2.,.,.<.2.1                           ",
"                        # ' u.,.,.,.,.,.r.M.E S C Z Z Z Z Z Z C Y 5.V.,.,.,.,.,.<.<.5 b 2.,.,.<.2.j                             ",
"                          , [ 2.,.,.,.,.X.3.r.M.5.T Y D D Y T 7.m.q.,.,.,.,.,.<.2.t j 2.,.,.<.u.m                               ",
"                            , [ u.,.,.,.,.,.,.,.C.0.N.8.m.B.q.q.X.,.,.,.,.,.<.2.j w <.<.,.<.u.N +                               ",
"                              , { u.<.,.,.,.,.,.X.,.,.,.,.,.,.X.,.,.,.,.,.<.<.t t <.<.,.2.2.m +                                 ",
"                                # L 2.2.,.,.,.,.,.,.,.,.,.,.,.,.,.,.,.<.2.' 2 k 2.<.<.u.<.6                                     ",
"                                  + 6 [ u.2.,.,.,.,.,.,.,.,.,.,.,.<.2.,.v 2 S 2.<.2.2.L ,                                       ",
"                                      $ l [ 2.2.2.<.<.<.<.<.<.2.2.,.B 4 k ,.p.u.2.P 2                                           ",
"                                          $ 4 V ' ,.<.2.<.<.[ I l 6 l [ 2.<.P k <                                               ",
"                                                # , 1 2 1 1 * @ # 1 5 4 < $                                                     ",
"                                                                                                                                ",
"                                                                                                                                "
};
