/* XPM */
static char *_237b172a8d040a4a133362d642e42229AnzvUQulaiVHvir[] = {
/* columns rows colors chars-per-pixel */
"64 64 202 2 ",
"   c None",
".  c #7F6807",
"X  c #7F6908",
"o  c #7D6707",
"O  c #905F04",
"+  c #826B07",
"@  c #826B09",
"#  c #946405",
"$  c #986705",
"%  c #976806",
"&  c #9B6B06",
"*  c #9E6F08",
"=  c #8E7406",
"-  c #8B730A",
";  c #917605",
":  c #9F7007",
">  c #967900",
",  c #917609",
"<  c #9E7008",
"1  c #997E0D",
"2  c #94790A",
"3  c #987F15",
"4  c #A06F08",
"5  c #A17207",
"6  c #A37409",
"7  c #AA7D0C",
"8  c #A77A0A",
"9  c #9F8208",
"0  c #A28301",
"q  c #AE810D",
"w  c #A6880B",
"e  c #B2850E",
"r  c #B5890F",
"t  c #BA8C0E",
"y  c #B19009",
"u  c #BE910F",
"i  c #BC9A0C",
"p  c #B59407",
"a  c #A88B12",
"s  c #B68911",
"d  c #B68910",
"f  c #AF9112",
"g  c #B29413",
"h  c #BE9312",
"j  c #BC9C15",
"k  c #B49618",
"l  c #A28B2C",
"z  c #A18B33",
"x  c #C39D0E",
"c  c #C2930F",
"v  c #C29512",
"b  c #C49A13",
"n  c #CB9E12",
"m  c #CEA90D",
"M  c #DFB60D",
"N  c #D8B80F",
"B  c #C4A315",
"V  c #CDA415",
"C  c #CCA915",
"Z  c #CCA319",
"A  c #CEAA18",
"S  c #C4A31C",
"D  c #D1A213",
"F  c #D3AA16",
"G  c #DBAD16",
"H  c #D2AA19",
"J  c #DEB614",
"K  c #DEB914",
"L  c #D6B119",
"P  c #DDB619",
"I  c #DFB91B",
"U  c #D5B213",
"Y  c #E0B606",
"T  c #E0B70C",
"R  c #E0B710",
"E  c #E2B719",
"W  c #E4BC1B",
"Q  c #E1B911",
"!  c #CBAA21",
"~  c #DEB924",
"^  c #DEBA2A",
"/  c #D6B325",
"(  c #CDAF33",
")  c #DEBC31",
"_  c #DABB3A",
"`  c #E0BD2C",
"'  c #E4BE20",
"]  c #E1BF31",
"[  c #F9D40C",
"{  c #F9DE0B",
"}  c #F9D905",
"|  c #E7C11D",
" . c #EBC21C",
".. c #E7C817",
"X. c #F3CB1F",
"o. c #EED313",
"O. c #F7D416",
"+. c #F8D413",
"@. c #F6DD16",
"#. c #F6D41D",
"$. c #F7DA1B",
"%. c #F8D419",
"&. c #E8CE0F",
"*. c #FBE403",
"=. c #F9E50C",
"-. c #FBEB0A",
";. c #FFF10C",
":. c #F7E113",
">. c #F8E312",
",. c #FFEB15",
"<. c #FEE31E",
"1. c #FFF011",
"2. c #DFC03D",
"3. c #EDCA21",
"4. c #E7C525",
"5. c #F4CE21",
"6. c #F5D423",
"7. c #FAD522",
"8. c #FCDC25",
"9. c #F5D62C",
"0. c #E2C134",
"q. c #ECCB36",
"w. c #E3C33B",
"e. c #ECCE3D",
"r. c #EED23D",
"t. c #F4D533",
"y. c #F3D53B",
"u. c #F5D83C",
"i. c #F7D834",
"p. c #FFE126",
"a. c #FFE226",
"s. c #FFE728",
"d. c #FFE828",
"f. c #F4E53C",
"g. c #AE9C51",
"h. c #DCBD43",
"j. c #DBBE48",
"k. c #DABE52",
"l. c #DAC053",
"z. c #DAC15C",
"x. c #E3C542",
"c. c #E7CA45",
"v. c #EACE43",
"b. c #E3C64A",
"n. c #E5C94B",
"m. c #EACE4C",
"M. c #EED344",
"N. c #EDD34C",
"B. c #F2D542",
"V. c #F1D64C",
"C. c #F2D94A",
"Z. c #F2DF44",
"A. c #E5C950",
"S. c #EED552",
"D. c #EED75B",
"F. c #F2D853",
"G. c #F1D651",
"H. c #F1E445",
"J. c #F0E352",
"K. c #D9C36B",
"L. c #D8C579",
"P. c #EDD760",
"I. c #EDD96C",
"U. c #EDD867",
"Y. c #ECD974",
"T. c #EADB7D",
"R. c #ECE168",
"E. c #C1B586",
"W. c #C0B691",
"Q. c #D8C685",
"!. c #D8C688",
"~. c #D8C995",
"^. c #D7CA99",
"/. c #E7DD87",
"(. c #E6D98B",
"). c #E8D881",
"_. c #E6DA95",
"`. c #E5DA9D",
"'. c #E5D790",
"]. c #CCC2A3",
"[. c #D6CBA5",
"{. c #D6CDAB",
"}. c #D8CDA4",
"|. c #DFD6AB",
" X c #DFD8AD",
".X c #CAC5B3",
"XX c #D5CDB1",
"oX c #D7CEB8",
"OX c #D8CFB1",
"+X c #DBD4B4",
"@X c #DFD8B5",
"#X c #D7D1BD",
"$X c #DBD5BA",
"%X c #DED8BC",
"&X c #D7D0B5",
"*X c #E1D9A3",
"=X c #E5DBA6",
"-X c #E4DCB4",
";X c #D6D2C3",
":X c #D9D4C2",
">X c #D6D3C9",
",X c #DCD8C7",
/* pixels */
"                                                        5 * % # % $ $ $ $                                                       ",
"                                              5 r b b t 7 e v V L W W | W L V h e 6                                             ",
"                                        & e W 7. .b t V | 6.8.8.8.8.8.8.8.8.8.8.8.6.E r *                                       ",
"                                    & b X.s.3.h r L 6.8.8.8.6.6.6.6.6.6.6.6.6.6.6.8.8.8.X.n :                                   ",
"                                # u X.s.8.b q L 8.8.7.6.6.6.6.6.6.6.6.6.6.6.6.6.6.6.6.6.8.8.5.b $                               ",
"                              6 W 8.d.| 7 b 6.8.6.6.6.6.6.6.6.6.6.6.6.6.#.6.6.6.6.6.6.6.6.6.8.8. .6                             ",
"                            r 6.p.p.L 7 P 8.8.6.6.6.6.6.6.#.6.6.9.t.t.t.y.9.9.6.6.#.6.6.6.6.6.6.8.7.c                           ",
"                          n 8.8.8.V 7 3.8.6.6.6.6.6.#.6.6.B.q.m.w.w.0.0.x.0.n.v.B.t.6.#.6.6.6.6.6.8.8.D #                       ",
"                      O D 8.8.8.V q 6.8.6.6.6.6.6.#.t.r.n.0.~ I P J J P J P P ~ ^ b.e.B.#.6.6.6.6.6.8.p.G #                     ",
"                      D 8.8.8.H q 6.8.6.6.6.6.#.9.y.n.^ P J I I I I I I I I I I I J ^ 0.N.9.#.6.6.6.6.8.p.G #                   ",
"                    v 8.8.8.I 7 3.<.$.6.6.6.#.u.e.2.J I I I I I I I I I I I I I I I K J ^ x.B.#.6.6.6.6.8.8.D                   ",
"                  7 7.8.8.3.7 W ,.>.6.6.6.6.y.c.^ J I I I I I I I I K J J K I I I I I I J I ] S.#.6.6.6.6.8.8.t                 ",
"                * X.8.6.8.d A ,.=.6.6.6.6.t.n.P J I I I I I I I T J ^ h.h.^ J T I I I I I I P ^ N.6.#.6.6.6.8.6.6               ",
"                G p.6.8.H d ,.-.#.6.6.#.t.A.J I I I I I I I K M l.[.$X|.|.$X[.z.M R I I I I I J ) r.9.6.6.6.6.p.W #             ",
"              q 8.8.8.5.7 o.;.@.6.6.#.t.m.J I I I I I I I T I [.%XP.9.#.#.6.D.@X{.~ T I I I I I J x.t.6.6.6.6.7.8.u             ",
"            $  .8.6.8.v V ;.=.6.6.#.9.B.! B W I I I I I T ~ ;X(.%.+.#.#.#.#.+.+.T.>X^ T I I I I I J b.y.#.6.6.6.8.X.*           ",
"            t 8.6.8.3.7 :.-.@.6.6.6.u.( 9 P W I I I I K I ;XY.[ #.6.%.+.+.%.6.#.[ I.;X~ R I I I I I P c.t.#.6.6.6.8.n           ",
"          $  .8.6.8.v m ;.=.6.6.#.i.b.; B W I I I I I M [.(.[ 6.#.+.B.T.T.V.+.#.6.[ ).{.M K I I I I J ^ r.6.6.6.6.8.5.4         ",
"          e 8.6.8.5.q { -.:.6.6.6.C.a 1 W W I I I I T z.%X%.#.#.%._.#XQ.L.#X`.#.#.#.+.@XK.T I I I I I J n.9.#.6.6.6.8.v         ",
"          E 8.6.8.H x ;.-.$.6.6.i._ @ B W I I I I K I ;XC.+.6.+.`.].U Y Y J ^.=XO.#.O.B.:XI K I I I I I ~ N.6.6.6.6.8. .%       ",
"        6 7.8.6.8.d &.;.=.6.6.#.F.k - I W I I I I T K.*X} #.+.Y..Xp Q W I K M [.T.[ 6.+.*XK.T I I I I I P w.9.6.6.6.8.8.7       ",
"        v 8.6.8.3.e =.-.>.6.6.i.w.- a | W I I I K J oXZ.{ #.9.,Xl m W I I I T ^ ,Xy.%.O.S.OXJ K I I I I J ) M.#.6.6.6.8.V       ",
"        E 8.6.8.H x ;.-.@.6.6.u.( . B W I I I I M h.@X=.#.+.T.W.0 W W I I I I Y Q.=X+.#.#.@X_ J I I I I I P c.9.6.6.6.8. .$     ",
"      < X.8.6.8.h N ;.-.$.6.6.G.g @ L W I I I I M Q.T.*.6.6.-Xz i W I I I I I K ~ #X9.%.+. Xj.J I I I I I P w.9.6.6.6.8.7.6     ",
"      7 8.7.6.6.e o.-.=.6.6.9.q.1 - W W I I I I J OXf.{ #.C.OX; F W I I I I I I J {.S.} y.:X~ K I I I I I J ) N.#.6.6.6.8.r     ",
"      h 8.6.8.3.r =.-.>.6.#.u.2.= w W W I I I K ) +X>.$.O.T.E.> W W I I I I I I T z.%XI.,XK.T I I I I I I I I e.6.6.6.6.8.V     ",
"      F 8.6.8.I u -.-.:.6.6.B./ + f W W I I I T k.*X*.#.%.=Xg.0 W W I I I I I I I T z.^.l.T I I I I I I I I I n.6.6.6.6.8.E     ",
"      W 8.6.8.H x ;.-.@.6.6.y.! o j W I I I I M K./.*.#.6.-Xl y W I I I I I I I I I M M M I I I I I I I I I J w.t.#.6.6.8. .&   ",
"    $  .8.6.8.Z m ;.-.@.6.6.S.j X B W I I I I M !.R.*.#.t.@X3 i W I I I I I I I I I I I I I I I I I I I I I P 0.9.6.6.6.8.5.*   ",
"    6 X.8.6.8.b N ;.-.$.6.9.q.j @ V W I I I I M ~.J.*.#.u.&X2 B W I I I I I I I I I I I I I I I I I I I I I J w.B.#.6.6.8.7.6   ",
"    6 X.8.6.8.v K -.-.$.6.9.N.g @ A W I I I I M [.H.{ #.C.[., C W I I I I I I I I I I I I I I I I I I I I I I ` t.6.6.6.8.7.8   ",
"    6 5.8.6.8.h K -.-.$.6.9.e.g @ A W I I I I M [.f.{ #.F.[.= C W I I I I I I I I I I I I I I I I I I I I I J ] B.6.6.6.8.7.7   ",
"    6 5.8.6.8.h K -.-.@.6.9.e.g @ A W I I I I M [.f.{ #.F.[.= C W I I I I I I I I I I I I I I I I I I I I I J ` y.6.6.6.8.7.7   ",
"    6 X.8.6.8.v K -.-.$.6.9.m.g @ C W I I I I M [.H.{ #.C.[., C W I I I I I I I I I I I I I I I I I I I I I I ` y.6.6.6.8.7.8   ",
"    6 X.8.6.8.b U -.-.@.6.6.q.j @ B W I I I I M ~.J.*.#.u.&X2 B W I I I I I I I I I I I I I I I I I I I I I J w.y.#.6.6.8.7.6   ",
"    $  .8.6.8.Z m ;.-.@.6.6.S.B X j W I I I I M !.R.*.#.t.@X3 i W I I I I I I I I I I I I I I I I I I I I I P 0.9.6.6.6.8.5.*   ",
"      W 8.6.8.H x ;.-.:.6.6.y.! . g | I I I I M K./.*.#.6.-Xz y W I I I I I I I I I I I I I I I I I I I I I J x.t.#.6.6.8. .$   ",
"      F 8.6.8.I h -.-.>.6.6.B./ + a W W I I I T k.*X*.#.%.=Xg.0 W W I I I I I I I K M J T I I I I I I I I I I c.6.6.6.6.8.E     ",
"      h 8.6.8.3.e =.-.=.6.6.u.w., 1 W W I I I K ) @X>.$.O.T.E.> W W I I I I I I K I ^.&Xh.T I I I I I I I I I e.6.6.6.6.8.V     ",
"      7 8.7.6.6.e o.-.=.6.6.9.q.w - I W I I I I J OXf.{ #.C.OX; U W I I I I I I M ~._.F.,Xh.T I I I I I I J ) M.#.6.6.6.8.r     ",
"      < X.8.6.8.h K ;.-.$.6.6.V.j @ A W I I I I M Q.T.*.6.#.-Xz i W I I I I I K ~ :X9.} U.}.M I I I I I I P 0.9.6.6.6.8.7.6     ",
"        E 8.6.8.H b -.-.@.6.#.u._ + k | I I I I M h.@X=.#.+.T.W.0 W W I I I I T K.*X+.%.t.#X^ K I I I I I P m.9.6.6.6.8. .$     ",
"        v 8.6.8.3.e >.-.>.6.6.i.q.1 1 W W I I I K J oXZ.{ #.9.,Xl m W I I I K I >XN.O.O.B.:X~ K I I I I J ) M.#.6.6.6.8.V       ",
"        6 7.8.6.8.d ..;.=.6.6.6.F.S + L W I I I I T K.*X} #.+.I..Xp Q W I K Y ~._.+.6.[ `.~.T I I I I I P w.t.6.6.6.8.8.7       ",
"          E 8.6.8.H v ;.-.@.6.6.9.x., g  .I I I I K I ;XC.+.6.+.`.].U T T M L.%X6.#.O.y.:X~ K I I I I I ~ S.6.6.6.6.8. .$       ",
"          e 8.6.8.5.q @.-.>.6.6.9.B.S - I W I I I I T z.%X%.#.#.O._.#XL.K.[.@X9.%.#.+.@XK.Y I I I I I J b.9.6.6.6.6.8.v         ",
"          $  .8.6.8.v V ;.-.$.6.#.t.m.w g | I I I I I M [.(.[ 6.#.+.V.(.'.P.%.%.6.[ ).{.M K I I I I I ^ r.6.6.6.6.8.5.4         ",
"            t 8.6.8.3.7 @.-.>.6.6.6.y.w.w A W I I I I K I ;XY.[ #.6.%.+.O.O.6.#.[ I.>X~ R I I I I I J m.9.#.6.6.6.8.n           ",
"            $  .8.6.8.v n 1.-.$.6.#.9.e.~ C W I I I I I T ^ ;X(.O.+.#.#.#.#.+.+.T.>X) T I I I I I J b.t.#.6.6.6.8.X.*           ",
"              q 8.8.8.5.7 X.;.=.6.6.#.u.c.I I I I I I I I T I [.%XP.9.#.#.9.D.@X{.~ T I I I I I J w.t.6.6.6.6.7.8.u             ",
"                G p.6.8.H d <.-.@.6.6.#.t.n.J I I I I I I I K M l.[.$X|.|.$X[.z.M R I I I I I P ) M.9.#.6.6.6.p.W #             ",
"                * X.8.6.8.r Z <.-.$.6.6.6.t.A.P K I I I I I I I T J ^ h.h.^ J T I I I I I I P ` S.6.#.6.6.6.8.6.6               ",
"                  7 7.8.8.3.7 ' a.>.$.6.6.6.t.n.~ J I I I I I I I I K J J K I I I I I I J I 0.S.#.6.6.6.6.8.8.t                 ",
"                    v 8.8.8.I 7 3.8.$.6.6.6.#.t.v.2.J I I I I I I I I I I I I I I I K P ~ n.B.#.6.6.6.6.8.8.D                   ",
"                      D 8.8.8.H q 6.8.6.6.6.6.#.9.t.A.~ I J I I I I I I I I I I I J ^ 0.S.9.6.6.6.6.6.8.p.G #                   ",
"                      O D 8.8.8.V q 6.8.6.6.6.6.6.6.9.r.c.0.~ I P P J P J P P ~ ^ b.e.y.#.6.6.6.6.6.8.p.G #                     ",
"                          n 8.8.8.V 7 3.8.6.6.6.6.6.#.6.6.B.q.m.w.w.w.0.x.0.c.v.y.t.6.#.6.6.6.6.6.8.8.D #                       ",
"                            r 6.p.p.L 7 P 8.8.6.6.6.6.6.6.#.6.6.t.t.y.t.y.9.9.6.6.#.6.6.6.6.6.6.8.7.c                           ",
"                              6 W 8.d.| 7 b 6.8.6.6.6.6.6.6.6.6.#.6.#.6.#.6.6.6.6.6.6.6.6.6.8.8. .6                             ",
"                                # u X.s.8.b q L 8.8.7.6.6.6.6.6.6.6.6.6.6.6.6.6.6.6.6.6.8.8.5.b $                               ",
"                                    & b X.s.3.h r L 6.8.8.8.6.6.6.6.6.6.6.6.6.6.6.8.8.8.X.n :                                   ",
"                                        & e W 7. .b t V | 6.8.8.8.8.8.8.8.8.8.8.8.6.E r *                                       ",
"                                              5 r b b t 7 e v V L W W | W L V h e 6                                             ",
"                                                        5 * $ # % $ $ $ $                                                       "
};
